<?xml version="1.0" standalone="no"?>
<!DOCTYPE svg PUBLIC "-//W3C//DTD SVG 20010904//EN"
 "http://www.w3.org/TR/2001/REC-SVG-20010904/DTD/svg10.dtd">
<svg version="1.0" xmlns="http://www.w3.org/2000/svg"
 width="320.000000pt" height="339.000000pt" viewBox="0 0 320.000000 339.000000"
 preserveAspectRatio="xMidYMid meet">
<metadata>
Created by potrace 1.16, written by Peter Selinger 2001-2019
</metadata>
<g transform="translate(0.000000,339.000000) scale(0.100000,-0.100000)"
fill="#000000" stroke="none">
<path d="M1435 3284 c-336 -47 -541 -122 -769 -282 -206 -144 -394 -360 -502
-574 -39 -78 -41 -88 -16 -88 13 0 27 17 43 52 13 29 47 90 76 135 221 354
582 603 1007 695 147 32 446 32 593 0 321 -69 562 -200 788 -427 125 -124 221
-254 286 -387 27 -55 38 -68 57 -68 23 0 22 3 -28 98 -110 210 -292 419 -481
555 -183 131 -426 233 -649 273 -83 15 -345 27 -405 18z"/>
<path d="M1345 3126 c-218 -37 -436 -129 -615 -259 -172 -126 -373 -371 -443
-539 -15 -36 -15 -38 2 -38 11 0 26 18 42 52 60 131 217 334 330 428 194 161
404 264 649 316 120 26 402 26 520 0 198 -43 349 -105 507 -209 184 -122 350
-303 458 -501 26 -47 53 -86 61 -86 20 0 19 2 -28 93 -183 352 -521 617 -914
718 -107 28 -137 31 -304 35 -125 2 -211 -1 -265 -10z"/>
<path d="M980 2874 c-19 -8 -36 -16 -37 -18 -2 -2 12 -38 31 -80 32 -71 37
-76 56 -66 19 10 19 12 4 42 l-16 31 35 -22 c19 -12 42 -18 51 -15 23 9 20 18
-9 34 -21 11 -24 18 -19 45 4 23 1 37 -11 48 -20 21 -39 21 -85 1z"/>
<path d="M1459 2587 c-62 -18 -132 -60 -166 -101 -28 -33 -29 -34 -123 -38
-82 -3 -103 -8 -149 -33 -109 -60 -167 -160 -163 -287 3 -141 85 -242 229
-284 31 -9 54 -22 57 -32 14 -47 27 -152 36 -292 6 -98 15 -159 23 -166 9 -10
92 -10 373 0 199 7 366 16 371 19 6 4 13 98 17 217 4 116 9 224 12 240 5 23
16 32 64 49 209 77 270 329 119 495 -70 77 -128 100 -251 101 -95 0 -97 1
-130 32 -75 73 -218 109 -319 80z m211 -89 c25 -10 59 -33 76 -50 31 -29 36
-30 125 -32 99 -1 127 -11 196 -64 50 -37 94 -135 94 -209 1 -117 -60 -206
-173 -253 l-55 -23 -7 -60 c-3 -33 -6 -95 -6 -137 l0 -77 -112 -7 c-62 -3
-219 -9 -349 -12 l-236 -7 -7 89 c-9 111 -24 184 -39 189 -112 31 -201 103
-225 181 -57 193 69 363 275 370 68 2 73 3 103 37 76 87 223 115 340 65z m250
-991 c0 -71 8 -69 -342 -80 -173 -6 -322 -8 -331 -4 -13 5 -17 18 -17 52 l0
45 113 1 c61 1 193 5 292 8 99 4 204 8 233 9 l52 2 0 -33z"/>
<path d="M1699 1287 c-22 -15 -39 -38 -49 -65 -52 -151 170 -245 238 -100 10
22 26 39 40 43 27 7 27 40 -1 40 -9 0 -26 14 -36 31 -46 75 -125 96 -192 51z
m154 -37 c58 -65 19 -165 -68 -176 -86 -11 -147 72 -110 150 35 73 124 86 178
26z"/>
<path d="M320 1052 c195 -373 550 -634 990 -728 120 -26 401 -26 520 0 153 33
253 66 362 121 152 76 237 135 356 250 118 113 201 218 266 337 60 111 62 118
39 118 -13 0 -27 -18 -47 -57 -146 -301 -450 -567 -779 -682 -158 -55 -272
-74 -457 -74 -185 0 -300 19 -457 74 -326 115 -615 368 -778 681 -20 38 -36
58 -48 58 -15 0 -10 -15 33 -98z"/>
<path d="M130 1068 c0 -6 21 -50 46 -97 167 -308 408 -539 717 -686 236 -112
405 -150 677 -150 153 0 205 4 297 23 462 93 855 376 1083 782 23 41 48 90 55
108 13 29 12 32 -4 32 -13 0 -35 -30 -75 -102 -230 -422 -634 -708 -1110 -790
-103 -17 -147 -19 -296 -15 -249 8 -410 47 -615 147 -301 146 -570 409 -704
688 -24 50 -40 72 -53 72 -10 0 -18 -5 -18 -12z"/>
<path d="M1545 970 c-12 -4 -43 -22 -70 -39 -53 -33 -117 -41 -172 -20 l-28
10 34 -35 c19 -20 50 -41 69 -47 53 -17 130 -4 179 30 27 19 45 26 49 20 12
-19 88 -49 127 -49 62 0 134 37 158 82 9 16 7 16 -26 3 -53 -23 -89 -18 -167
21 -60 30 -75 34 -91 25 -12 -8 -23 -9 -30 -3 -7 5 -21 6 -32 2z"/>
<path d="M1140 630 c-51 -51 -26 -122 44 -128 41 -4 63 10 77 47 27 69 -69
133 -121 81z"/>
</g>
</svg>
