<svg version="1.1" id="Layer_1" xmlns="http://www.w3.org/2000/svg" xmlns:xlink="http://www.w3.org/1999/xlink" x="0px" y="0px"
	 width="100%" viewBox="0 0 5048 5000" enable-background="new 0 0 5048 5000" xml:space="preserve">
<path fill="#FFFFFF" opacity="1.000000" stroke="none" 
	d="
M4.000000,1804.000000 
	C4.000000,1202.666626 4.000000,603.333313 4.000000,4.000000 
	C1686.666626,4.000000 3369.333252,4.000000 5052.000000,4.000000 
	C5052.000000,1670.666626 5052.000000,3337.333252 5052.000000,5004.000000 
	C3369.333252,5004.000000 1686.666626,5004.000000 4.000001,5004.000000 
	C4.000000,3938.000000 4.000000,2872.000000 4.000000,1804.000000 
M2624.197266,4934.160645 
	C2628.851074,4933.800293 2633.499268,4933.259766 2638.159912,4933.106445 
	C2691.479004,4931.352539 2744.553711,4926.615723 2797.575928,4920.858398 
	C2873.806152,4912.581543 2949.379639,4900.404785 3024.459473,4884.889648 
	C3221.861572,4844.096191 3411.187500,4779.525879 3592.244385,4691.077637 
	C3875.901123,4552.509277 4123.539551,4365.874023 4335.289551,4131.701172 
	C4490.539062,3960.011475 4618.645508,3769.976562 4719.747559,3561.763672 
	C4802.168457,3392.022705 4863.862305,3215.050049 4904.744141,3030.809570 
	C4927.432617,2928.560791 4943.438965,2825.330322 4952.899902,2721.007324 
	C4958.683105,2657.232178 4961.975098,2593.357666 4962.911621,2529.382568 
	C4964.348145,2431.318359 4959.213867,2333.538818 4948.783691,2235.995605 
	C4942.333984,2175.669922 4933.854004,2115.656982 4922.841309,2056.035156 
	C4891.391602,1885.774170 4842.574219,1720.611206 4775.685059,1560.869385 
	C4657.734375,1279.186768 4492.537109,1028.477661 4280.849121,808.502808 
	C4118.000000,639.278687 3934.263428,496.707214 3730.227051,380.376221 
	C3590.867676,300.920624 3444.992676,235.954559 3292.701416,185.619156 
	C3163.420410,142.889267 3031.450439,111.228004 2896.755859,90.762085 
	C2811.011230,77.733757 2724.869141,68.822235 2638.294189,65.225258 
	C2553.703613,61.710735 2469.052734,61.782578 2384.436768,66.945114 
	C2325.871094,70.518303 2267.533447,75.881569 2209.336182,83.279297 
	C2135.918945,92.611671 2063.118408,105.422028 1990.952271,121.666618 
	C1848.279053,153.782227 1709.529419,198.206161 1574.922974,255.500702 
	C1288.839722,377.270477 1035.257568,547.599976 813.982666,765.846863 
	C645.336731,932.184998 503.945068,1119.325439 389.805664,1326.952026 
	C272.772064,1539.843506 189.627090,1765.278076 140.253769,2003.131958 
	C126.031418,2071.647461 115.057213,2140.694580 106.796242,2210.212646 
	C100.343887,2264.511230 95.301231,2318.934082 92.908157,2373.504883 
	C90.134918,2436.744629 88.425255,2500.024902 90.647224,2563.405029 
	C92.890121,2627.382568 96.506271,2691.192383 103.115662,2754.874023 
	C110.618065,2827.159668 121.444252,2898.899902 135.317368,2970.227295 
	C173.155365,3164.768311 234.155777,3351.771484 318.364594,3531.113281 
	C464.923492,3843.243164 668.626953,4112.361328 928.514038,4338.927734 
	C1085.093628,4475.431641 1256.505371,4589.916992 1442.515503,4682.297852 
	C1733.853638,4826.988770 2042.150635,4909.287109 2366.608887,4930.975098 
	C2451.124268,4936.624023 2535.779541,4937.602051 2624.197266,4934.160645 
z"/>
<path fill="#EF9501" opacity="1.000000" stroke="none" 
	d="
M2622.325195,4934.295410 
	C2535.779541,4937.602051 2451.124268,4936.624023 2366.608887,4930.975098 
	C2042.150635,4909.287109 1733.853638,4826.988770 1442.515503,4682.297852 
	C1256.505371,4589.916992 1085.093628,4475.431641 928.514038,4338.927734 
	C668.626953,4112.361328 464.923492,3843.243164 318.364594,3531.113281 
	C234.155777,3351.771484 173.155365,3164.768311 135.317368,2970.227295 
	C121.444252,2898.899902 110.618065,2827.159668 103.115662,2754.874023 
	C96.506271,2691.192383 92.890121,2627.382568 90.647224,2563.405029 
	C88.425255,2500.024902 90.134918,2436.744629 92.908157,2373.504883 
	C95.301231,2318.934082 100.343887,2264.511230 106.796242,2210.212646 
	C115.057213,2140.694580 126.031418,2071.647461 140.253769,2003.131958 
	C189.627090,1765.278076 272.772064,1539.843506 389.805664,1326.952026 
	C503.945068,1119.325439 645.336731,932.184998 813.982666,765.846863 
	C1035.257568,547.599976 1288.839722,377.270477 1574.922974,255.500702 
	C1709.529419,198.206161 1848.279053,153.782227 1990.952271,121.666618 
	C2063.118408,105.422028 2135.918945,92.611671 2209.336182,83.279297 
	C2267.533447,75.881569 2325.871094,70.518303 2384.436768,66.945114 
	C2469.052734,61.782578 2553.703613,61.710735 2638.294189,65.225258 
	C2724.869141,68.822235 2811.011230,77.733757 2896.755859,90.762085 
	C3031.450439,111.228004 3163.420410,142.889267 3292.701416,185.619156 
	C3444.992676,235.954559 3590.867676,300.920624 3730.227051,380.376221 
	C3934.263428,496.707214 4118.000000,639.278687 4280.849121,808.502808 
	C4492.537109,1028.477661 4657.734375,1279.186768 4775.685059,1560.869385 
	C4842.574219,1720.611206 4891.391602,1885.774170 4922.841309,2056.035156 
	C4933.854004,2115.656982 4942.333984,2175.669922 4948.783691,2235.995605 
	C4959.213867,2333.538818 4964.348145,2431.318359 4962.911621,2529.382568 
	C4961.975098,2593.357666 4958.683105,2657.232178 4952.899902,2721.007324 
	C4943.438965,2825.330322 4927.432617,2928.560791 4904.744141,3030.809570 
	C4863.862305,3215.050049 4802.168457,3392.022705 4719.747559,3561.763672 
	C4618.645508,3769.976562 4490.539062,3960.011475 4335.289551,4131.701172 
	C4123.539551,4365.874023 3875.901123,4552.509277 3592.244385,4691.077637 
	C3411.187500,4779.525879 3221.861572,4844.096191 3024.459473,4884.889648 
	C2949.379639,4900.404785 2873.806152,4912.581543 2797.575928,4920.858398 
	C2744.553711,4926.615723 2691.479004,4931.352539 2638.159912,4933.106445 
	C2633.499268,4933.259766 2628.851074,4933.800293 2622.325195,4934.295410 
M4621.194824,2437.305176 
	C4618.303223,2309.008789 4602.535645,2182.229004 4575.685059,2056.821777 
	C4548.836426,1931.426025 4510.534180,1809.581665 4461.025391,1691.259888 
	C4411.499512,1572.896362 4351.235840,1460.283325 4281.449219,1352.635132 
	C4204.439941,1233.846924 4086.329590,1092.225952 4041.080078,1053.275879 
	C4035.588623,1057.803101 4029.852783,1062.306519 4024.362793,1067.091919 
	C3937.928955,1142.427490 3851.525879,1217.798096 3765.117188,1293.162842 
	C3647.059326,1396.131592 3529.006836,1499.106567 3410.927246,1602.050659 
	C3407.420166,1605.108276 3403.718506,1607.965332 3399.915039,1610.642456 
	C3399.148682,1611.182007 3397.509277,1610.481201 3396.126709,1610.337280 
	C3394.905518,1604.723999 3393.675049,1599.068604 3392.180908,1592.200806 
	C3384.798340,1592.200806 3378.238037,1592.202148 3371.677490,1592.200562 
	C3343.011230,1592.193115 3314.344727,1592.230835 3285.678955,1592.108398 
	C3282.704590,1592.095703 3278.870605,1593.211304 3277.150635,1587.878662 
	C3279.004395,1584.399780 3281.170410,1580.368896 3283.305420,1576.321655 
	C3291.698730,1560.410278 3300.491455,1544.694214 3308.403809,1528.546753 
	C3359.519043,1424.229736 3388.221191,1314.132080 3392.906006,1197.939697 
	C3393.738281,1177.298096 3394.017578,1156.634521 3394.642578,1135.983887 
	C3394.781982,1131.375000 3395.301270,1126.777344 3395.628174,1122.407471 
	C3399.441162,1118.816162 3402.721191,1115.512695 3406.221436,1112.461792 
	C3472.549805,1054.641968 3538.914795,996.864319 3605.249268,939.051514 
	C3651.985107,898.319580 3698.722412,857.588928 3745.343750,816.726135 
	C3749.605225,812.991028 3755.420166,810.172241 3756.412842,803.700500 
	C3036.491211,264.415009 1900.795288,225.181641 1101.509399,962.034729 
	C909.266235,1139.261597 756.185547,1346.216797 641.469177,1581.254395 
	C518.605591,1832.984375 449.404724,2099.002441 433.634857,2378.524170 
	C419.616364,2627.003174 448.085907,2870.759766 520.198120,3109.250488 
	C556.653442,3229.815918 647.184509,3445.671875 680.282898,3488.150879 
	C684.351562,3484.971191 688.580688,3481.961670 692.480042,3478.572754 
	C731.220581,3444.900635 769.919250,3411.180420 808.605286,3377.445801 
	C927.176086,3274.051270 1045.727783,3170.634766 1164.302246,3067.244629 
	C1295.940186,2952.464111 1427.596436,2837.705078 1559.241089,2722.932129 
	C1601.950073,2685.697021 1644.626831,2648.424561 1687.389893,2611.251465 
	C1691.154053,2607.979248 1694.404297,2603.311523 1700.950806,2603.479004 
	C1708.691284,2623.190186 1715.737427,2642.512207 1723.838379,2661.381348 
	C1732.243530,2680.958740 1741.141602,2700.366699 1750.800659,2719.352051 
	C1760.159912,2737.747803 1770.240967,2755.827881 1780.961426,2773.465332 
	C1791.683228,2791.105225 1803.100220,2808.374756 1815.111328,2825.163574 
	C1827.511597,2842.496826 1840.945312,2859.093506 1854.017822,2875.941895 
	C1866.544189,2892.086426 1881.815063,2905.966553 1894.731079,2923.496338 
	C1888.141113,2929.468750 1882.365845,2934.880859 1876.403931,2940.078857 
	C1787.472534,3017.621094 1698.513306,3095.131348 1609.567139,3172.656738 
	C1509.062500,3260.256104 1408.553223,3347.850342 1308.067749,3435.471924 
	C1259.332397,3477.968506 1210.621338,3520.493164 1161.997925,3563.117676 
	C1158.894897,3565.838135 1153.548828,3567.603271 1154.982544,3574.098145 
	C2211.785400,3574.098145 3268.217529,3574.098145 4325.759277,3574.098145 
	C4329.245117,3568.494629 4332.955078,3563.039307 4336.155762,3557.299316 
	C4352.380371,3528.201172 4369.079102,3499.346191 4384.517578,3469.833984 
	C4523.054199,3205.005371 4600.561035,2923.112305 4618.788086,2624.989990 
	C4622.527832,2563.824707 4625.100586,2502.473389 4621.194824,2437.305176 
M3601.682129,4097.591797 
	C3601.458984,3988.372803 3601.241943,3879.153809 3600.937744,3769.935059 
	C3600.934570,3768.767822 3599.791016,3767.603516 3599.178711,3766.438477 
	C3578.101074,3763.283691 3535.359131,3763.928467 3521.183350,3767.989258 
	C3521.086182,3774.771973 3520.896729,3781.985596 3520.893555,3789.199219 
	C3520.867432,3850.477539 3520.926514,3911.756104 3520.757324,3973.033936 
	C3520.746094,3977.089355 3523.229492,3982.339844 3517.059082,3985.528076 
	C3513.219727,3980.791016 3509.380371,3976.295654 3505.802490,3971.601318 
	C3479.158203,3936.643311 3452.568848,3901.643311 3425.957275,3866.659912 
	C3402.571777,3835.917480 3379.037354,3805.286865 3355.900146,3774.358887 
	C3350.590820,3767.261475 3344.593994,3764.195557 3335.665527,3764.509766 
	C3319.034424,3765.094971 3302.366699,3764.575928 3285.717285,3764.762451 
	C3281.974854,3764.804199 3278.243652,3765.859131 3274.741943,3766.410889 
	C3274.050781,3769.560791 3273.265381,3771.464600 3273.267334,3773.368164 
	C3273.385010,3891.907959 3273.565918,4010.447510 3273.765137,4128.987305 
	C3273.766357,4129.627930 3274.007324,4130.324219 3274.320801,4130.892090 
	C3274.632568,4131.457031 3275.177734,4131.892578 3275.490479,4132.240234 
	C3293.623047,4135.873535 3338.682129,4135.503906 3353.310059,4131.323730 
	C3353.542480,4125.174805 3353.994141,4118.636230 3354.003662,4112.096680 
	C3354.067139,4068.136230 3354.032471,4024.175781 3354.038818,3980.215332 
	C3354.041992,3958.901123 3354.015869,3937.586914 3354.130371,3916.273193 
	C3354.147217,3913.149170 3353.833740,3909.433105 3359.560303,3908.504883 
	C3363.293945,3913.199951 3367.470459,3918.267090 3371.450439,3923.483887 
	C3421.137207,3988.608643 3470.820801,4053.735840 3520.444580,4118.908691 
	C3533.646729,4136.247559 3530.450195,4134.516113 3551.560059,4134.607910 
	C3563.549072,4134.660156 3575.539307,4134.691895 3587.527100,4134.555664 
	C3591.401123,4134.511230 3595.268799,4133.901367 3598.551270,4133.604004 
	C3599.723633,4131.604492 3600.911377,4130.502441 3600.956055,4129.356445 
	C3601.318359,4120.054199 3601.466553,4110.743164 3601.682129,4097.591797 
M2510.316650,4648.616211 
	C2497.161865,4629.361816 2483.948975,4610.146484 2470.868896,4590.841797 
	C2457.484375,4571.089355 2443.344727,4551.821289 2430.230713,4530.655762 
	C2436.087402,4527.432129 2440.592529,4524.867676 2445.173096,4522.445801 
	C2480.020752,4504.018066 2500.774170,4475.338867 2506.239746,4436.351562 
	C2507.981445,4423.927246 2508.342041,4410.973633 2507.000732,4398.513672 
	C2502.078857,4352.789062 2478.503906,4320.564941 2435.230713,4303.534668 
	C2416.423340,4296.133789 2396.833740,4292.361816 2376.690918,4292.278809 
	C2322.045410,4292.054199 2267.398438,4292.149414 2212.752197,4292.225586 
	C2208.965332,4292.230469 2205.179443,4293.122070 2200.500977,4293.713379 
	C2200.243652,4301.293945 2199.830811,4307.833984 2199.828369,4314.374512 
	C2199.788330,4422.334473 2199.757324,4530.293945 2199.896729,4638.253906 
	C2199.905762,4645.345215 2198.105713,4652.833984 2201.842773,4659.394043 
	C2224.301025,4662.464844 2265.783691,4661.830566 2280.612549,4657.916992 
	C2280.652832,4639.791992 2280.443359,4621.243652 2280.804932,4602.706055 
	C2281.177979,4583.591797 2279.196289,4564.364258 2282.211670,4545.033691 
	C2292.863770,4542.320312 2302.851807,4543.770020 2312.710693,4543.573242 
	C2323.293701,4543.362305 2333.886963,4543.655762 2344.751465,4543.730957 
	C2371.199707,4583.070801 2397.153809,4621.675781 2423.690918,4661.147949 
	C2453.223633,4660.921387 2482.442383,4661.695801 2511.675781,4660.511719 
	C2512.633301,4660.473145 2513.537109,4659.107910 2515.244385,4657.735352 
	C2514.241699,4655.676270 2513.145020,4653.423340 2510.316650,4648.616211 
M1538.048462,3884.662598 
	C1541.191162,3880.360107 1544.092041,3875.853760 1547.516357,3871.788330 
	C1567.460449,3848.111328 1592.731445,3834.975342 1623.899414,3834.165527 
	C1652.662109,3833.417969 1679.366821,3840.184814 1703.157104,3856.933838 
	C1709.112061,3861.125977 1715.098511,3865.273682 1720.878540,3869.307861 
	C1731.826172,3860.696289 1759.055176,3828.765381 1771.958984,3809.536133 
	C1770.322266,3807.717285 1768.799927,3805.519775 1766.810669,3803.893311 
	C1746.464844,3787.260498 1723.897583,3774.886475 1698.547729,3767.471191 
	C1670.623291,3759.302490 1642.063721,3757.529785 1613.407227,3759.659180 
	C1542.034058,3764.962891 1488.918213,3799.278320 1455.313110,3862.652588 
	C1438.314697,3894.709229 1433.565308,3929.360107 1435.404053,3965.340820 
	C1439.395386,4043.435059 1489.204712,4108.327637 1563.896851,4131.183594 
	C1604.339355,4143.559082 1645.349976,4143.618652 1686.304321,4133.865234 
	C1723.881958,4124.916016 1757.216431,4107.523926 1786.277710,4082.145508 
	C1786.586304,4078.222656 1787.067505,4074.927734 1787.071289,4071.632080 
	C1787.124023,4025.652100 1787.153198,3979.672363 1787.036499,3933.692627 
	C1787.026978,3929.944580 1785.911621,3926.199219 1785.367920,3922.812256 
	C1766.693848,3920.401855 1644.700684,3920.519775 1628.150635,3922.904053 
	C1623.933838,3933.543457 1626.192749,3944.974365 1626.242188,3956.057129 
	C1626.294067,3967.681641 1623.650269,3979.745605 1629.046021,3992.021973 
	C1638.173218,3992.021973 1646.789185,3992.021729 1655.405151,3992.021729 
	C1664.068115,3992.021729 1672.740723,3991.764893 1681.391113,3992.095459 
	C1689.805664,3992.416748 1698.548218,3990.265381 1707.143921,3994.420654 
	C1708.423584,4011.329590 1708.235596,4027.757324 1707.416992,4044.960205 
	C1699.810059,4048.989502 1692.974365,4052.983154 1685.830444,4056.316650 
	C1671.090088,4063.194824 1655.160889,4065.588867 1639.196167,4066.322510 
	C1580.293823,4069.027588 1540.929321,4035.469482 1526.744385,3991.428467 
	C1515.114014,3955.318604 1518.031494,3920.521973 1538.048462,3884.662598 
M3042.000000,3764.660400 
	C3006.673828,3764.661133 2971.347656,3764.607666 2936.021973,3764.723389 
	C2930.904541,3764.740234 2925.254639,3763.269775 2920.108154,3769.358643 
	C2920.108154,3774.746094 2920.108154,3781.373779 2920.108154,3788.001709 
	C2920.108154,3895.979492 2920.078857,4003.957275 2920.175049,4111.935059 
	C2920.181396,4118.998047 2918.865234,4126.378906 2922.270020,4133.757812 
	C2926.881592,4134.078125 2930.782715,4134.583496 2934.683838,4134.585449 
	C3019.333008,4134.626465 3103.982422,4134.629883 3188.631592,4134.549805 
	C3192.397949,4134.546387 3196.163574,4133.690430 3199.536621,4133.279297 
	C3202.882568,4112.235352 3202.450684,4076.535400 3198.623779,4061.886475 
	C3192.426270,4061.713135 3185.865479,4061.374756 3179.304443,4061.369385 
	C3125.982178,4061.323975 3072.659424,4061.419434 3019.337891,4061.226562 
	C3013.669678,4061.206055 3007.233398,4063.459229 3001.024658,4056.330322 
	C3001.024658,4037.420898 3000.898438,4016.852295 3001.141113,3996.288330 
	C3001.184814,3992.596436 3002.749756,3988.922607 3003.818604,3984.360596 
	C3011.285156,3984.360596 3017.909912,3984.360596 3024.534668,3984.360596 
	C3069.192139,3984.360596 3113.849854,3984.405762 3158.507080,3984.298096 
	C3163.583740,3984.285645 3168.658203,3983.412842 3175.052246,3982.815674 
	C3175.162598,3970.368896 3175.766357,3959.132324 3175.221680,3947.951904 
	C3174.654053,3936.295410 3178.111572,3924.190430 3172.151855,3911.960449 
	C3165.325439,3911.960449 3158.697266,3911.960693 3152.069092,3911.960693 
	C3108.078125,3911.961182 3064.087402,3912.009521 3020.096680,3911.904297 
	C3014.343262,3911.890381 3008.592041,3911.084229 3003.239014,3910.675537 
	C3000.089844,3891.364502 3000.247070,3854.974854 3003.394043,3839.624512 
	C3009.373047,3836.388916 3016.158203,3837.676758 3022.675049,3837.663818 
	C3074.664307,3837.561279 3126.653809,3837.665283 3178.642578,3837.526123 
	C3185.109375,3837.508789 3192.015381,3839.289307 3199.144775,3833.750000 
	C3199.144775,3823.373535 3199.589355,3812.065430 3199.022217,3800.808594 
	C3198.434082,3789.134277 3201.793701,3777.037598 3196.038330,3764.660889 
	C3145.874023,3764.660889 3095.937012,3764.660889 3042.000000,3764.660400 
M2859.529053,4337.651367 
	C2859.122314,4323.187988 2860.406250,4308.634766 2858.705811,4294.381836 
	C2855.481689,4293.395020 2853.649414,4292.346191 2851.816406,4292.344238 
	C2763.873047,4292.266602 2675.929443,4292.268066 2587.986084,4292.354492 
	C2586.162109,4292.355957 2584.339111,4293.455566 2582.726562,4293.974609 
	C2579.698486,4310.440430 2578.658936,4475.435059 2580.503662,4643.628418 
	C2580.560303,4648.789551 2581.252197,4653.942871 2581.695557,4659.720215 
	C2585.837158,4660.271973 2589.023193,4661.064453 2592.209717,4661.066406 
	C2678.822021,4661.127930 2765.434326,4661.128906 2852.046631,4661.020508 
	C2855.080322,4661.017090 2858.112793,4659.798340 2860.693115,4659.243164 
	C2863.538818,4635.152832 2863.034180,4604.510254 2859.429199,4589.434082 
	C2853.330322,4589.193359 2846.837402,4588.721680 2840.343994,4588.714355 
	C2787.710205,4588.653320 2735.076416,4588.744629 2682.443115,4588.595215 
	C2675.994385,4588.576660 2669.062500,4590.485352 2663.289795,4585.738281 
	C2661.162842,4565.191895 2661.539795,4528.789551 2664.055908,4514.074707 
	C2670.080322,4510.332520 2676.898926,4511.939453 2683.389160,4511.919434 
	C2728.693604,4511.779785 2773.998779,4511.895508 2819.303467,4511.781250 
	C2824.379150,4511.768555 2829.452393,4510.825195 2834.208740,4510.345703 
	C2836.696045,4489.615723 2836.414551,4457.426758 2833.554199,4440.429688 
	C2827.429932,4440.125977 2820.960205,4439.539551 2814.489502,4439.527832 
	C2769.850830,4439.445801 2725.211670,4439.556152 2680.573486,4439.395020 
	C2674.846191,4439.374512 2668.537842,4441.226562 2662.345703,4435.141113 
	C2662.248047,4428.374023 2662.088623,4420.455078 2662.031738,4412.535156 
	C2661.974365,4404.540527 2661.759033,4396.534180 2662.092529,4388.552734 
	C2662.413086,4380.876465 2660.292236,4372.745117 2665.353027,4364.350098 
	C2672.121338,4364.350098 2678.699951,4364.350098 2685.278564,4364.350098 
	C2737.246094,4364.349609 2789.213867,4364.415039 2841.180908,4364.255859 
	C2846.891846,4364.238281 2853.209229,4366.171875 2859.528076,4359.994141 
	C2859.528076,4354.609375 2859.528076,4348.042969 2859.529053,4337.651367 
M2934.639648,4296.594238 
	C2934.341553,4299.234375 2933.783691,4301.874023 2933.782471,4304.514160 
	C2933.734863,4419.111816 2933.718506,4533.708984 2933.809570,4648.306641 
	C2933.812744,4652.090820 2934.965820,4655.874023 2935.536621,4659.375000 
	C2952.496338,4661.685059 3153.419189,4662.904297 3204.058105,4661.061523 
	C3207.228516,4660.945801 3210.375000,4660.180664 3213.206543,4659.765625 
	C3216.809082,4639.861816 3216.344238,4603.319336 3212.219971,4589.260254 
	C3205.994385,4589.077637 3199.434814,4588.724121 3192.874756,4588.718750 
	C3139.573486,4588.672852 3086.272217,4588.750977 3032.971436,4588.605957 
	C3027.243164,4588.590332 3020.920410,4590.410156 3015.182861,4584.620117 
	C3015.494385,4561.572754 3014.085938,4537.785645 3016.205811,4512.780762 
	C3023.543945,4512.438477 3030.031494,4511.883789 3036.520020,4511.873047 
	C3081.826172,4511.797852 3127.132080,4511.878906 3172.437988,4511.777344 
	C3177.568115,4511.766113 3183.177246,4513.213867 3188.529297,4507.517578 
	C3188.529297,4497.385254 3188.695312,4486.091797 3188.482422,4474.804688 
	C3188.272217,4463.675293 3189.477295,4452.428223 3187.259277,4440.264160 
	C3172.483398,4438.858398 3158.600342,4439.658691 3144.771729,4439.526367 
	C3130.781494,4439.392578 3116.788818,4439.497070 3102.797363,4439.497070 
	C3088.139404,4439.497070 3073.479980,4439.636230 3058.824219,4439.456543 
	C3044.998535,4439.286621 3031.098145,4440.319824 3017.672119,4438.694824 
	C3014.335449,4422.184570 3014.213379,4383.176758 3017.440918,4365.191406 
	C3023.584961,4364.916992 3030.067627,4364.385254 3036.550781,4364.376953 
	C3089.185791,4364.308105 3141.820801,4364.402344 3194.455322,4364.243652 
	C3200.165771,4364.226562 3206.512451,4366.181152 3211.335449,4361.214844 
	C3213.549805,4333.538574 3212.951904,4307.725586 3209.541504,4292.861328 
	C3204.666016,4292.634277 3199.474121,4292.184082 3194.281982,4292.181152 
	C3113.663818,4292.136719 3033.045654,4292.124023 2952.427490,4292.209473 
	C2947.160156,4292.214844 2941.893555,4293.075195 2934.639648,4296.594238 
M2255.863037,3902.000000 
	C2255.863037,3879.337646 2256.077637,3856.672607 2255.802490,3834.013672 
	C2255.530273,3811.581299 2257.061768,3789.070801 2254.790039,3766.995850 
	C2236.923584,3763.914551 2192.585449,3763.901123 2175.538818,3766.902588 
	C2175.066162,3771.146729 2174.130371,3775.665771 2174.124512,3780.186035 
	C2174.041748,3842.840576 2173.830811,3905.497070 2174.227295,3968.149170 
	C2174.383057,3992.789062 2175.738525,4017.359375 2183.296631,4041.259766 
	C2197.864258,4087.327148 2227.668457,4118.044922 2274.007324,4131.780273 
	C2312.560059,4143.207520 2351.573730,4143.291992 2390.436768,4132.951660 
	C2441.166992,4119.453613 2473.277588,4086.792480 2487.986084,4036.722168 
	C2493.462402,4018.080811 2496.082764,3998.983643 2496.085693,3979.527588 
	C2496.095215,3912.207520 2496.174561,3844.887207 2496.131836,3777.567139 
	C2496.129395,3773.802734 2495.269775,3770.039062 2494.854248,3766.645020 
	C2472.233643,3763.446777 2429.907715,3763.976318 2415.250732,3767.756836 
	C2415.175537,3773.964600 2415.028076,3780.545654 2415.026367,3787.126709 
	C2415.010010,3847.781738 2415.160645,3908.437500 2414.893311,3969.091309 
	C2414.843750,3980.364746 2413.950439,3991.768311 2412.056885,4002.875000 
	C2405.670898,4040.330566 2379.730225,4062.857910 2341.962158,4064.485352 
	C2337.306641,4064.685791 2332.625000,4064.687744 2327.971436,4064.456787 
	C2293.610352,4062.751709 2268.629150,4042.850830 2260.407227,4009.545898 
	C2257.717773,3998.651611 2256.397461,3987.215332 2256.083252,3975.981201 
	C2255.431152,3952.670166 2255.871582,3929.328857 2255.863037,3902.000000 
M1913.568848,4661.160156 
	C1920.561157,4660.431152 1928.115967,4662.969727 1935.543457,4657.504395 
	C1935.543457,4646.362305 1935.543457,4635.108398 1935.543457,4623.854492 
	C1935.543457,4612.526367 1935.543579,4601.198730 1935.543457,4589.870605 
	C1935.543457,4577.875977 1935.291504,4565.875000 1935.617188,4553.889160 
	C1935.918823,4542.786133 1934.073486,4531.484863 1937.382935,4519.476562 
	C1945.264038,4519.265625 1952.473267,4518.914062 1959.682617,4518.905762 
	C2004.994751,4518.854004 2050.306885,4518.918457 2095.619141,4518.824707 
	C2100.759766,4518.813965 2106.374268,4520.192383 2111.555908,4514.479980 
	C2111.388428,4492.481934 2112.795654,4469.398438 2110.478760,4445.205566 
	C2102.889404,4444.870605 2096.384521,4444.345703 2089.878906,4444.335449 
	C2043.900391,4444.261230 1997.921631,4444.341309 1951.943359,4444.224121 
	C1946.872559,4444.211426 1941.804077,4443.262695 1937.041992,4442.779297 
	C1934.308105,4417.390137 1934.929443,4381.683105 1938.445801,4367.183105 
	C1959.963623,4366.041992 1981.856079,4366.789551 2003.720703,4366.660156 
	C2025.043335,4366.534180 2046.370483,4366.861816 2067.689697,4366.569336 
	C2089.497070,4366.270020 2111.382812,4367.883301 2132.853760,4365.475098 
	C2136.501465,4347.037109 2136.216553,4307.587402 2132.573242,4293.808594 
	C2131.360107,4293.349121 2130.162842,4292.545898 2128.931641,4292.490234 
	C2123.613770,4292.249023 2118.285645,4292.130859 2112.961670,4292.139648 
	C2028.350098,4292.276367 1943.738647,4292.438965 1859.126953,4292.622559 
	C1858.492920,4292.624023 1857.812744,4292.923828 1857.239380,4293.239746 
	C1856.698242,4293.537598 1856.269775,4294.040527 1855.791870,4294.453613 
	C1852.899292,4310.515137 1851.769409,4497.415039 1853.742188,4643.827148 
	C1853.812256,4649.026367 1854.512695,4654.217285 1854.874512,4658.840820 
	C1857.264648,4659.841309 1858.484863,4660.787598 1859.716064,4660.801758 
	C1876.370972,4660.997070 1893.027222,4661.062500 1913.568848,4661.160156 
M2606.016113,3840.214600 
	C2615.341553,3840.214600 2624.679932,3839.907471 2633.988770,3840.299072 
	C2643.704590,3840.707764 2653.756348,3838.296875 2664.237305,3843.017578 
	C2664.237305,3862.488770 2664.237305,3881.743408 2664.237305,3900.998047 
	C2664.237305,3920.315186 2664.237305,3939.632324 2664.237305,3958.949463 
	C2664.237305,3978.266602 2664.237305,3997.583740 2664.237305,4016.900879 
	C2664.237305,4036.218018 2664.037354,4055.537598 2664.293945,4074.851318 
	C2664.548096,4093.996338 2663.073975,4113.212402 2665.335693,4132.061523 
	C2683.911133,4136.050781 2731.832764,4135.578125 2745.381104,4131.241699 
	C2747.547363,4112.371582 2746.123047,4093.115479 2746.369141,4073.920166 
	C2746.616943,4054.606201 2746.423828,4035.286621 2746.423828,4015.969482 
	C2746.423828,3996.652344 2746.423828,3977.335205 2746.423828,3958.018066 
	C2746.423828,3938.700928 2746.187012,3919.380127 2746.490723,3900.067627 
	C2746.791748,3880.910156 2745.053955,3861.666504 2747.888184,3841.292236 
	C2754.247314,3840.911621 2760.062744,3840.287598 2765.880615,3840.262939 
	C2791.858398,3840.152100 2817.836914,3840.277344 2843.814697,3840.147461 
	C2848.225830,3840.125488 2852.632812,3839.273926 2856.689453,3838.843018 
	C2859.838623,3817.436768 2859.449707,3780.433350 2855.938232,3765.701416 
	C2853.052734,3765.376221 2849.857910,3764.702881 2846.662354,3764.701172 
	C2752.075195,3764.649902 2657.488037,3764.648926 2562.900879,3764.743652 
	C2559.778076,3764.746826 2556.656250,3765.830811 2553.873779,3766.348145 
	C2551.023682,3787.284180 2551.465820,3824.279785 2554.866699,3839.639160 
	C2570.317871,3840.809082 2586.199463,3839.957520 2606.016113,3840.214600 
M1864.263916,3946.000000 
	C1864.264404,4002.630127 1864.202759,4059.260254 1864.360718,4115.889648 
	C1864.376587,4121.602539 1862.490845,4127.858887 1867.766968,4134.134766 
	C1888.973389,4135.169922 1910.872314,4134.456543 1932.744629,4134.588867 
	C1954.063354,4134.717773 1975.383545,4134.617188 1996.703003,4134.617188 
	C2018.688721,4134.617188 2040.678833,4134.890625 2062.658936,4134.539551 
	C2084.400879,4134.191406 2106.248047,4136.102051 2127.610840,4133.299316 
	C2131.386230,4113.045410 2130.887451,4074.812500 2126.538330,4060.122803 
	C2120.331055,4060.122803 2113.728760,4060.122803 2107.126465,4060.122803 
	C2059.823730,4060.122559 2012.520996,4060.178711 1965.218628,4060.047852 
	C1959.397461,4060.031738 1953.197754,4061.566895 1946.535156,4056.639648 
	C1946.384766,4050.356445 1946.065063,4043.140625 1946.062012,4035.924561 
	C1946.026733,3953.311523 1946.085815,3870.698242 1945.958252,3788.085449 
	C1945.947266,3780.921143 1947.688232,3773.413330 1943.438599,3766.337891 
	C1941.717651,3765.859863 1939.870850,3764.909668 1938.019165,3764.899902 
	C1916.035767,3764.782959 1894.050903,3764.725830 1872.068726,3764.909912 
	C1869.702148,3764.929932 1867.348999,3766.564697 1864.264038,3767.723145 
	C1864.264038,3826.141602 1864.264038,3884.070801 1864.263916,3946.000000 
z"/>
<path fill="#FFFFFE" opacity="1.000000" stroke="none" 
	d="
M4621.277832,2439.213623 
	C4625.100586,2502.473389 4622.527832,2563.824707 4618.788086,2624.989990 
	C4600.561035,2923.112305 4523.054199,3205.005371 4384.517578,3469.833984 
	C4369.079102,3499.346191 4352.380371,3528.201172 4336.155762,3557.299316 
	C4332.955078,3563.039307 4329.245117,3568.494629 4325.759277,3574.098145 
	C3268.217529,3574.098145 2211.785400,3574.098145 1154.982544,3574.098145 
	C1153.548828,3567.603271 1158.894897,3565.838135 1161.997925,3563.117676 
	C1210.621338,3520.493164 1259.332397,3477.968506 1308.067749,3435.471924 
	C1408.553223,3347.850342 1509.062500,3260.256104 1609.567139,3172.656738 
	C1698.513306,3095.131348 1787.472534,3017.621094 1876.403931,2940.078857 
	C1882.365845,2934.880859 1888.141113,2929.468750 1894.731079,2923.496338 
	C1881.815063,2905.966553 1866.544189,2892.086426 1854.017822,2875.941895 
	C1840.945312,2859.093506 1827.511597,2842.496826 1815.111328,2825.163574 
	C1803.100220,2808.374756 1791.683228,2791.105225 1780.961426,2773.465332 
	C1770.240967,2755.827881 1760.159912,2737.747803 1750.800659,2719.352051 
	C1741.141602,2700.366699 1732.243530,2680.958740 1723.838379,2661.381348 
	C1715.737427,2642.512207 1708.691284,2623.190186 1700.950806,2603.479004 
	C1694.404297,2603.311523 1691.154053,2607.979248 1687.389893,2611.251465 
	C1644.626831,2648.424561 1601.950073,2685.697021 1559.241089,2722.932129 
	C1427.596436,2837.705078 1295.940186,2952.464111 1164.302246,3067.244629 
	C1045.727783,3170.634766 927.176086,3274.051270 808.605286,3377.445801 
	C769.919250,3411.180420 731.220581,3444.900635 692.480042,3478.572754 
	C688.580688,3481.961670 684.351562,3484.971191 680.282898,3488.150879 
	C647.184509,3445.671875 556.653442,3229.815918 520.198120,3109.250488 
	C448.085907,2870.759766 419.616364,2627.003174 433.634857,2378.524170 
	C449.404724,2099.002441 518.605591,1832.984375 641.469177,1581.254395 
	C756.185547,1346.216797 909.266235,1139.261597 1101.509399,962.034729 
	C1900.795288,225.181641 3036.491211,264.415009 3756.412842,803.700500 
	C3755.420166,810.172241 3749.605225,812.991028 3745.343750,816.726135 
	C3698.722412,857.588928 3651.985107,898.319580 3605.249268,939.051514 
	C3538.914795,996.864319 3472.549805,1054.641968 3406.221436,1112.461792 
	C3402.721191,1115.512695 3399.441162,1118.816162 3395.628174,1122.407471 
	C3395.301270,1126.777344 3394.781982,1131.375000 3394.642578,1135.983887 
	C3394.017578,1156.634521 3393.738281,1177.298096 3392.906006,1197.939697 
	C3388.221191,1314.132080 3359.519043,1424.229736 3308.403809,1528.546753 
	C3300.491455,1544.694214 3291.698730,1560.410278 3283.305420,1576.321655 
	C3281.170410,1580.368896 3279.004395,1584.399780 3277.150635,1587.878662 
	C3278.870605,1593.211304 3282.704590,1592.095703 3285.678955,1592.108398 
	C3314.344727,1592.230835 3343.011230,1592.193115 3371.677490,1592.200562 
	C3378.238037,1592.202148 3384.798340,1592.200806 3392.180908,1592.200806 
	C3393.675049,1599.068604 3394.905518,1604.723999 3396.126709,1610.337280 
	C3397.509277,1610.481201 3399.148682,1611.182007 3399.915039,1610.642456 
	C3403.718506,1607.965332 3407.420166,1605.108276 3410.927246,1602.050659 
	C3529.006836,1499.106567 3647.059326,1396.131592 3765.117188,1293.162842 
	C3851.525879,1217.798096 3937.928955,1142.427490 4024.362793,1067.091919 
	C4029.852783,1062.306519 4035.588623,1057.803101 4041.080078,1053.275879 
	C4086.329590,1092.225952 4204.439941,1233.846924 4281.449219,1352.635132 
	C4351.235840,1460.283325 4411.499512,1572.896362 4461.025391,1691.259888 
	C4510.534180,1809.581665 4548.836426,1931.426025 4575.685059,2056.821777 
	C4602.535645,2182.229004 4618.303223,2309.008789 4621.277832,2439.213623 
M2846.684814,1780.753662 
	C2994.123535,1708.880981 3103.268555,1598.876709 3173.837158,1450.911133 
	C3215.157959,1364.270996 3235.405518,1272.412109 3238.659424,1176.668335 
	C3238.833740,1171.536865 3238.042725,1166.372559 3237.714600,1161.423096 
	C3154.235596,1153.655640 3000.480957,1182.728394 2876.419922,1261.525513 
	C2702.166992,1372.201782 2597.519775,1530.251587 2557.362061,1732.336426 
	C2556.165039,1729.256958 2555.560059,1726.344360 2555.527832,1723.425415 
	C2555.366211,1708.760864 2555.311035,1694.094482 2555.298828,1679.428833 
	C2555.271973,1647.429810 2555.496826,1615.428711 2555.160156,1583.433350 
	C2555.070068,1574.894165 2557.270020,1568.076294 2563.232666,1561.864624 
	C2569.215332,1555.632324 2574.448242,1548.659912 2579.802490,1541.848755 
	C2668.960693,1428.431152 2717.681641,1299.438477 2727.100586,1155.733765 
	C2730.773926,1099.689453 2727.073975,1043.899536 2716.637695,988.548950 
	C2691.512451,855.296692 2632.406006,739.472961 2539.545898,640.787720 
	C2535.487549,636.474548 2531.000000,632.564941 2526.220215,627.996826 
	C2505.847412,646.687744 2488.459229,666.882874 2472.229004,687.986023 
	C2353.398682,842.494385 2306.235107,1016.485352 2331.277344,1209.862305 
	C2340.863037,1283.882935 2363.133789,1354.080200 2396.158447,1420.932129 
	C2421.082764,1471.385620 2451.939697,1517.950806 2488.450684,1560.730957 
	C2494.355469,1567.649536 2497.660156,1574.577881 2497.571777,1583.979248 
	C2497.163818,1627.307495 2497.401123,1670.641602 2497.282471,1713.973267 
	C2497.268799,1718.943848 2496.474854,1723.912354 2496.042725,1728.881836 
	C2493.224365,1726.726807 2492.431396,1724.391724 2491.869873,1722.002441 
	C2487.144531,1701.910156 2483.240967,1681.588257 2477.646484,1661.742432 
	C2418.383545,1451.505615 2264.522949,1282.555298 2060.858643,1204.322388 
	C1987.452881,1176.125366 1911.374878,1160.637207 1832.586548,1159.480469 
	C1826.818726,1159.395630 1820.530640,1157.594971 1814.311401,1163.687378 
	C1815.604980,1316.338135 1861.360962,1455.403931 1955.561401,1576.748657 
	C2091.867188,1752.331177 2273.782715,1840.525024 2494.992432,1849.111694 
	C2495.911865,1851.717773 2497.106689,1853.522705 2497.106201,1855.327515 
	C2497.073242,2008.649048 2496.952393,2161.970703 2496.763916,2315.292236 
	C2496.762207,2316.809326 2495.777100,2318.325684 2494.108398,2323.137695 
	C2479.436035,2240.638672 2452.972412,2165.736328 2413.005859,2095.757324 
	C2372.594482,2024.999512 2321.218994,1963.314697 2259.106445,1910.644287 
	C2197.514893,1858.415649 2128.580811,1818.816650 2053.056885,1790.132446 
	C1973.279053,1759.832764 1856.235229,1742.862061 1814.701172,1750.363647 
	C1814.394409,1772.441528 1814.842041,1794.937622 1817.441772,1817.259888 
	C1819.981934,1839.071533 1823.231201,1860.866455 1827.580200,1882.383545 
	C1832.059692,1904.546753 1837.430054,1926.609009 1843.911499,1948.266113 
	C1850.203735,1969.290527 1857.589844,1990.080933 1865.987061,2010.356323 
	C1874.641968,2031.253418 1884.367188,2051.792236 1894.971191,2071.772705 
	C1905.264771,2091.168457 1916.539795,2110.142334 1928.722778,2128.408447 
	C1941.277954,2147.232910 1954.806030,2165.503662 1969.096191,2183.048828 
	C1982.964722,2200.076416 1997.750122,2216.462402 2013.220337,2232.051025 
	C2029.161255,2248.113770 2045.859985,2263.540039 2063.250000,2278.016357 
	C2080.639404,2292.491943 2098.812988,2306.156006 2117.531738,2318.866699 
	C2135.694336,2331.199463 2154.592285,2342.595703 2173.892090,2353.067383 
	C2193.774414,2363.854492 2214.192383,2373.825439 2235.002686,2382.681396 
	C2255.195312,2391.274414 2275.936279,2398.792725 2296.891357,2405.322754 
	C2318.479736,2412.050049 2340.434082,2417.897217 2362.567139,2422.498779 
	C2384.047607,2426.964600 2405.886475,2429.990479 2427.700684,2432.491211 
	C2450.053955,2435.053223 2472.568359,2436.211182 2495.044434,2437.986572 
	C2498.760742,2445.569580 2497.334961,2452.995117 2497.339600,2460.136230 
	C2497.430664,2599.465088 2497.407227,2738.794189 2497.388916,2878.123047 
	C2497.387939,2885.454834 2497.344727,2892.791504 2497.066895,2900.116211 
	C2496.966797,2902.758545 2496.118652,2905.372559 2494.735107,2912.544922 
	C2491.991211,2900.119141 2490.188965,2892.451416 2488.610352,2884.738037 
	C2442.937012,2661.550537 2285.178223,2472.665771 2072.528076,2386.704834 
	C1996.971802,2356.162109 1918.402832,2340.204834 1837.150879,2336.893311 
	C1830.110474,2336.606445 1822.523560,2334.361572 1814.814941,2340.055908 
	C1814.814941,2346.020996 1814.728638,2352.625732 1814.829102,2359.228027 
	C1815.408936,2397.321533 1819.516479,2435.056396 1827.529419,2472.282471 
	C1872.839478,2682.779785 1990.089966,2840.331787 2178.236328,2944.316650 
	C2270.698486,2995.419189 2370.683105,3021.602783 2476.440674,3025.145752 
	C2482.907471,3025.362305 2489.797607,3023.790283 2497.113525,3029.047852 
	C2497.204102,3035.409424 2497.395020,3042.647217 2497.396729,3049.885010 
	C2497.416992,3144.548584 2497.342529,3239.212402 2497.511963,3333.875732 
	C2497.529785,3343.820801 2498.115967,3353.923096 2499.991211,3363.653076 
	C2501.338379,3370.642822 2504.263428,3377.817871 2508.254883,3383.711182 
	C2517.852051,3397.881348 2534.922363,3397.643311 2544.771973,3383.443604 
	C2548.107178,3378.635254 2550.887451,3372.864258 2551.928223,3367.169189 
	C2553.830811,3356.755859 2555.122559,3346.073730 2555.148438,3335.500000 
	C2555.383057,3240.170166 2555.247559,3144.839844 2555.365723,3049.509521 
	C2555.374512,3042.318359 2553.848877,3034.884521 2557.118408,3027.860596 
	C2563.984619,3023.869141 2571.522705,3025.239746 2578.697998,3025.059082 
	C2618.149414,3024.065186 2657.232178,3019.401367 2695.542480,3010.389893 
	C2911.849609,2959.509033 3070.476807,2834.714600 3170.146484,2636.172119 
	C3214.768555,2547.285400 3235.597656,2452.030518 3238.689941,2352.801025 
	C3238.850098,2347.658691 3240.329102,2342.061279 3234.697266,2336.690186 
	C3230.491455,2336.690186 3225.222656,2336.539307 3219.964844,2336.714355 
	C3181.268066,2338.001953 3142.787354,2341.797119 3104.867188,2349.536865 
	C2956.494629,2379.819824 2830.642578,2450.527832 2728.592285,2562.425049 
	C2639.713867,2659.879395 2584.184326,2774.216797 2560.002441,2903.834961 
	C2559.521240,2906.413818 2558.458496,2908.884521 2557.666992,2911.405518 
	C2556.879883,2911.282715 2556.092773,2911.159912 2555.305664,2911.037109 
	C2555.305664,2901.070068 2555.305908,2891.102783 2555.305420,2881.135742 
	C2555.299561,2754.473145 2555.292969,2627.810547 2555.288086,2501.147949 
	C2555.287598,2483.815186 2555.199707,2466.481445 2555.383545,2449.150391 
	C2555.423340,2445.412842 2556.462402,2441.685791 2557.141602,2437.307373 
	C2563.553467,2436.952393 2568.787842,2436.483887 2574.028564,2436.400879 
	C2613.490723,2435.777588 2652.532471,2430.838867 2690.974854,2422.494141 
	C2850.469727,2387.873535 2982.545898,2307.623779 3085.400146,2180.872803 
	C3183.675537,2059.764648 3233.333252,1920.168701 3238.664795,1764.568115 
	C3238.839111,1759.481689 3237.902100,1754.357300 3237.380859,1748.002563 
	C3230.889404,1748.002563 3225.656494,1747.948242 3220.425049,1748.011108 
	C3180.306641,1748.492920 3140.481934,1752.814331 3101.412598,1761.407227 
	C2889.002686,1808.125488 2730.898682,1927.507202 2627.329590,2118.663574 
	C2594.713135,2178.863525 2573.928223,2243.443604 2560.683105,2310.515137 
	C2560.004883,2313.950195 2558.803223,2317.281982 2557.845215,2320.661621 
	C2556.998779,2320.550537 2556.152344,2320.439453 2555.305908,2320.328369 
	C2555.305908,2311.031738 2555.306152,2301.735352 2555.305908,2292.438721 
	C2555.299805,2155.109863 2555.292969,2017.780884 2555.289307,1880.452026 
	C2555.289062,1873.785645 2555.111816,1867.110352 2555.402344,1860.456177 
	C2555.566650,1856.694824 2556.517822,1852.967896 2556.980469,1850.065674 
	C2590.791504,1846.603638 2623.272949,1844.026978 2655.531982,1839.766602 
	C2688.578857,1835.401978 2720.955566,1827.469238 2752.826660,1817.560303 
	C2784.053711,1807.851440 2814.494873,1796.171753 2846.684814,1780.753662 
z"/>
<path fill="#FEFDF9" opacity="1.000000" stroke="none" 
	d="
M3601.681152,4099.513672 
	C3601.466553,4110.743164 3601.318359,4120.054199 3600.956055,4129.356445 
	C3600.911377,4130.502441 3599.723633,4131.604492 3598.551270,4133.604004 
	C3595.268799,4133.901367 3591.401123,4134.511230 3587.527100,4134.555664 
	C3575.539307,4134.691895 3563.549072,4134.660156 3551.560059,4134.607910 
	C3530.450195,4134.516113 3533.646729,4136.247559 3520.444580,4118.908691 
	C3470.820801,4053.735840 3421.137207,3988.608643 3371.450439,3923.483887 
	C3367.470459,3918.267090 3363.293945,3913.199951 3359.560303,3908.504883 
	C3353.833740,3909.433105 3354.147217,3913.149170 3354.130371,3916.273193 
	C3354.015869,3937.586914 3354.041992,3958.901123 3354.038818,3980.215332 
	C3354.032471,4024.175781 3354.067139,4068.136230 3354.003662,4112.096680 
	C3353.994141,4118.636230 3353.542480,4125.174805 3353.310059,4131.323730 
	C3338.682129,4135.503906 3293.623047,4135.873535 3275.490479,4132.240234 
	C3275.177734,4131.892578 3274.632568,4131.457031 3274.320801,4130.892090 
	C3274.007324,4130.324219 3273.766357,4129.627930 3273.765137,4128.987305 
	C3273.565918,4010.447510 3273.385010,3891.907959 3273.267334,3773.368164 
	C3273.265381,3771.464600 3274.050781,3769.560791 3274.741943,3766.410889 
	C3278.243652,3765.859131 3281.974854,3764.804199 3285.717285,3764.762451 
	C3302.366699,3764.575928 3319.034424,3765.094971 3335.665527,3764.509766 
	C3344.593994,3764.195557 3350.590820,3767.261475 3355.900146,3774.358887 
	C3379.037354,3805.286865 3402.571777,3835.917480 3425.957275,3866.659912 
	C3452.568848,3901.643311 3479.158203,3936.643311 3505.802490,3971.601318 
	C3509.380371,3976.295654 3513.219727,3980.791016 3517.059082,3985.528076 
	C3523.229492,3982.339844 3520.746094,3977.089355 3520.757324,3973.033936 
	C3520.926514,3911.756104 3520.867432,3850.477539 3520.893555,3789.199219 
	C3520.896729,3781.985596 3521.086182,3774.771973 3521.183350,3767.989258 
	C3535.359131,3763.928467 3578.101074,3763.283691 3599.179199,3766.438232 
	C3599.791016,3767.603516 3600.934570,3768.767822 3600.937744,3769.935059 
	C3601.241943,3879.153809 3601.458984,3988.372803 3601.681152,4099.513672 
z"/>
<path fill="#FFFEFB" opacity="1.000000" stroke="none" 
	d="
M2511.182373,4649.893555 
	C2513.145020,4653.423340 2514.241699,4655.676270 2515.244385,4657.735352 
	C2513.537109,4659.107910 2512.633301,4660.473145 2511.675781,4660.511719 
	C2482.442383,4661.695801 2453.223633,4660.921387 2423.690918,4661.147949 
	C2397.153809,4621.675781 2371.199707,4583.070801 2344.751465,4543.730957 
	C2333.886963,4543.655762 2323.293701,4543.362305 2312.710693,4543.573242 
	C2302.851807,4543.770020 2292.863770,4542.320312 2282.211670,4545.033691 
	C2279.196289,4564.364258 2281.177979,4583.591797 2280.804932,4602.706055 
	C2280.443359,4621.243652 2280.652832,4639.791992 2280.612549,4657.916992 
	C2265.783691,4661.830566 2224.301025,4662.464844 2201.842773,4659.394043 
	C2198.105713,4652.833984 2199.905762,4645.345215 2199.896729,4638.253906 
	C2199.757324,4530.293945 2199.788330,4422.334473 2199.828369,4314.374512 
	C2199.830811,4307.833984 2200.243652,4301.293945 2200.500977,4293.713379 
	C2205.179443,4293.122070 2208.965332,4292.230469 2212.752197,4292.225586 
	C2267.398438,4292.149414 2322.045410,4292.054199 2376.690918,4292.278809 
	C2396.833740,4292.361816 2416.423340,4296.133789 2435.230713,4303.534668 
	C2478.503906,4320.564941 2502.078857,4352.789062 2507.000732,4398.513672 
	C2508.342041,4410.973633 2507.981445,4423.927246 2506.239746,4436.351562 
	C2500.774170,4475.338867 2480.020752,4504.018066 2445.173096,4522.445801 
	C2440.592529,4524.867676 2436.087402,4527.432129 2430.230713,4530.655762 
	C2443.344727,4551.821289 2457.484375,4571.089355 2470.868896,4590.841797 
	C2483.948975,4610.146484 2497.161865,4629.361816 2511.182373,4649.893555 
M2341.662109,4365.297363 
	C2321.903076,4365.953613 2302.018799,4363.872559 2281.935059,4366.723145 
	C2279.660889,4379.083496 2280.909912,4390.374512 2280.703125,4401.575195 
	C2280.481689,4413.565918 2280.232666,4425.583008 2280.776367,4437.553223 
	C2281.277100,4448.577148 2278.237549,4459.999023 2283.627197,4471.737305 
	C2290.459961,4471.737305 2297.068848,4471.766602 2303.677490,4471.731934 
	C2326.331299,4471.612305 2349.018555,4472.140137 2371.622314,4471.008789 
	C2380.666016,4470.555664 2390.140381,4467.703613 2398.357666,4463.742676 
	C2426.352295,4450.247559 2434.479004,4408.511719 2414.243652,4384.876953 
	C2406.115723,4375.383301 2395.459229,4369.688965 2383.291016,4368.037109 
	C2370.806641,4366.342773 2358.118652,4366.148926 2341.662109,4365.297363 
z"/>
<path fill="#FEFDF9" opacity="1.000000" stroke="none" 
	d="
M1537.263428,3885.930420 
	C1518.031494,3920.521973 1515.114014,3955.318604 1526.744385,3991.428467 
	C1540.929321,4035.469482 1580.293823,4069.027588 1639.196167,4066.322510 
	C1655.160889,4065.588867 1671.090088,4063.194824 1685.830444,4056.316650 
	C1692.974365,4052.983154 1699.810059,4048.989502 1707.416992,4044.960205 
	C1708.235596,4027.757324 1708.423584,4011.329590 1707.143921,3994.420654 
	C1698.548218,3990.265381 1689.805664,3992.416748 1681.391113,3992.095459 
	C1672.740723,3991.764893 1664.068115,3992.021729 1655.405151,3992.021729 
	C1646.789185,3992.021729 1638.173218,3992.021973 1629.046021,3992.021973 
	C1623.650269,3979.745605 1626.294067,3967.681641 1626.242188,3956.057129 
	C1626.192749,3944.974365 1623.933838,3933.543457 1628.150635,3922.904053 
	C1644.700684,3920.519775 1766.693848,3920.401855 1785.367920,3922.812256 
	C1785.911621,3926.199219 1787.026978,3929.944580 1787.036499,3933.692627 
	C1787.153198,3979.672363 1787.124023,4025.652100 1787.071289,4071.632080 
	C1787.067505,4074.927734 1786.586304,4078.222656 1786.277710,4082.145508 
	C1757.216431,4107.523926 1723.881958,4124.916016 1686.304321,4133.865234 
	C1645.349976,4143.618652 1604.339355,4143.559082 1563.896851,4131.183594 
	C1489.204712,4108.327637 1439.395386,4043.435059 1435.404053,3965.340820 
	C1433.565308,3929.360107 1438.314697,3894.709229 1455.313110,3862.652588 
	C1488.918213,3799.278320 1542.034058,3764.962891 1613.407227,3759.659180 
	C1642.063721,3757.529785 1670.623291,3759.302490 1698.547729,3767.471191 
	C1723.897583,3774.886475 1746.464844,3787.260498 1766.810669,3803.893311 
	C1768.799927,3805.519775 1770.322266,3807.717285 1771.958984,3809.536133 
	C1759.055176,3828.765381 1731.826172,3860.696289 1720.878540,3869.307861 
	C1715.098511,3865.273682 1709.112061,3861.125977 1703.157104,3856.933838 
	C1679.366821,3840.184814 1652.662109,3833.417969 1623.899414,3834.165527 
	C1592.731445,3834.975342 1567.460449,3848.111328 1547.516357,3871.788330 
	C1544.092041,3875.853760 1541.191162,3880.360107 1537.263428,3885.930420 
z"/>
<path fill="#FEFCF8" opacity="1.000000" stroke="none" 
	d="
M3044.000000,3764.660645 
	C3095.937012,3764.660889 3145.874023,3764.660889 3196.038330,3764.660889 
	C3201.793701,3777.037598 3198.434082,3789.134277 3199.022217,3800.808594 
	C3199.589355,3812.065430 3199.144775,3823.373535 3199.144775,3833.750000 
	C3192.015381,3839.289307 3185.109375,3837.508789 3178.642578,3837.526123 
	C3126.653809,3837.665283 3074.664307,3837.561279 3022.675049,3837.663818 
	C3016.158203,3837.676758 3009.373047,3836.388916 3003.394043,3839.624512 
	C3000.247070,3854.974854 3000.089844,3891.364502 3003.239014,3910.675537 
	C3008.592041,3911.084229 3014.343262,3911.890381 3020.096680,3911.904297 
	C3064.087402,3912.009521 3108.078125,3911.961182 3152.069092,3911.960693 
	C3158.697266,3911.960693 3165.325439,3911.960449 3172.151855,3911.960449 
	C3178.111572,3924.190430 3174.654053,3936.295410 3175.221680,3947.951904 
	C3175.766357,3959.132324 3175.162598,3970.368896 3175.052246,3982.815674 
	C3168.658203,3983.412842 3163.583740,3984.285645 3158.507080,3984.298096 
	C3113.849854,3984.405762 3069.192139,3984.360596 3024.534668,3984.360596 
	C3017.909912,3984.360596 3011.285156,3984.360596 3003.818604,3984.360596 
	C3002.749756,3988.922607 3001.184814,3992.596436 3001.141113,3996.288330 
	C3000.898438,4016.852295 3001.024658,4037.420898 3001.024658,4056.330322 
	C3007.233398,4063.459229 3013.669678,4061.206055 3019.337891,4061.226562 
	C3072.659424,4061.419434 3125.982178,4061.323975 3179.304443,4061.369385 
	C3185.865479,4061.374756 3192.426270,4061.713135 3198.623779,4061.886475 
	C3202.450684,4076.535400 3202.882568,4112.235352 3199.536621,4133.279297 
	C3196.163574,4133.690430 3192.397949,4134.546387 3188.631592,4134.549805 
	C3103.982422,4134.629883 3019.333008,4134.626465 2934.683838,4134.585449 
	C2930.782715,4134.583496 2926.881592,4134.078125 2922.270020,4133.757812 
	C2918.865234,4126.378906 2920.181396,4118.998047 2920.175049,4111.935059 
	C2920.078857,4003.957275 2920.108154,3895.979492 2920.108154,3788.001709 
	C2920.108154,3781.373779 2920.108154,3774.746094 2920.108154,3769.358643 
	C2925.254639,3763.269775 2930.904541,3764.740234 2936.021973,3764.723389 
	C2971.347656,3764.607666 3006.673828,3764.661133 3044.000000,3764.660645 
z"/>
<path fill="#FFFDFA" opacity="1.000000" stroke="none" 
	d="
M2859.528564,4339.563965 
	C2859.528076,4348.042969 2859.528076,4354.609375 2859.528076,4359.994141 
	C2853.209229,4366.171875 2846.891846,4364.238281 2841.180908,4364.255859 
	C2789.213867,4364.415039 2737.246094,4364.349609 2685.278564,4364.350098 
	C2678.699951,4364.350098 2672.121338,4364.350098 2665.353027,4364.350098 
	C2660.292236,4372.745117 2662.413086,4380.876465 2662.092529,4388.552734 
	C2661.759033,4396.534180 2661.974365,4404.540527 2662.031738,4412.535156 
	C2662.088623,4420.455078 2662.248047,4428.374023 2662.345703,4435.141113 
	C2668.537842,4441.226562 2674.846191,4439.374512 2680.573486,4439.395020 
	C2725.211670,4439.556152 2769.850830,4439.445801 2814.489502,4439.527832 
	C2820.960205,4439.539551 2827.429932,4440.125977 2833.554199,4440.429688 
	C2836.414551,4457.426758 2836.696045,4489.615723 2834.208740,4510.345703 
	C2829.452393,4510.825195 2824.379150,4511.768555 2819.303467,4511.781250 
	C2773.998779,4511.895508 2728.693604,4511.779785 2683.389160,4511.919434 
	C2676.898926,4511.939453 2670.080322,4510.332520 2664.055908,4514.074707 
	C2661.539795,4528.789551 2661.162842,4565.191895 2663.289795,4585.738281 
	C2669.062500,4590.485352 2675.994385,4588.576660 2682.443115,4588.595215 
	C2735.076416,4588.744629 2787.710205,4588.653320 2840.343994,4588.714355 
	C2846.837402,4588.721680 2853.330322,4589.193359 2859.429199,4589.434082 
	C2863.034180,4604.510254 2863.538818,4635.152832 2860.693115,4659.243164 
	C2858.112793,4659.798340 2855.080322,4661.017090 2852.046631,4661.020508 
	C2765.434326,4661.128906 2678.822021,4661.127930 2592.209717,4661.066406 
	C2589.023193,4661.064453 2585.837158,4660.271973 2581.695557,4659.720215 
	C2581.252197,4653.942871 2580.560303,4648.789551 2580.503662,4643.628418 
	C2578.658936,4475.435059 2579.698486,4310.440430 2582.726562,4293.974609 
	C2584.339111,4293.455566 2586.162109,4292.355957 2587.986084,4292.354492 
	C2675.929443,4292.268066 2763.873047,4292.266602 2851.816406,4292.344238 
	C2853.649414,4292.346191 2855.481689,4293.395020 2858.705811,4294.381836 
	C2860.406250,4308.634766 2859.122314,4323.187988 2859.528564,4339.563965 
z"/>
<path fill="#FFFEFB" opacity="1.000000" stroke="none" 
	d="
M2935.633301,4295.065918 
	C2941.893555,4293.075195 2947.160156,4292.214844 2952.427490,4292.209473 
	C3033.045654,4292.124023 3113.663818,4292.136719 3194.281982,4292.181152 
	C3199.474121,4292.184082 3204.666016,4292.634277 3209.541504,4292.861328 
	C3212.951904,4307.725586 3213.549805,4333.538574 3211.335449,4361.214844 
	C3206.512451,4366.181152 3200.165771,4364.226562 3194.455322,4364.243652 
	C3141.820801,4364.402344 3089.185791,4364.308105 3036.550781,4364.376953 
	C3030.067627,4364.385254 3023.584961,4364.916992 3017.440918,4365.191406 
	C3014.213379,4383.176758 3014.335449,4422.184570 3017.672119,4438.694824 
	C3031.098145,4440.319824 3044.998535,4439.286621 3058.824219,4439.456543 
	C3073.479980,4439.636230 3088.139404,4439.497070 3102.797363,4439.497070 
	C3116.788818,4439.497070 3130.781494,4439.392578 3144.771729,4439.526367 
	C3158.600342,4439.658691 3172.483398,4438.858398 3187.259277,4440.264160 
	C3189.477295,4452.428223 3188.272217,4463.675293 3188.482422,4474.804688 
	C3188.695312,4486.091797 3188.529297,4497.385254 3188.529297,4507.517578 
	C3183.177246,4513.213867 3177.568115,4511.766113 3172.437988,4511.777344 
	C3127.132080,4511.878906 3081.826172,4511.797852 3036.520020,4511.873047 
	C3030.031494,4511.883789 3023.543945,4512.438477 3016.205811,4512.780762 
	C3014.085938,4537.785645 3015.494385,4561.572754 3015.182861,4584.620117 
	C3020.920410,4590.410156 3027.243164,4588.590332 3032.971436,4588.605957 
	C3086.272217,4588.750977 3139.573486,4588.672852 3192.874756,4588.718750 
	C3199.434814,4588.724121 3205.994385,4589.077637 3212.219971,4589.260254 
	C3216.344238,4603.319336 3216.809082,4639.861816 3213.206543,4659.765625 
	C3210.375000,4660.180664 3207.228516,4660.945801 3204.058105,4661.061523 
	C3153.419189,4662.904297 2952.496338,4661.685059 2935.536621,4659.375000 
	C2934.965820,4655.874023 2933.812744,4652.090820 2933.809570,4648.306641 
	C2933.718506,4533.708984 2933.734863,4419.111816 2933.782471,4304.514160 
	C2933.783691,4301.874023 2934.341553,4299.234375 2935.633301,4295.065918 
z"/>
<path fill="#FFFDFB" opacity="1.000000" stroke="none" 
	d="
M2255.863037,3904.000000 
	C2255.871582,3929.328857 2255.431152,3952.670166 2256.083252,3975.981201 
	C2256.397461,3987.215332 2257.717773,3998.651611 2260.407227,4009.545898 
	C2268.629150,4042.850830 2293.610352,4062.751709 2327.971436,4064.456787 
	C2332.625000,4064.687744 2337.306641,4064.685791 2341.962158,4064.485352 
	C2379.730225,4062.857910 2405.670898,4040.330566 2412.056885,4002.875000 
	C2413.950439,3991.768311 2414.843750,3980.364746 2414.893311,3969.091309 
	C2415.160645,3908.437500 2415.010010,3847.781738 2415.026367,3787.126709 
	C2415.028076,3780.545654 2415.175537,3773.964600 2415.250732,3767.756836 
	C2429.907715,3763.976318 2472.233643,3763.446777 2494.854248,3766.645020 
	C2495.269775,3770.039062 2496.129395,3773.802734 2496.131836,3777.567139 
	C2496.174561,3844.887207 2496.095215,3912.207520 2496.085693,3979.527588 
	C2496.082764,3998.983643 2493.462402,4018.080811 2487.986084,4036.722168 
	C2473.277588,4086.792480 2441.166992,4119.453613 2390.436768,4132.951660 
	C2351.573730,4143.291992 2312.560059,4143.207520 2274.007324,4131.780273 
	C2227.668457,4118.044922 2197.864258,4087.327148 2183.296631,4041.259766 
	C2175.738525,4017.359375 2174.383057,3992.789062 2174.227295,3968.149170 
	C2173.830811,3905.497070 2174.041748,3842.840576 2174.124512,3780.186035 
	C2174.130371,3775.665771 2175.066162,3771.146729 2175.538818,3766.902588 
	C2192.585449,3763.901123 2236.923584,3763.914551 2254.790039,3766.995850 
	C2257.061768,3789.070801 2255.530273,3811.581299 2255.802490,3834.013672 
	C2256.077637,3856.672607 2255.863037,3879.337646 2255.863037,3904.000000 
z"/>
<path fill="#FEFDF9" opacity="1.000000" stroke="none" 
	d="
M1911.625977,4661.160156 
	C1893.027222,4661.062500 1876.370972,4660.997070 1859.716064,4660.801758 
	C1858.484863,4660.787598 1857.264648,4659.841309 1854.874512,4658.840820 
	C1854.512695,4654.217285 1853.812256,4649.026367 1853.742188,4643.827148 
	C1851.769409,4497.415039 1852.899292,4310.515137 1855.791748,4294.453613 
	C1856.269775,4294.040527 1856.698242,4293.537598 1857.239380,4293.239746 
	C1857.812744,4292.923828 1858.492920,4292.624023 1859.126953,4292.622559 
	C1943.738647,4292.438965 2028.350098,4292.276367 2112.961670,4292.139648 
	C2118.285645,4292.130859 2123.613770,4292.249023 2128.931641,4292.490234 
	C2130.162842,4292.545898 2131.360107,4293.349121 2132.572754,4293.809570 
	C2136.216553,4307.587402 2136.501465,4347.037109 2132.853760,4365.475098 
	C2111.382812,4367.883301 2089.497070,4366.270020 2067.689697,4366.569336 
	C2046.370483,4366.861816 2025.043335,4366.534180 2003.720703,4366.660156 
	C1981.856079,4366.789551 1959.963623,4366.041992 1938.445801,4367.183105 
	C1934.929443,4381.683105 1934.308105,4417.390137 1937.041992,4442.779297 
	C1941.804077,4443.262695 1946.872559,4444.211426 1951.943359,4444.224121 
	C1997.921631,4444.341309 2043.900391,4444.261230 2089.878906,4444.335449 
	C2096.384521,4444.345703 2102.889404,4444.870605 2110.478760,4445.205566 
	C2112.795654,4469.398438 2111.388428,4492.481934 2111.555908,4514.479980 
	C2106.374268,4520.192383 2100.759766,4518.813965 2095.619141,4518.824707 
	C2050.306885,4518.918457 2004.994751,4518.854004 1959.682617,4518.905762 
	C1952.473267,4518.914062 1945.264038,4519.265625 1937.382935,4519.476562 
	C1934.073486,4531.484863 1935.918823,4542.786133 1935.617188,4553.889160 
	C1935.291504,4565.875000 1935.543457,4577.875977 1935.543457,4589.870605 
	C1935.543579,4601.198730 1935.543457,4612.526367 1935.543457,4623.854492 
	C1935.543457,4635.108398 1935.543457,4646.362305 1935.543457,4657.504395 
	C1928.115967,4662.969727 1920.561157,4660.431152 1911.625977,4661.160156 
z"/>
<path fill="#FEFCF6" opacity="1.000000" stroke="none" 
	d="
M2604.026367,3840.214600 
	C2586.199463,3839.957520 2570.317871,3840.809082 2554.866699,3839.639160 
	C2551.465820,3824.279785 2551.023682,3787.284180 2553.873779,3766.348145 
	C2556.656250,3765.830811 2559.778076,3764.746826 2562.900879,3764.743652 
	C2657.488037,3764.648926 2752.075195,3764.649902 2846.662354,3764.701172 
	C2849.857910,3764.702881 2853.052734,3765.376221 2855.938232,3765.701416 
	C2859.449707,3780.433350 2859.838623,3817.436768 2856.689453,3838.843018 
	C2852.632812,3839.273926 2848.225830,3840.125488 2843.814697,3840.147461 
	C2817.836914,3840.277344 2791.858398,3840.152100 2765.880615,3840.262939 
	C2760.062744,3840.287598 2754.247314,3840.911621 2747.888184,3841.292236 
	C2745.053955,3861.666504 2746.791748,3880.910156 2746.490723,3900.067627 
	C2746.187012,3919.380127 2746.423828,3938.700928 2746.423828,3958.018066 
	C2746.423828,3977.335205 2746.423828,3996.652344 2746.423828,4015.969482 
	C2746.423828,4035.286621 2746.616943,4054.606201 2746.369141,4073.920166 
	C2746.123047,4093.115479 2747.547363,4112.371582 2745.381104,4131.241699 
	C2731.832764,4135.578125 2683.911133,4136.050781 2665.335693,4132.061523 
	C2663.073975,4113.212402 2664.548096,4093.996338 2664.293945,4074.851318 
	C2664.037354,4055.537598 2664.237305,4036.218018 2664.237305,4016.900879 
	C2664.237305,3997.583740 2664.237305,3978.266602 2664.237305,3958.949463 
	C2664.237305,3939.632324 2664.237305,3920.315186 2664.237305,3900.998047 
	C2664.237305,3881.743408 2664.237305,3862.488770 2664.237305,3843.017578 
	C2653.756348,3838.296875 2643.704590,3840.707764 2633.988770,3840.299072 
	C2624.679932,3839.907471 2615.341553,3840.214600 2604.026367,3840.214600 
z"/>
<path fill="#FEFDF9" opacity="1.000000" stroke="none" 
	d="
M1864.263916,3944.000000 
	C1864.264038,3884.070801 1864.264038,3826.141602 1864.264038,3767.723145 
	C1867.348999,3766.564697 1869.702148,3764.929932 1872.068726,3764.909912 
	C1894.050903,3764.725830 1916.035767,3764.782959 1938.019165,3764.899902 
	C1939.870850,3764.909668 1941.717651,3765.859863 1943.438599,3766.337891 
	C1947.688232,3773.413330 1945.947266,3780.921143 1945.958252,3788.085449 
	C1946.085815,3870.698242 1946.026733,3953.311523 1946.062012,4035.924561 
	C1946.065063,4043.140625 1946.384766,4050.356445 1946.535156,4056.639648 
	C1953.197754,4061.566895 1959.397461,4060.031738 1965.218628,4060.047852 
	C2012.520996,4060.178711 2059.823730,4060.122559 2107.126465,4060.122803 
	C2113.728760,4060.122803 2120.331055,4060.122803 2126.538330,4060.122803 
	C2130.887451,4074.812500 2131.386230,4113.045410 2127.610840,4133.299316 
	C2106.248047,4136.102051 2084.400879,4134.191406 2062.658936,4134.539551 
	C2040.678833,4134.890625 2018.688721,4134.617188 1996.703003,4134.617188 
	C1975.383545,4134.617188 1954.063354,4134.717773 1932.744629,4134.588867 
	C1910.872314,4134.456543 1888.973389,4135.169922 1867.766968,4134.134766 
	C1862.490845,4127.858887 1864.376587,4121.602539 1864.360718,4115.889648 
	C1864.202759,4059.260254 1864.264404,4002.630127 1864.263916,3944.000000 
z"/>
<path fill="#EF9602" opacity="1.000000" stroke="none" 
	d="
M2845.362549,1781.455444 
	C2814.494873,1796.171753 2784.053711,1807.851440 2752.826660,1817.560303 
	C2720.955566,1827.469238 2688.578857,1835.401978 2655.531982,1839.766602 
	C2623.272949,1844.026978 2590.791504,1846.603638 2556.980469,1850.065674 
	C2556.517822,1852.967896 2555.566650,1856.694824 2555.402344,1860.456177 
	C2555.111816,1867.110352 2555.289062,1873.785645 2555.289307,1880.452026 
	C2555.292969,2017.780884 2555.299805,2155.109863 2555.305908,2292.438721 
	C2555.306152,2301.735352 2555.305908,2311.031738 2555.305908,2320.328369 
	C2556.152344,2320.439453 2556.998779,2320.550537 2557.845215,2320.661621 
	C2558.803223,2317.281982 2560.004883,2313.950195 2560.683105,2310.515137 
	C2573.928223,2243.443604 2594.713135,2178.863525 2627.329590,2118.663574 
	C2730.898682,1927.507202 2889.002686,1808.125488 3101.412598,1761.407227 
	C3140.481934,1752.814331 3180.306641,1748.492920 3220.425049,1748.011108 
	C3225.656494,1747.948242 3230.889404,1748.002563 3237.380859,1748.002563 
	C3237.902100,1754.357300 3238.839111,1759.481689 3238.664795,1764.568115 
	C3233.333252,1920.168701 3183.675537,2059.764648 3085.400146,2180.872803 
	C2982.545898,2307.623779 2850.469727,2387.873535 2690.974854,2422.494141 
	C2652.532471,2430.838867 2613.490723,2435.777588 2574.028564,2436.400879 
	C2568.787842,2436.483887 2563.553467,2436.952393 2557.141602,2437.307373 
	C2556.462402,2441.685791 2555.423340,2445.412842 2555.383545,2449.150391 
	C2555.199707,2466.481445 2555.287598,2483.815186 2555.288086,2501.147949 
	C2555.292969,2627.810547 2555.299561,2754.473145 2555.305420,2881.135742 
	C2555.305908,2891.102783 2555.305664,2901.070068 2555.305664,2911.037109 
	C2556.092773,2911.159912 2556.879883,2911.282715 2557.666992,2911.405518 
	C2558.458496,2908.884521 2559.521240,2906.413818 2560.002441,2903.834961 
	C2584.184326,2774.216797 2639.713867,2659.879395 2728.592285,2562.425049 
	C2830.642578,2450.527832 2956.494629,2379.819824 3104.867188,2349.536865 
	C3142.787354,2341.797119 3181.268066,2338.001953 3219.964844,2336.714355 
	C3225.222656,2336.539307 3230.491455,2336.690186 3234.697266,2336.690186 
	C3240.329102,2342.061279 3238.850098,2347.658691 3238.689941,2352.801025 
	C3235.597656,2452.030518 3214.768555,2547.285400 3170.146484,2636.172119 
	C3070.476807,2834.714600 2911.849609,2959.509033 2695.542480,3010.389893 
	C2657.232178,3019.401367 2618.149414,3024.065186 2578.697998,3025.059082 
	C2571.522705,3025.239746 2563.984619,3023.869141 2557.118408,3027.860596 
	C2553.848877,3034.884521 2555.374512,3042.318359 2555.365723,3049.509521 
	C2555.247559,3144.839844 2555.383057,3240.170166 2555.148438,3335.500000 
	C2555.122559,3346.073730 2553.830811,3356.755859 2551.928223,3367.169189 
	C2550.887451,3372.864258 2548.107178,3378.635254 2544.771973,3383.443604 
	C2534.922363,3397.643311 2517.852051,3397.881348 2508.254883,3383.711182 
	C2504.263428,3377.817871 2501.338379,3370.642822 2499.991211,3363.653076 
	C2498.115967,3353.923096 2497.529785,3343.820801 2497.511963,3333.875732 
	C2497.342529,3239.212402 2497.416992,3144.548584 2497.396729,3049.885010 
	C2497.395020,3042.647217 2497.204102,3035.409424 2497.113525,3029.047852 
	C2489.797607,3023.790283 2482.907471,3025.362305 2476.440674,3025.145752 
	C2370.683105,3021.602783 2270.698486,2995.419189 2178.236328,2944.316650 
	C1990.089966,2840.331787 1872.839478,2682.779785 1827.529419,2472.282471 
	C1819.516479,2435.056396 1815.408936,2397.321533 1814.829102,2359.228027 
	C1814.728638,2352.625732 1814.814941,2346.020996 1814.814941,2340.055908 
	C1822.523560,2334.361572 1830.110474,2336.606445 1837.150879,2336.893311 
	C1918.402832,2340.204834 1996.971802,2356.162109 2072.528076,2386.704834 
	C2285.178223,2472.665771 2442.937012,2661.550537 2488.610352,2884.738037 
	C2490.188965,2892.451416 2491.991211,2900.119141 2494.735107,2912.544922 
	C2496.118652,2905.372559 2496.966797,2902.758545 2497.066895,2900.116211 
	C2497.344727,2892.791504 2497.387939,2885.454834 2497.388916,2878.123047 
	C2497.407227,2738.794189 2497.430664,2599.465088 2497.339600,2460.136230 
	C2497.334961,2452.995117 2498.760742,2445.569580 2495.044434,2437.986572 
	C2472.568359,2436.211182 2450.053955,2435.053223 2427.700684,2432.491211 
	C2405.886475,2429.990479 2384.047607,2426.964600 2362.567139,2422.498779 
	C2340.434082,2417.897217 2318.479736,2412.050049 2296.891357,2405.322754 
	C2275.936279,2398.792725 2255.195312,2391.274414 2235.002686,2382.681396 
	C2214.192383,2373.825439 2193.774414,2363.854492 2173.892090,2353.067383 
	C2154.592285,2342.595703 2135.694336,2331.199463 2117.531738,2318.866699 
	C2098.812988,2306.156006 2080.639404,2292.491943 2063.250000,2278.016357 
	C2045.859985,2263.540039 2029.161255,2248.113770 2013.220337,2232.051025 
	C1997.750122,2216.462402 1982.964722,2200.076416 1969.096191,2183.048828 
	C1954.806030,2165.503662 1941.277954,2147.232910 1928.722778,2128.408447 
	C1916.539795,2110.142334 1905.264771,2091.168457 1894.971191,2071.772705 
	C1884.367188,2051.792236 1874.641968,2031.253418 1865.987061,2010.356323 
	C1857.589844,1990.080933 1850.203735,1969.290527 1843.911499,1948.266113 
	C1837.430054,1926.609009 1832.059692,1904.546753 1827.580200,1882.383545 
	C1823.231201,1860.866455 1819.981934,1839.071533 1817.441772,1817.259888 
	C1814.842041,1794.937622 1814.394409,1772.441528 1814.701172,1750.363647 
	C1856.235229,1742.862061 1973.279053,1759.832764 2053.056885,1790.132446 
	C2128.580811,1818.816650 2197.514893,1858.415649 2259.106445,1910.644287 
	C2321.218994,1963.314697 2372.594482,2024.999512 2413.005859,2095.757324 
	C2452.972412,2165.736328 2479.436035,2240.638672 2494.108398,2323.137695 
	C2495.777100,2318.325684 2496.762207,2316.809326 2496.763916,2315.292236 
	C2496.952393,2161.970703 2497.073242,2008.649048 2497.106201,1855.327515 
	C2497.106689,1853.522705 2495.911865,1851.717773 2494.992432,1849.111694 
	C2273.782715,1840.525024 2091.867188,1752.331177 1955.561401,1576.748657 
	C1861.360962,1455.403931 1815.604980,1316.338135 1814.311401,1163.687378 
	C1820.530640,1157.594971 1826.818726,1159.395630 1832.586548,1159.480469 
	C1911.374878,1160.637207 1987.452881,1176.125366 2060.858643,1204.322388 
	C2264.522949,1282.555298 2418.383545,1451.505615 2477.646484,1661.742432 
	C2483.240967,1681.588257 2487.144531,1701.910156 2491.869873,1722.002441 
	C2492.431396,1724.391724 2493.224365,1726.726807 2496.042725,1728.881836 
	C2496.474854,1723.912354 2497.268799,1718.943848 2497.282471,1713.973267 
	C2497.401123,1670.641602 2497.163818,1627.307495 2497.571777,1583.979248 
	C2497.660156,1574.577881 2494.355469,1567.649536 2488.450684,1560.730957 
	C2451.939697,1517.950806 2421.082764,1471.385620 2396.158447,1420.932129 
	C2363.133789,1354.080200 2340.863037,1283.882935 2331.277344,1209.862305 
	C2306.235107,1016.485352 2353.398682,842.494385 2472.229004,687.986023 
	C2488.459229,666.882874 2505.847412,646.687744 2526.220215,627.996826 
	C2531.000000,632.564941 2535.487549,636.474548 2539.545898,640.787720 
	C2632.406006,739.472961 2691.512451,855.296692 2716.637695,988.548950 
	C2727.073975,1043.899536 2730.773926,1099.689453 2727.100586,1155.733765 
	C2717.681641,1299.438477 2668.960693,1428.431152 2579.802490,1541.848755 
	C2574.448242,1548.659912 2569.215332,1555.632324 2563.232666,1561.864624 
	C2557.270020,1568.076294 2555.070068,1574.894165 2555.160156,1583.433350 
	C2555.496826,1615.428711 2555.271973,1647.429810 2555.298828,1679.428833 
	C2555.311035,1694.094482 2555.366211,1708.760864 2555.527832,1723.425415 
	C2555.560059,1726.344360 2556.165039,1729.256958 2557.362061,1732.336426 
	C2597.519775,1530.251587 2702.166992,1372.201782 2876.419922,1261.525513 
	C3000.480957,1182.728394 3154.235596,1153.655640 3237.714600,1161.423096 
	C3238.042725,1166.372559 3238.833740,1171.536865 3238.659424,1176.668335 
	C3235.405518,1272.412109 3215.157959,1364.270996 3173.837158,1450.911133 
	C3103.268555,1598.876709 2994.123535,1708.880981 2845.362549,1781.455444 
z"/>
<path fill="#EF9808" opacity="1.000000" stroke="none" 
	d="
M2343.590820,4365.297852 
	C2358.118652,4366.148926 2370.806641,4366.342773 2383.291016,4368.037109 
	C2395.459229,4369.688965 2406.115723,4375.383301 2414.243652,4384.876953 
	C2434.479004,4408.511719 2426.352295,4450.247559 2398.357666,4463.742676 
	C2390.140381,4467.703613 2380.666016,4470.555664 2371.622314,4471.008789 
	C2349.018555,4472.140137 2326.331299,4471.612305 2303.677490,4471.731934 
	C2297.068848,4471.766602 2290.459961,4471.737305 2283.627197,4471.737305 
	C2278.237549,4459.999023 2281.277100,4448.577148 2280.776367,4437.553223 
	C2280.232666,4425.583008 2280.481689,4413.565918 2280.703125,4401.575195 
	C2280.909912,4390.374512 2279.660889,4379.083496 2281.935059,4366.723145 
	C2302.018799,4363.872559 2321.903076,4365.953613 2343.590820,4365.297852 
z"/>
</svg>