<svg version="1.1" id="Layer_1" xmlns="http://www.w3.org/2000/svg" xmlns:xlink="http://www.w3.org/1999/xlink" x="0px" y="0px"
	 width="100%" viewBox="0 0 4968 4952" enable-background="new 0 0 4968 4952" xml:space="preserve">
<path fill="#FFFFFF" opacity="1.000000" stroke="none" 
	d="
M4.000000,1764.000000 
	C4.000000,1176.000000 4.000000,590.000000 4.000000,4.000000 
	C1660.000000,4.000000 3316.000000,4.000000 4972.000000,4.000000 
	C4972.000000,1654.666626 4972.000000,3305.333252 4972.000000,4956.000000 
	C3316.000000,4956.000000 1660.000000,4956.000000 4.000001,4956.000000 
	C4.000000,3892.666748 4.000000,2829.333252 4.000000,1764.000000 
M4899.844727,2541.933105 
	C4900.134277,2475.980469 4901.223633,2410.020020 4896.229492,2344.154785 
	C4894.216797,2317.608887 4893.791016,2290.918457 4891.054688,2264.457764 
	C4886.884277,2224.125977 4882.005859,2183.839600 4876.188965,2143.713379 
	C4869.798340,2099.629883 4863.181641,2055.517334 4854.561035,2011.832275 
	C4839.355957,1934.781738 4820.301758,1858.600586 4797.411621,1783.444702 
	C4764.184570,1674.350220 4723.910156,1567.898438 4675.709961,1464.526978 
	C4641.615723,1391.408325 4604.143066,1319.987427 4562.660156,1250.802856 
	C4510.553711,1163.900513 4453.659668,1080.230469 4391.256348,1000.278748 
	C4340.789551,935.620667 4287.073730,873.822876 4230.862793,814.203979 
	C4186.050781,766.675842 4138.343750,722.087036 4089.520508,678.650330 
	C4043.703857,637.888367 3996.463623,598.936462 3947.739014,561.735840 
	C3883.619629,512.781494 3817.355713,466.891235 3748.480225,424.940948 
	C3672.778076,378.832611 3595.058838,336.429474 3514.722412,298.706146 
	C3435.637207,261.570312 3355.016846,228.372528 3272.392090,200.228165 
	C3222.641357,183.281662 3172.327148,167.744629 3121.638672,153.865738 
	C3074.196045,140.875504 3026.007812,130.544617 2977.997314,119.710503 
	C2931.269287,109.165794 2884.060791,101.142097 2836.540771,94.999802 
	C2799.621094,90.227684 2762.781250,84.748825 2725.783203,80.703911 
	C2694.053467,77.234955 2662.184082,74.778465 2630.315186,72.925133 
	C2595.752686,70.915154 2561.122803,70.028992 2526.516602,68.816559 
	C2465.846924,66.690971 2405.332275,72.190918 2344.713623,72.672569 
	C2342.716797,72.688423 2340.715576,72.820839 2338.726074,73.003624 
	C2314.886230,75.193779 2291.053467,77.460487 2267.208496,79.591042 
	C2247.327393,81.367409 2227.321045,82.169899 2207.566650,84.850464 
	C2165.406494,90.571373 2123.361572,97.150658 2081.291748,103.526314 
	C2034.578369,110.605721 1988.374634,120.289093 1942.330933,130.821182 
	C1841.593262,153.864105 1743.065186,184.141541 1646.051270,219.677399 
	C1565.256836,249.272110 1486.625366,283.806915 1409.605225,321.958405 
	C1357.077271,347.977875 1305.676636,376.205292 1255.303223,406.277252 
	C1186.039062,447.626617 1118.787476,491.959778 1053.942871,539.952576 
	C1004.668945,576.421082 957.053101,614.909546 910.403748,654.696594 
	C865.752258,692.779663 822.887939,732.770386 781.360535,774.108521 
	C738.884094,816.391479 697.492249,859.825134 659.218689,906.063416 
	C630.767212,940.435486 601.516296,974.195129 574.232605,1009.473572 
	C527.766296,1069.555664 484.251282,1131.766113 443.717316,1196.071289 
	C406.385529,1255.296631 371.573486,1315.939209 339.491425,1378.119507 
	C291.484833,1471.164307 249.941650,1567.029541 214.459625,1665.586548 
	C190.531189,1732.051392 169.543091,1799.368652 151.594223,1867.645264 
	C133.489227,1936.515869 118.615608,2006.061523 106.628601,2076.305176 
	C97.672310,2128.789062 90.848701,2181.508301 84.671822,2234.327393 
	C81.119408,2264.704834 78.772903,2295.251221 76.833313,2325.781494 
	C74.807487,2357.669434 72.956772,2389.623779 72.750000,2421.560303 
	C72.387848,2477.497559 70.345062,2533.461670 75.158302,2589.377441 
	C77.267433,2613.879395 76.228798,2638.568359 79.262039,2663.134521 
	C82.927116,2692.818115 84.411469,2722.764648 87.685051,2752.504395 
	C91.540741,2787.532227 95.149933,2822.652832 100.944687,2857.386230 
	C109.369278,2907.883057 118.166733,2958.406250 129.464920,3008.315918 
	C150.486252,3101.177734 176.048248,3192.811523 207.816238,3282.703125 
	C243.604141,3383.969971 285.614227,3482.457031 334.492279,3578.088135 
	C358.458893,3624.979736 383.528320,3671.233643 410.494629,3716.451660 
	C449.416107,3781.716797 491.159149,3845.126953 536.166504,3906.373047 
	C570.489136,3953.079590 605.584167,3999.181152 643.930542,4042.696289 
	C672.987732,4075.670410 701.430115,4109.248047 731.702087,4141.076660 
	C785.901428,4198.063477 841.550476,4253.659668 901.882568,4304.285645 
	C936.568542,4333.392090 970.956116,4362.912598 1006.637024,4390.761230 
	C1066.515503,4437.495117 1128.452271,4481.408691 1192.705566,4522.029297 
	C1251.871826,4559.434570 1312.392822,4594.470703 1374.443848,4626.811035 
	C1445.971191,4664.089844 1519.304199,4697.489258 1594.299561,4727.232910 
	C1686.630981,4763.851562 1780.822388,4794.815430 1876.929810,4819.829102 
	C1940.034180,4836.252930 2003.776245,4849.741699 2068.014404,4861.177246 
	C2130.931396,4872.377441 2194.263672,4880.164062 2257.704834,4887.081055 
	C2294.720215,4891.116211 2331.974854,4894.291992 2369.176758,4895.005371 
	C2455.091309,4896.652344 2541.027832,4899.027344 2626.946533,4892.917480 
	C2662.784424,4890.369141 2698.655518,4888.564453 2734.365967,4884.406250 
	C2762.110596,4881.175781 2790.045166,4879.272461 2817.632324,4875.057129 
	C2862.316406,4868.229492 2906.838135,4860.287598 2951.331787,4852.278809 
	C3020.810791,4839.773926 3089.179932,4822.474121 3157.009277,4803.066895 
	C3217.199707,4785.845215 3276.525391,4765.984863 3335.127686,4743.903809 
	C3398.116455,4720.171387 3460.205566,4694.312012 3520.807861,4665.066406 
	C3559.800049,4646.249512 3598.129883,4626.039062 3636.518066,4605.996582 
	C3690.301514,4577.916016 3742.077148,4546.368652 3793.038086,4513.508301 
	C3863.062012,4468.355469 3930.579834,4419.740723 3995.526123,4367.477051 
	C4055.785889,4318.984863 4113.942383,4268.209473 4168.937988,4213.815918 
	C4218.221680,4165.072266 4266.644531,4115.562500 4311.872070,4062.928955 
	C4346.185547,4022.996826 4379.541016,3982.326660 4411.336914,3940.405762 
	C4451.196289,3887.853760 4488.807129,3833.718994 4524.233887,3778.037354 
	C4564.681152,3714.463623 4602.349609,3649.304932 4636.319336,3582.093262 
	C4657.643066,3539.901123 4677.328125,3496.863281 4697.064453,3453.890625 
	C4722.375000,3398.781738 4743.947754,3342.143555 4764.133301,3284.983398 
	C4796.086426,3194.500977 4822.540527,3102.412598 4843.017090,3008.675781 
	C4852.099121,2967.101318 4860.268066,2925.289551 4867.418945,2883.341309 
	C4874.680664,2840.745850 4881.034180,2797.978027 4884.787598,2754.860107 
	C4887.843750,2719.756348 4892.595215,2684.788574 4895.145020,2649.655518 
	C4897.648926,2615.139160 4898.325195,2580.490479 4899.844727,2541.933105 
z"/>
<path fill="#74B2FF" opacity="1.000000" stroke="none" 
	d="
M4899.824219,2543.916504 
	C4898.325195,2580.490479 4897.648926,2615.139160 4895.145020,2649.655518 
	C4892.595215,2684.788574 4887.843750,2719.756348 4884.787598,2754.860107 
	C4881.034180,2797.978027 4874.680664,2840.745850 4867.418945,2883.341309 
	C4860.268066,2925.289551 4852.099121,2967.101318 4843.017090,3008.675781 
	C4822.540527,3102.412598 4796.086426,3194.500977 4764.133301,3284.983398 
	C4743.947754,3342.143555 4722.375000,3398.781738 4697.064453,3453.890625 
	C4677.328125,3496.863281 4657.643066,3539.901123 4636.319336,3582.093262 
	C4602.349609,3649.304932 4564.681152,3714.463623 4524.233887,3778.037354 
	C4488.807129,3833.718994 4451.196289,3887.853760 4411.336914,3940.405762 
	C4379.541016,3982.326660 4346.185547,4022.996826 4311.872070,4062.928955 
	C4266.644531,4115.562500 4218.221680,4165.072266 4168.937988,4213.815918 
	C4113.942383,4268.209473 4055.785889,4318.984863 3995.526123,4367.477051 
	C3930.579834,4419.740723 3863.062012,4468.355469 3793.038086,4513.508301 
	C3742.077148,4546.368652 3690.301514,4577.916016 3636.518066,4605.996582 
	C3598.129883,4626.039062 3559.800049,4646.249512 3520.807861,4665.066406 
	C3460.205566,4694.312012 3398.116455,4720.171387 3335.127686,4743.903809 
	C3276.525391,4765.984863 3217.199707,4785.845215 3157.009277,4803.066895 
	C3089.179932,4822.474121 3020.810791,4839.773926 2951.331787,4852.278809 
	C2906.838135,4860.287598 2862.316406,4868.229492 2817.632324,4875.057129 
	C2790.045166,4879.272461 2762.110596,4881.175781 2734.365967,4884.406250 
	C2698.655518,4888.564453 2662.784424,4890.369141 2626.946533,4892.917480 
	C2541.027832,4899.027344 2455.091309,4896.652344 2369.176758,4895.005371 
	C2331.974854,4894.291992 2294.720215,4891.116211 2257.704834,4887.081055 
	C2194.263672,4880.164062 2130.931396,4872.377441 2068.014404,4861.177246 
	C2003.776245,4849.741699 1940.034180,4836.252930 1876.929810,4819.829102 
	C1780.822388,4794.815430 1686.630981,4763.851562 1594.299561,4727.232910 
	C1519.304199,4697.489258 1445.971191,4664.089844 1374.443848,4626.811035 
	C1312.392822,4594.470703 1251.871826,4559.434570 1192.705566,4522.029297 
	C1128.452271,4481.408691 1066.515503,4437.495117 1006.637024,4390.761230 
	C970.956116,4362.912598 936.568542,4333.392090 901.882568,4304.285645 
	C841.550476,4253.659668 785.901428,4198.063477 731.702087,4141.076660 
	C701.430115,4109.248047 672.987732,4075.670410 643.930542,4042.696289 
	C605.584167,3999.181152 570.489136,3953.079590 536.166504,3906.373047 
	C491.159149,3845.126953 449.416107,3781.716797 410.494629,3716.451660 
	C383.528320,3671.233643 358.458893,3624.979736 334.492279,3578.088135 
	C285.614227,3482.457031 243.604141,3383.969971 207.816238,3282.703125 
	C176.048248,3192.811523 150.486252,3101.177734 129.464920,3008.315918 
	C118.166733,2958.406250 109.369278,2907.883057 100.944687,2857.386230 
	C95.149933,2822.652832 91.540741,2787.532227 87.685051,2752.504395 
	C84.411469,2722.764648 82.927116,2692.818115 79.262039,2663.134521 
	C76.228798,2638.568359 77.267433,2613.879395 75.158302,2589.377441 
	C70.345062,2533.461670 72.387848,2477.497559 72.750000,2421.560303 
	C72.956772,2389.623779 74.807487,2357.669434 76.833313,2325.781494 
	C78.772903,2295.251221 81.119408,2264.704834 84.671822,2234.327393 
	C90.848701,2181.508301 97.672310,2128.789062 106.628601,2076.305176 
	C118.615608,2006.061523 133.489227,1936.515869 151.594223,1867.645264 
	C169.543091,1799.368652 190.531189,1732.051392 214.459625,1665.586548 
	C249.941650,1567.029541 291.484833,1471.164307 339.491425,1378.119507 
	C371.573486,1315.939209 406.385529,1255.296631 443.717316,1196.071289 
	C484.251282,1131.766113 527.766296,1069.555664 574.232605,1009.473572 
	C601.516296,974.195129 630.767212,940.435486 659.218689,906.063416 
	C697.492249,859.825134 738.884094,816.391479 781.360535,774.108521 
	C822.887939,732.770386 865.752258,692.779663 910.403748,654.696594 
	C957.053101,614.909546 1004.668945,576.421082 1053.942871,539.952576 
	C1118.787476,491.959778 1186.039062,447.626617 1255.303223,406.277252 
	C1305.676636,376.205292 1357.077271,347.977875 1409.605225,321.958405 
	C1486.625366,283.806915 1565.256836,249.272110 1646.051270,219.677399 
	C1743.065186,184.141541 1841.593262,153.864105 1942.330933,130.821182 
	C1988.374634,120.289093 2034.578369,110.605721 2081.291748,103.526314 
	C2123.361572,97.150658 2165.406494,90.571373 2207.566650,84.850464 
	C2227.321045,82.169899 2247.327393,81.367409 2267.208496,79.591042 
	C2291.053467,77.460487 2314.886230,75.193779 2338.726074,73.003624 
	C2340.715576,72.820839 2342.716797,72.688423 2344.713623,72.672569 
	C2405.332275,72.190918 2465.846924,66.690971 2526.516602,68.816559 
	C2561.122803,70.028992 2595.752686,70.915154 2630.315186,72.925133 
	C2662.184082,74.778465 2694.053467,77.234955 2725.783203,80.703911 
	C2762.781250,84.748825 2799.621094,90.227684 2836.540771,94.999802 
	C2884.060791,101.142097 2931.269287,109.165794 2977.997314,119.710503 
	C3026.007812,130.544617 3074.196045,140.875504 3121.638672,153.865738 
	C3172.327148,167.744629 3222.641357,183.281662 3272.392090,200.228165 
	C3355.016846,228.372528 3435.637207,261.570312 3514.722412,298.706146 
	C3595.058838,336.429474 3672.778076,378.832611 3748.480225,424.940948 
	C3817.355713,466.891235 3883.619629,512.781494 3947.739014,561.735840 
	C3996.463623,598.936462 4043.703857,637.888367 4089.520508,678.650330 
	C4138.343750,722.087036 4186.050781,766.675842 4230.862793,814.203979 
	C4287.073730,873.822876 4340.789551,935.620667 4391.256348,1000.278748 
	C4453.659668,1080.230469 4510.553711,1163.900513 4562.660156,1250.802856 
	C4604.143066,1319.987427 4641.615723,1391.408325 4675.709961,1464.526978 
	C4723.910156,1567.898438 4764.184570,1674.350220 4797.411621,1783.444702 
	C4820.301758,1858.600586 4839.355957,1934.781738 4854.561035,2011.832275 
	C4863.181641,2055.517334 4869.798340,2099.629883 4876.188965,2143.713379 
	C4882.005859,2183.839600 4886.884277,2224.125977 4891.054688,2264.457764 
	C4893.791016,2290.918457 4894.216797,2317.608887 4896.229492,2344.154785 
	C4901.223633,2410.020020 4900.134277,2475.980469 4899.824219,2543.916504 
M3219.906982,1229.947021 
	C3244.914795,1207.953857 3269.895508,1185.929688 3294.938477,1163.976685 
	C3316.475586,1145.096924 3338.058350,1126.269409 3359.666992,1107.471680 
	C3387.806152,1082.993042 3416.029297,1058.610962 3444.144043,1034.104370 
	C3468.245850,1013.095886 3492.202637,991.921082 3516.301514,970.909058 
	C3544.413330,946.397949 3572.589111,921.960022 3600.775391,897.534607 
	C3626.945557,874.856079 3653.257812,852.340454 3679.313721,829.532043 
	C3688.182129,821.769104 3697.666992,814.470825 3705.299805,803.918396 
	C3701.132568,800.010986 3698.142334,796.501648 3694.497803,793.914612 
	C3679.833008,783.505127 3665.075684,773.217468 3650.154053,763.179688 
	C3592.630859,724.483337 3533.415283,688.635315 3472.484619,655.487122 
	C3413.878418,623.603638 3353.818604,594.839294 3292.418213,568.943665 
	C3227.976318,541.765381 3162.324219,517.747498 3095.337402,497.442749 
	C3036.072021,479.478424 2976.328125,463.422119 2915.528809,451.582275 
	C2874.415283,443.575928 2833.214355,435.968597 2791.921631,428.952759 
	C2769.646973,425.168213 2747.132812,422.685181 2724.661377,420.203827 
	C2705.488525,418.086700 2686.237305,416.613098 2666.995117,415.206512 
	C2632.500977,412.684937 2598.011230,408.923737 2563.477051,408.377594 
	C2494.885498,407.292786 2426.234619,405.081543 2357.699951,411.256195 
	C2330.529541,413.704132 2303.138184,413.907745 2276.037842,416.873077 
	C2240.363770,420.776489 2204.903320,426.591156 2169.304932,431.230774 
	C2114.479736,438.376251 2060.542969,450.110535 2006.746948,462.504456 
	C1933.373169,479.408844 1861.458374,501.308777 1790.451538,526.321106 
	C1735.128662,545.808716 1680.917847,567.997620 1627.488281,592.128418 
	C1583.146973,612.154602 1539.265625,633.168945 1496.999756,657.313599 
	C1457.675415,679.777893 1418.248657,702.134033 1379.779419,726.007935 
	C1320.315063,762.911377 1263.117432,803.194702 1208.112427,846.510376 
	C1152.604126,890.222351 1098.808350,935.925903 1048.307861,985.403442 
	C1001.170410,1031.586182 954.544067,1078.260864 912.347961,1129.116943 
	C889.810364,1156.279785 866.686035,1182.993408 845.060242,1210.866943 
	C806.670166,1260.348022 770.607361,1311.511841 736.805420,1364.286743 
	C704.438965,1414.820435 674.241516,1466.589478 646.356934,1519.690796 
	C608.225159,1592.306030 574.734985,1667.019165 545.441040,1743.663208 
	C518.307556,1814.654297 495.005707,1886.842163 476.117096,1960.414185 
	C451.773987,2055.231934 432.991577,2151.121582 423.355499,2248.653809 
	C419.694275,2285.711426 415.065643,2322.718994 412.899719,2359.866943 
	C410.380981,2403.066406 409.794647,2446.389648 408.982697,2489.670898 
	C408.721436,2503.597412 410.629272,2517.551514 411.149780,2531.508057 
	C412.340576,2563.436768 412.347260,2595.345215 414.860535,2627.303223 
	C418.148163,2669.107666 422.137238,2710.769775 427.350159,2752.365234 
	C432.645782,2794.620850 439.518707,2836.585205 447.425995,2878.423340 
	C463.890717,2965.540039 486.458069,3051.072021 514.078003,3135.251221 
	C536.306335,3202.998047 561.947876,3269.516357 591.716248,3334.308838 
	C610.061401,3374.238770 630.329468,3413.287598 649.928345,3452.635254 
	C651.571960,3455.934814 654.696411,3458.496826 657.520386,3461.863037 
	C661.598816,3459.006592 665.042969,3457.014160 667.999878,3454.458252 
	C697.225464,3429.197754 726.404358,3403.882568 755.527100,3378.503418 
	C780.133423,3357.059814 804.605652,3335.462158 829.214905,3314.021973 
	C856.331055,3290.397217 883.582947,3266.928467 910.687561,3243.290771 
	C935.287231,3221.837891 959.714355,3200.186768 984.316406,3178.736572 
	C1011.925720,3154.664795 1039.707031,3130.790283 1067.300171,3106.700195 
	C1092.891235,3084.358154 1118.269653,3061.772705 1143.858154,3039.427734 
	C1171.951660,3014.894775 1200.217041,2990.558838 1228.336182,2966.055176 
	C1252.439941,2945.050293 1276.372314,2923.848877 1300.506470,2902.879395 
	C1336.200195,2871.866455 1372.074341,2841.060547 1407.740112,2810.015625 
	C1432.861938,2788.149170 1457.664673,2765.915771 1482.788330,2744.051270 
	C1530.014404,2702.951660 1577.448608,2662.091064 1624.645386,2620.958008 
	C1660.799194,2589.449463 1696.664185,2557.609863 1732.772583,2526.049316 
	C1747.813965,2512.902100 1763.141113,2500.081543 1778.372192,2487.152344 
	C1780.796387,2485.094482 1783.014526,2482.144531 1787.350586,2484.367676 
	C1787.350586,2644.728760 1787.350586,2805.308594 1787.350586,2966.826172 
	C1779.867676,2973.889648 1772.272583,2981.317627 1764.390381,2988.427246 
	C1756.480225,2995.561523 1748.249634,3002.339600 1740.218872,3009.341797 
	C1717.124023,3029.477539 1694.097656,3049.691650 1670.972656,3069.792725 
	C1644.332886,3092.948242 1617.552979,3115.942871 1590.952271,3139.143066 
	C1565.852173,3161.034912 1540.980713,3183.189209 1515.872192,3205.071289 
	C1489.262573,3228.261230 1462.422363,3251.186523 1435.811646,3274.375244 
	C1410.702026,3296.256104 1385.844360,3318.426025 1360.724243,3340.294678 
	C1324.055542,3372.217041 1287.217285,3403.944580 1250.513306,3435.826416 
	C1210.790405,3470.330811 1171.128906,3504.906250 1131.482544,3539.498535 
	C1129.171143,3541.514893 1125.910889,3543.461182 1128.863892,3548.175293 
	C2169.737061,3548.175293 3211.025879,3548.176025 4252.314941,3548.154785 
	C4256.971680,3548.154541 4261.629395,3547.865967 4266.283691,3547.645752 
	C4266.909668,3547.616211 4267.530762,3547.226318 4268.129395,3546.949463 
	C4268.727539,3546.672852 4269.294434,3546.328125 4271.904785,3544.911865 
	C4288.774414,3514.628418 4307.097656,3482.905762 4324.302734,3450.587402 
	C4353.434082,3395.865967 4379.311523,3339.596680 4403.431641,3282.470459 
	C4438.463379,3199.502197 4467.535156,3114.480225 4490.960938,3027.619629 
	C4517.839844,2927.953613 4538.141602,2826.915283 4548.618164,2724.073242 
	C4550.033203,2710.179932 4551.292969,2696.267578 4552.931641,2682.400635 
	C4556.760742,2650.004150 4559.522461,2617.536133 4560.253418,2584.909424 
	C4560.522461,2572.915039 4560.141602,2560.844238 4561.376953,2548.945068 
	C4565.589355,2508.358154 4563.762207,2467.693604 4562.783691,2427.110107 
	C4561.918457,2391.219971 4558.673828,2355.381592 4556.239258,2319.536621 
	C4554.841309,2298.958984 4553.527832,2278.348633 4551.165039,2257.869873 
	C4548.117676,2231.458496 4543.819824,2205.194336 4540.486816,2178.812744 
	C4534.309082,2129.924805 4524.882324,2081.597900 4514.163574,2033.581787 
	C4495.150879,1948.415283 4471.266113,1864.606812 4441.685547,1782.425171 
	C4421.367188,1725.977051 4398.967773,1670.398071 4373.727051,1616.019043 
	C4321.717285,1503.968140 4261.080078,1396.787964 4190.039062,1295.627319 
	C4157.110352,1248.737427 4123.068359,1202.657104 4085.675293,1159.194092 
	C4057.881104,1126.888184 4029.529541,1095.060303 4001.266846,1063.160889 
	C3997.434570,1058.835571 3992.672852,1055.333862 3987.953125,1051.102173 
	C3982.196045,1055.306885 3977.140137,1058.475464 3972.687256,1062.338867 
	C3948.537598,1083.291748 3924.536865,1104.416016 3900.485596,1125.482056 
	C3875.932373,1146.988281 3851.418945,1168.540161 3826.817383,1189.990723 
	C3799.208496,1214.063599 3771.469971,1237.987793 3743.882324,1262.084961 
	C3718.295410,1284.433838 3692.924316,1307.030029 3667.293213,1329.327393 
	C3631.619141,1360.361572 3595.722900,1391.140137 3560.053467,1422.179199 
	C3534.929199,1444.041504 3510.085938,1466.226196 3485.007080,1488.141357 
	C3444.384277,1523.639526 3403.664551,1559.026733 3363.000000,1594.477539 
	C3349.443604,1606.295898 3335.979980,1618.221069 3322.390137,1630.000732 
	C3297.227051,1651.811768 3271.914307,1673.451050 3246.826416,1695.347900 
	C3220.729980,1718.124390 3194.876221,1741.178223 3168.789062,1763.964966 
	C3164.359863,1767.833862 3159.289062,1770.968262 3154.208008,1774.665161 
	C3152.625488,1772.271851 3151.113037,1770.833740 3150.609863,1769.102295 
	C3113.683838,1642.008789 3076.837891,1514.891846 3039.706543,1386.814697 
	C3099.356445,1334.930542 3158.591064,1283.407349 3219.906982,1229.947021 
M3001.676514,4047.570557 
	C3015.613281,4030.538574 3028.739014,4013.061768 3036.448486,3992.060059 
	C3048.065918,3960.412109 3053.682617,3928.489502 3048.661621,3894.404297 
	C3039.486572,3832.121826 3008.689941,3784.971191 2953.502197,3755.126953 
	C2897.580566,3724.886719 2838.672607,3722.775879 2779.897217,3745.265381 
	C2730.452637,3764.184814 2694.995605,3799.135986 2675.229736,3848.883545 
	C2662.217041,3881.635010 2657.752686,3915.132812 2663.516113,3950.434814 
	C2671.649414,4000.250244 2695.157227,4040.454834 2734.929443,4070.857666 
	C2781.691895,4106.604004 2835.707275,4114.746094 2892.115967,4106.302246 
	C2933.889893,4100.048828 2970.187256,4080.589844 3001.676514,4047.570557 
M2423.065186,4542.925293 
	C2414.308594,4530.352539 2405.421875,4517.867188 2396.890381,4505.143066 
	C2394.857666,4502.112305 2394.012207,4498.284668 2392.428467,4494.345703 
	C2399.353760,4490.703613 2405.314209,4487.786621 2411.066162,4484.503906 
	C2430.020508,4473.685547 2445.191895,4459.278809 2454.836182,4439.288086 
	C2473.441406,4400.721680 2472.560547,4362.031250 2455.540527,4323.464844 
	C2449.880615,4310.640137 2441.382324,4299.699707 2430.151855,4290.587402 
	C2404.098633,4269.448730 2373.999268,4260.390137 2341.219238,4260.038574 
	C2287.226807,4259.458984 2233.223633,4259.803711 2179.225098,4259.851562 
	C2174.735352,4259.855957 2170.246094,4260.562988 2165.555908,4260.960938 
	C2162.409912,4269.040527 2163.478027,4276.410156 2163.469727,4283.570801 
	C2163.382568,4359.568848 2163.414551,4435.567383 2163.415771,4511.565430 
	C2163.416260,4543.564941 2163.347412,4575.564453 2163.501465,4607.562988 
	C2163.526123,4612.653320 2164.563477,4617.738281 2165.090332,4622.447266 
	C2185.499023,4625.666016 2227.206787,4625.275391 2242.715576,4621.641602 
	C2243.022705,4615.578125 2243.610352,4609.066895 2243.637207,4602.553711 
	C2243.746826,4575.888184 2243.590576,4549.221191 2243.781738,4522.556152 
	C2243.812988,4518.174316 2245.094971,4513.800781 2245.887939,4508.870605 
	C2266.246338,4508.870605 2285.435303,4508.870605 2305.567871,4508.870605 
	C2309.238281,4514.023438 2313.171875,4519.317871 2316.868164,4524.772461 
	C2336.673584,4554.000000 2356.681641,4583.096680 2376.025391,4612.627441 
	C2381.788818,4621.426270 2388.411133,4625.140137 2399.016602,4624.783203 
	C2420.325195,4624.065918 2441.675537,4624.631836 2463.007812,4624.512207 
	C2466.706299,4624.491699 2470.400635,4623.708984 2473.464111,4623.351562 
	C2474.128418,4621.262207 2474.699707,4620.388672 2474.472168,4620.047852 
	C2457.864258,4595.137695 2441.193115,4570.269043 2423.065186,4542.925293 
M3143.459961,4434.264648 
	C3142.820801,4425.140137 3144.887939,4415.771973 3141.404541,4405.519043 
	C3134.628418,4405.189453 3128.133789,4404.611816 3121.638184,4404.599609 
	C3077.658936,4404.517090 3033.679688,4404.617188 2989.700928,4404.479004 
	C2983.928467,4404.460938 2977.619629,4406.067383 2972.765625,4401.234863 
	C2970.124756,4380.272949 2970.620361,4348.192871 2973.973633,4333.228516 
	C2980.604980,4330.595703 2987.987793,4331.744629 2995.153076,4331.729492 
	C3046.461670,4331.620117 3097.770996,4331.731445 3149.079346,4331.585938 
	C3154.804199,4331.569824 3161.195312,4333.489258 3167.228271,4326.633301 
	C3167.228271,4316.800293 3167.667480,4305.515137 3167.103516,4294.279785 
	C3166.549072,4283.234375 3169.797852,4271.759766 3164.379150,4260.921387 
	C3161.362061,4260.521484 3158.745117,4259.873047 3156.127686,4259.871582 
	C3070.834961,4259.817383 2985.542480,4259.808594 2900.249756,4259.895508 
	C2897.144531,4259.898438 2894.040283,4260.941895 2889.822021,4261.701172 
	C2889.553467,4269.814453 2889.110107,4277.019531 2889.107178,4284.224121 
	C2889.062500,4389.507324 2889.075928,4494.791016 2889.078369,4600.074219 
	C2889.078369,4604.072266 2888.788574,4608.103516 2889.205078,4612.059082 
	C2889.601807,4615.826660 2890.747559,4619.515625 2891.743408,4624.056641 
	C2899.109375,4624.244629 2905.701416,4624.554199 2912.293945,4624.559570 
	C2959.604736,4624.601074 3006.915771,4624.581055 3054.226562,4624.580566 
	C3086.877686,4624.580078 3119.529053,4624.643066 3152.179688,4624.512207 
	C3157.300537,4624.492188 3162.981934,4625.907227 3168.364258,4619.375000 
	C3168.364258,4609.708008 3168.750488,4598.425293 3168.254395,4587.181641 
	C3167.769287,4576.185059 3170.577881,4564.792480 3165.608887,4553.067871 
	C3157.751465,4552.919434 3150.519287,4552.669922 3143.286865,4552.665039 
	C3092.644287,4552.630371 3042.001221,4552.715332 2991.359131,4552.561523 
	C2984.962891,4552.542480 2977.942871,4554.532715 2971.223389,4547.798340 
	C2971.223389,4536.993164 2970.903809,4525.037109 2971.314697,4513.105957 
	C2971.716309,4501.435059 2969.286621,4489.437500 2973.543701,4477.221680 
	C2981.153320,4476.951172 2987.718018,4476.524902 2994.283447,4476.515625 
	C3037.596191,4476.454102 3080.909180,4476.554688 3124.221436,4476.396484 
	C3129.988037,4476.375488 3136.241211,4478.100098 3142.562744,4472.789551 
	C3144.476807,4461.903320 3143.034912,4449.945801 3143.459961,4434.264648 
M3630.000000,3808.476562 
	C3657.325439,3808.474609 3684.651367,3808.548096 3711.976074,3808.403809 
	C3717.107422,3808.376709 3722.751221,3809.771729 3728.212646,3803.760742 
	C3728.301025,3793.876221 3728.771484,3782.616211 3728.397461,3771.384033 
	C3728.030029,3760.353027 3730.404541,3748.998779 3726.281738,3737.671631 
	C3722.139404,3737.245361 3718.911377,3736.625000 3715.682861,3736.623047 
	C3631.707275,3736.570068 3547.731445,3736.563721 3463.755859,3736.648926 
	C3460.619141,3736.652100 3457.483154,3737.651123 3454.419922,3738.173584 
	C3451.310303,3746.224609 3452.512939,3753.612061 3452.500244,3760.795654 
	C3452.388916,3823.444092 3452.435547,3886.092773 3452.435303,3948.741211 
	C3452.435303,3994.061523 3452.366943,4039.381836 3452.521484,4084.701660 
	C3452.541260,4090.465088 3450.764893,4096.758789 3456.083008,4102.562500 
	C3458.672852,4102.840820 3461.904053,4103.489258 3465.135742,4103.491211 
	C3549.777832,4103.547852 3634.420166,4103.562988 3719.062256,4103.455078 
	C3722.828125,4103.450195 3726.592773,4102.229004 3730.000244,4101.636719 
	C3733.155518,4080.269043 3732.625244,4047.097900 3728.718750,4032.215576 
	C3721.962891,4032.038086 3714.768799,4031.692627 3707.574219,4031.685791 
	C3656.922119,4031.638428 3606.270020,4031.743408 3555.618408,4031.565186 
	C3548.567871,4031.540283 3540.911377,4033.645752 3534.827881,4028.322510 
	C3531.306641,4009.304932 3531.793701,3970.401611 3536.059570,3955.779785 
	C3542.176758,3955.674316 3548.743408,3955.467773 3555.310059,3955.463379 
	C3598.630859,3955.434082 3641.951904,3955.508301 3685.272217,3955.376221 
	C3691.092773,3955.358398 3697.317139,3956.900879 3704.524658,3951.208008 
	C3704.111084,3930.399414 3706.249512,3908.126221 3703.145020,3884.571045 
	C3695.706055,3884.185547 3689.213135,3883.571045 3682.718994,3883.557129 
	C3641.397705,3883.468262 3600.076416,3883.518311 3558.755127,3883.503174 
	C3553.425293,3883.500977 3548.079346,3883.622070 3542.769287,3883.266113 
	C3535.718262,3882.793457 3532.957275,3880.403320 3532.901855,3873.353760 
	C3532.750244,3854.049561 3533.039551,3834.739746 3533.392578,3815.436523 
	C3533.424072,3813.724121 3535.194092,3812.043945 3537.115234,3808.660156 
	C3566.235352,3808.288818 3596.121582,3808.556641 3630.000000,3808.476562 
M2670.050293,4331.670410 
	C2712.712891,4331.670410 2755.375732,4331.738281 2798.037842,4331.589355 
	C2803.785889,4331.568848 2810.151855,4333.347656 2816.135742,4326.752930 
	C2816.135742,4316.771973 2816.558594,4305.462891 2816.015625,4294.201172 
	C2815.484619,4283.187012 2818.584229,4271.749023 2813.472656,4260.934570 
	C2810.214600,4260.512207 2807.612549,4259.881836 2805.009766,4259.880371 
	C2720.351318,4259.827148 2635.692627,4259.814941 2551.034180,4259.910645 
	C2547.927979,4259.914062 2544.822510,4261.057129 2540.694824,4261.870605 
	C2540.474121,4269.951660 2540.107666,4277.168945 2540.104980,4284.385742 
	C2540.067871,4389.042480 2540.078857,4493.699219 2540.081299,4598.355957 
	C2540.081299,4603.021973 2539.792725,4607.717773 2540.223145,4612.345215 
	C2540.572021,4616.101074 2541.798828,4619.775391 2542.863770,4624.494141 
	C2632.249512,4624.494141 2720.857422,4624.507324 2809.465576,4624.427734 
	C2811.979980,4624.425293 2814.493652,4623.437988 2818.061035,4622.688965 
	C2820.685791,4601.913086 2819.367920,4581.394531 2818.971924,4560.927734 
	C2818.885498,4556.462891 2815.807129,4553.521484 2811.313965,4553.123535 
	C2806.016602,4552.654297 2800.666016,4552.668945 2795.338623,4552.666016 
	C2744.010254,4552.636719 2692.681396,4552.709473 2641.353516,4552.571777 
	C2634.919678,4552.554688 2628.051514,4554.300293 2622.339355,4550.234863 
	C2618.774902,4528.755371 2619.407471,4492.227539 2623.585205,4478.692871 
	C2630.218750,4475.041992 2637.692627,4476.583496 2644.862793,4476.558105 
	C2687.524902,4476.407227 2730.188232,4476.532227 2772.850342,4476.424316 
	C2778.646484,4476.409668 2784.440674,4475.615234 2789.849121,4475.210449 
	C2793.311279,4457.056152 2793.238037,4422.416016 2789.903564,4406.717773 
	C2783.926758,4403.027344 2777.097168,4404.658691 2770.608887,4404.637207 
	C2726.613525,4404.488281 2682.617188,4404.628906 2638.621826,4404.472656 
	C2632.889648,4404.452637 2626.531982,4406.300781 2621.781250,4401.227051 
	C2619.184570,4380.113770 2619.630859,4348.217285 2623.005127,4332.576660 
	C2637.020508,4330.658691 2651.602051,4332.136719 2670.050293,4331.670410 
M1753.565063,3735.415283 
	C1737.698608,3736.031738 1721.714600,3733.954346 1704.635742,3737.165771 
	C1653.992432,3856.356689 1602.435181,3975.405518 1552.811157,4095.280762 
	C1552.149658,4096.878906 1552.926880,4099.072754 1553.026245,4100.873535 
	C1567.243164,4104.270508 1611.719116,4104.653809 1631.900269,4101.343750 
	C1642.752075,4075.332520 1653.972900,4048.437012 1665.189575,4021.551270 
	C1670.291260,4021.131836 1674.221924,4020.534424 1678.153564,4020.527832 
	C1719.457153,4020.457764 1760.760864,4020.479248 1802.064575,4020.487793 
	C1804.728149,4020.488525 1807.391602,4020.591064 1810.055176,4020.649658 
	C1816.096558,4020.782715 1820.067261,4024.023926 1822.292603,4029.342773 
	C1825.886963,4037.934082 1828.912476,4046.773438 1832.736084,4055.256592 
	C1839.808228,4070.947021 1844.134033,4087.920410 1853.892090,4102.042969 
	C1874.080811,4104.434082 1919.189087,4104.075195 1935.547607,4101.115234 
	C1926.915039,4075.763184 1915.065430,4052.044189 1905.072754,4027.634521 
	C1894.988281,4002.999756 1883.969482,3978.749023 1873.514038,3954.264404 
	C1863.322021,3930.396729 1853.342407,3906.438232 1843.237793,3882.533203 
	C1832.874023,3858.015381 1822.798340,3833.368164 1811.994019,3809.045410 
	C1801.237427,3784.830078 1792.076416,3759.880859 1780.001465,3735.414551 
	C1771.910522,3735.414551 1764.637695,3735.414551 1753.565063,3735.415283 
M3108.088379,4061.763428 
	C3116.998291,4067.575195 3125.588379,4073.966064 3134.873047,4079.099854 
	C3177.470459,4102.652832 3223.287109,4111.716309 3271.605469,4107.468750 
	C3292.296143,4105.649902 3312.280518,4099.981445 3330.449707,4089.721680 
	C3375.811279,4064.106201 3389.076416,4016.476074 3382.001709,3973.556885 
	C3379.706055,3959.628906 3375.072998,3946.431152 3365.610352,3935.508545 
	C3355.512695,3923.852783 3344.285645,3913.696777 3330.162354,3906.814941 
	C3313.958740,3898.919434 3297.468506,3892.035400 3280.014648,3887.375977 
	C3262.031250,3882.575195 3244.125977,3877.454102 3226.305176,3872.080566 
	C3216.088867,3869.000000 3206.137451,3865.033203 3198.233398,3857.424072 
	C3185.123535,3844.803223 3185.010742,3827.544189 3198.423828,3815.272949 
	C3202.212891,3811.806641 3207.165039,3809.251709 3212.006836,3807.364014 
	C3226.140625,3801.854248 3240.830566,3802.859863 3255.319336,3805.483887 
	C3277.911133,3809.575195 3298.284668,3819.337891 3317.679199,3831.311768 
	C3322.147949,3834.070557 3326.313232,3837.909912 3333.569336,3834.801270 
	C3345.682373,3816.710205 3360.739014,3799.143555 3371.179932,3778.831787 
	C3326.434814,3738.051758 3248.358398,3721.454102 3189.960449,3738.081543 
	C3157.090820,3747.440674 3131.544678,3766.569580 3117.057617,3798.499512 
	C3109.757812,3814.588379 3107.805420,3831.592529 3108.161865,3849.144531 
	C3108.924805,3886.694336 3126.446533,3913.633789 3159.101562,3931.184082 
	C3176.810547,3940.701904 3196.068115,3946.131104 3215.246094,3951.715576 
	C3233.116455,3956.919434 3251.060303,3961.896484 3268.793213,3967.535645 
	C3275.706299,3969.734375 3282.208252,3973.312012 3288.760254,3976.540283 
	C3299.931641,3982.043945 3306.550293,3999.724609 3300.950684,4013.028076 
	C3296.952393,4022.527832 3290.156738,4028.025879 3281.193359,4031.445801 
	C3262.512451,4038.572998 3243.235107,4037.807373 3224.096680,4034.225586 
	C3199.508301,4029.623779 3177.356934,4019.203369 3157.277100,4004.256592 
	C3152.572754,4000.754639 3147.312744,3997.999023 3142.258789,3994.869629 
	C3129.837891,4001.703613 3124.583496,4013.965820 3115.981445,4022.991455 
	C3108.335205,4031.013916 3100.633789,4039.407959 3095.389893,4050.434814 
	C3099.125488,4053.817383 3102.496582,4056.869873 3108.088379,4061.763428 
M2203.513184,3821.891357 
	C2214.426025,3829.329590 2225.338867,3836.767578 2235.977539,3844.019043 
	C2250.663330,3832.582275 2276.542969,3803.318604 2286.512695,3787.076660 
	C2285.526611,3785.553711 2284.742676,3783.634766 2283.372559,3782.333008 
	C2262.769287,3762.757080 2238.789551,3748.961182 2211.804688,3740.070801 
	C2184.705811,3731.142822 2156.816650,3730.795898 2128.821777,3731.851562 
	C2091.120850,3733.273682 2056.786377,3745.512207 2027.054077,3768.329102 
	C1963.138184,3817.379883 1940.496948,3896.475830 1959.230591,3969.980957 
	C1966.393921,3998.087891 1979.067871,4023.400635 1998.259766,4045.517578 
	C2023.977051,4075.154785 2055.928467,4094.101807 2093.674561,4103.924805 
	C2115.264893,4109.542969 2137.235596,4108.890137 2159.183838,4108.297363 
	C2196.238281,4107.296875 2229.537598,4095.172363 2259.294434,4073.272705 
	C2264.635986,4069.341797 2269.591553,4064.793701 2274.268311,4060.077393 
	C2279.283691,4055.019775 2285.640137,4050.903076 2288.396240,4043.309082 
	C2281.548340,4033.633545 2273.202393,4025.948730 2264.923096,4018.440430 
	C2256.172852,4010.504395 2250.567139,3999.335449 2240.072266,3993.027100 
	C2228.604492,4001.348633 2218.340820,4009.798340 2207.135254,4016.724121 
	C2181.974854,4032.275879 2155.007080,4038.516357 2125.176270,4032.922852 
	C2086.988037,4025.762207 2062.379639,4003.430176 2047.284790,3968.650146 
	C2039.625732,3951.002441 2038.862427,3932.594971 2038.886597,3913.854492 
	C2038.922729,3886.010986 2048.068848,3861.497803 2066.121094,3840.644531 
	C2086.945801,3816.587402 2114.447021,3805.089844 2145.649170,3805.307373 
	C2164.808838,3805.440674 2183.934326,3810.103271 2203.513184,3821.891357 
M1918.755859,4483.890625 
	C1964.714478,4483.890625 2010.673462,4483.959961 2056.631592,4483.805176 
	C2062.395508,4483.786133 2068.661133,4485.532715 2073.708252,4481.199707 
	C2076.587891,4463.339844 2076.398193,4429.467285 2073.204102,4413.163574 
	C2067.353027,4410.364258 2060.642090,4411.381836 2054.150635,4411.369629 
	C2011.522461,4411.290039 1968.893921,4411.331055 1926.265625,4411.324219 
	C1921.603394,4411.323730 1916.929565,4411.476074 1912.281372,4411.206543 
	C1903.003662,4410.668457 1900.633423,4408.486816 1900.481812,4398.936035 
	C1900.196045,4380.956543 1900.260010,4362.968750 1900.453735,4344.987305 
	C1900.494141,4341.238770 1901.727661,4337.502930 1902.563843,4332.926758 
	C1910.061523,4332.713379 1916.626465,4332.369629 1923.191772,4332.364258 
	C1975.145142,4332.319336 2027.098633,4332.412598 2079.051514,4332.241699 
	C2085.414551,4332.220703 2092.416748,4334.366699 2097.851318,4329.199707 
	C2100.680420,4306.710938 2100.162598,4275.771484 2096.409912,4260.443359 
	C2074.369385,4259.120605 2051.845947,4259.975098 2029.360962,4259.829590 
	C2006.049561,4259.679199 1982.736572,4259.795898 1959.424194,4259.795898 
	C1936.777832,4259.795898 1914.126953,4259.508301 1891.486572,4259.875977 
	C1868.412231,4260.250488 1845.230591,4258.187500 1820.875488,4261.352051 
	C1820.589844,4269.518555 1820.126221,4276.692383 1820.120850,4283.866699 
	C1820.066528,4355.135742 1820.087402,4426.405273 1820.088013,4497.674316 
	C1820.088379,4533.642090 1820.012817,4569.609863 1820.170776,4605.576660 
	C1820.196167,4611.364746 1818.552124,4617.625000 1824.465820,4624.419922 
	C1848.067017,4624.055176 1873.039185,4625.914551 1899.283081,4623.213867 
	C1899.674072,4615.672852 1900.282593,4609.187988 1900.301270,4602.701172 
	C1900.399536,4568.731934 1900.280518,4534.761719 1900.422119,4500.793457 
	C1900.443481,4495.702148 1901.442993,4490.615723 1902.040894,4485.054688 
	C1907.186646,4484.592285 1911.077515,4484.243164 1918.755859,4483.890625 
M2439.946533,3834.557373 
	C2439.946533,3916.498779 2439.909424,3998.440186 2440.011963,4080.381592 
	C2440.020996,4087.489014 2438.729248,4094.898193 2441.827393,4101.344727 
	C2459.955078,4104.438965 2501.850830,4104.310547 2518.286621,4101.179199 
	C2521.840820,4095.317139 2520.283203,4088.511963 2520.306152,4082.048584 
	C2520.447021,4042.743896 2520.376465,4003.438477 2520.376953,3964.133301 
	C2520.377197,3919.498535 2520.312988,3874.863525 2520.458496,3830.229248 
	C2520.477295,3824.464355 2518.758789,3818.140381 2524.998291,3811.908691 
	C2530.360352,3811.908691 2536.962891,3811.909180 2543.565430,3811.908691 
	C2568.214355,3811.906738 2592.864258,3812.004395 2617.511719,3811.809326 
	C2621.906982,3811.774170 2626.292725,3810.524658 2631.849854,3809.652832 
	C2631.916748,3796.723877 2632.400391,3784.797852 2631.919678,3772.910645 
	C2631.448242,3761.256592 2634.438477,3749.197998 2629.197510,3737.098389 
	C2622.012939,3736.905029 2615.428467,3736.592041 2608.843262,3736.574951 
	C2584.860352,3736.513184 2560.877686,3736.550049 2536.894775,3736.550293 
	C2474.939209,3736.550537 2412.983154,3736.484619 2351.028076,3736.643799 
	C2343.955322,3736.661865 2336.414795,3734.811035 2329.444824,3739.549316 
	C2327.220459,3751.500000 2328.174805,3763.495361 2328.462646,3775.365967 
	C2328.745605,3787.051514 2325.895020,3799.123047 2331.123779,3811.371094 
	C2338.117188,3811.556885 2344.701660,3811.866211 2351.286621,3811.883057 
	C2375.935791,3811.947021 2400.585449,3811.820557 2425.233154,3812.006836 
	C2429.642334,3812.040039 2434.043213,3813.217285 2439.001221,3813.947998 
	C2439.357178,3820.259766 2439.651855,3825.486328 2439.946533,3834.557373 
M1338.966309,3814.003418 
	C1338.553589,3790.082764 1338.169312,3766.161621 1337.636963,3742.243652 
	C1337.612427,3741.139404 1336.260864,3740.064697 1335.525879,3738.977051 
	C1319.836060,3735.560791 1274.432251,3735.597900 1258.880859,3739.039795 
	C1258.461060,3739.540039 1257.766846,3739.992188 1257.668701,3740.549072 
	C1257.209473,3743.154541 1256.601807,3745.789307 1256.605347,3748.412842 
	C1256.757812,3864.918213 1256.968628,3981.423340 1257.194824,4097.928711 
	C1257.196045,4098.571777 1257.395508,4099.285156 1257.721069,4099.836426 
	C1258.047363,4100.388184 1258.647949,4100.778809 1259.773315,4101.858887 
	C1260.823608,4102.194336 1262.661011,4103.292480 1264.499634,4103.294434 
	C1347.063232,4103.380859 1429.627075,4103.382812 1512.190552,4103.296387 
	C1514.024780,4103.294434 1515.857666,4102.162598 1517.465332,4101.632324 
	C1521.240356,4084.337891 1520.990479,4044.977539 1516.780151,4029.574463 
	C1510.661987,4029.317627 1504.139282,4028.816650 1497.615723,4028.806885 
	C1451.671509,4028.736816 1405.726929,4028.837891 1359.783203,4028.686768 
	C1353.354248,4028.665283 1346.416138,4030.455322 1340.883545,4025.684082 
	C1340.325806,4024.173584 1339.481934,4022.950928 1339.478027,4021.725586 
	C1339.262207,3953.817871 1339.116699,3885.910156 1338.966309,3814.003418 
z"/>
<path fill="#FFFFFF" opacity="1.000000" stroke="none" 
	d="
M3218.866455,1230.915527 
	C3158.591064,1283.407349 3099.356445,1334.930542 3039.706543,1386.814697 
	C3076.837891,1514.891846 3113.683838,1642.008789 3150.609863,1769.102295 
	C3151.113037,1770.833740 3152.625488,1772.271851 3154.208008,1774.665161 
	C3159.289062,1770.968262 3164.359863,1767.833862 3168.789062,1763.964966 
	C3194.876221,1741.178223 3220.729980,1718.124390 3246.826416,1695.347900 
	C3271.914307,1673.451050 3297.227051,1651.811768 3322.390137,1630.000732 
	C3335.979980,1618.221069 3349.443604,1606.295898 3363.000000,1594.477539 
	C3403.664551,1559.026733 3444.384277,1523.639526 3485.007080,1488.141357 
	C3510.085938,1466.226196 3534.929199,1444.041504 3560.053467,1422.179199 
	C3595.722900,1391.140137 3631.619141,1360.361572 3667.293213,1329.327393 
	C3692.924316,1307.030029 3718.295410,1284.433838 3743.882324,1262.084961 
	C3771.469971,1237.987793 3799.208496,1214.063599 3826.817383,1189.990723 
	C3851.418945,1168.540161 3875.932373,1146.988281 3900.485596,1125.482056 
	C3924.536865,1104.416016 3948.537598,1083.291748 3972.687256,1062.338867 
	C3977.140137,1058.475464 3982.196045,1055.306885 3987.953125,1051.102173 
	C3992.672852,1055.333862 3997.434570,1058.835571 4001.266846,1063.160889 
	C4029.529541,1095.060303 4057.881104,1126.888184 4085.675293,1159.194092 
	C4123.068359,1202.657104 4157.110352,1248.737427 4190.039062,1295.627319 
	C4261.080078,1396.787964 4321.717285,1503.968140 4373.727051,1616.019043 
	C4398.967773,1670.398071 4421.367188,1725.977051 4441.685547,1782.425171 
	C4471.266113,1864.606812 4495.150879,1948.415283 4514.163574,2033.581787 
	C4524.882324,2081.597900 4534.309082,2129.924805 4540.486816,2178.812744 
	C4543.819824,2205.194336 4548.117676,2231.458496 4551.165039,2257.869873 
	C4553.527832,2278.348633 4554.841309,2298.958984 4556.239258,2319.536621 
	C4558.673828,2355.381592 4561.918457,2391.219971 4562.783691,2427.110107 
	C4563.762207,2467.693604 4565.589355,2508.358154 4561.376953,2548.945068 
	C4560.141602,2560.844238 4560.522461,2572.915039 4560.253418,2584.909424 
	C4559.522461,2617.536133 4556.760742,2650.004150 4552.931641,2682.400635 
	C4551.292969,2696.267578 4550.033203,2710.179932 4548.618164,2724.073242 
	C4538.141602,2826.915283 4517.839844,2927.953613 4490.960938,3027.619629 
	C4467.535156,3114.480225 4438.463379,3199.502197 4403.431641,3282.470459 
	C4379.311523,3339.596680 4353.434082,3395.865967 4324.302734,3450.587402 
	C4307.097656,3482.905762 4288.774414,3514.628418 4271.904785,3544.911865 
	C4269.294434,3546.328125 4268.727539,3546.672852 4268.129395,3546.949463 
	C4267.530762,3547.226318 4266.909668,3547.616211 4266.283691,3547.645752 
	C4261.629395,3547.865967 4256.971680,3548.154541 4252.314941,3548.154785 
	C3211.025879,3548.176025 2169.737061,3548.175293 1128.863892,3548.175293 
	C1125.910889,3543.461182 1129.171143,3541.514893 1131.482544,3539.498535 
	C1171.128906,3504.906250 1210.790405,3470.330811 1250.513306,3435.826416 
	C1287.217285,3403.944580 1324.055542,3372.217041 1360.724243,3340.294678 
	C1385.844360,3318.426025 1410.702026,3296.256104 1435.811646,3274.375244 
	C1462.422363,3251.186523 1489.262573,3228.261230 1515.872192,3205.071289 
	C1540.980713,3183.189209 1565.852173,3161.034912 1590.952271,3139.143066 
	C1617.552979,3115.942871 1644.332886,3092.948242 1670.972656,3069.792725 
	C1694.097656,3049.691650 1717.124023,3029.477539 1740.218872,3009.341797 
	C1748.249634,3002.339600 1756.480225,2995.561523 1764.390381,2988.427246 
	C1772.272583,2981.317627 1779.867676,2973.889648 1787.350586,2966.826172 
	C1787.350586,2805.308594 1787.350586,2644.728760 1787.350586,2484.367676 
	C1783.014526,2482.144531 1780.796387,2485.094482 1778.372192,2487.152344 
	C1763.141113,2500.081543 1747.813965,2512.902100 1732.772583,2526.049316 
	C1696.664185,2557.609863 1660.799194,2589.449463 1624.645386,2620.958008 
	C1577.448608,2662.091064 1530.014404,2702.951660 1482.788330,2744.051270 
	C1457.664673,2765.915771 1432.861938,2788.149170 1407.740112,2810.015625 
	C1372.074341,2841.060547 1336.200195,2871.866455 1300.506470,2902.879395 
	C1276.372314,2923.848877 1252.439941,2945.050293 1228.336182,2966.055176 
	C1200.217041,2990.558838 1171.951660,3014.894775 1143.858154,3039.427734 
	C1118.269653,3061.772705 1092.891235,3084.358154 1067.300171,3106.700195 
	C1039.707031,3130.790283 1011.925720,3154.664795 984.316406,3178.736572 
	C959.714355,3200.186768 935.287231,3221.837891 910.687561,3243.290771 
	C883.582947,3266.928467 856.331055,3290.397217 829.214905,3314.021973 
	C804.605652,3335.462158 780.133423,3357.059814 755.527100,3378.503418 
	C726.404358,3403.882568 697.225464,3429.197754 667.999878,3454.458252 
	C665.042969,3457.014160 661.598816,3459.006592 657.520386,3461.863037 
	C654.696411,3458.496826 651.571960,3455.934814 649.928345,3452.635254 
	C630.329468,3413.287598 610.061401,3374.238770 591.716248,3334.308838 
	C561.947876,3269.516357 536.306335,3202.998047 514.078003,3135.251221 
	C486.458069,3051.072021 463.890717,2965.540039 447.425995,2878.423340 
	C439.518707,2836.585205 432.645782,2794.620850 427.350159,2752.365234 
	C422.137238,2710.769775 418.148163,2669.107666 414.860535,2627.303223 
	C412.347260,2595.345215 412.340576,2563.436768 411.149780,2531.508057 
	C410.629272,2517.551514 408.721436,2503.597412 408.982697,2489.670898 
	C409.794647,2446.389648 410.380981,2403.066406 412.899719,2359.866943 
	C415.065643,2322.718994 419.694275,2285.711426 423.355499,2248.653809 
	C432.991577,2151.121582 451.773987,2055.231934 476.117096,1960.414185 
	C495.005707,1886.842163 518.307556,1814.654297 545.441040,1743.663208 
	C574.734985,1667.019165 608.225159,1592.306030 646.356934,1519.690796 
	C674.241516,1466.589478 704.438965,1414.820435 736.805420,1364.286743 
	C770.607361,1311.511841 806.670166,1260.348022 845.060242,1210.866943 
	C866.686035,1182.993408 889.810364,1156.279785 912.347961,1129.116943 
	C954.544067,1078.260864 1001.170410,1031.586182 1048.307861,985.403442 
	C1098.808350,935.925903 1152.604126,890.222351 1208.112427,846.510376 
	C1263.117432,803.194702 1320.315063,762.911377 1379.779419,726.007935 
	C1418.248657,702.134033 1457.675415,679.777893 1496.999756,657.313599 
	C1539.265625,633.168945 1583.146973,612.154602 1627.488281,592.128418 
	C1680.917847,567.997620 1735.128662,545.808716 1790.451538,526.321106 
	C1861.458374,501.308777 1933.373169,479.408844 2006.746948,462.504456 
	C2060.542969,450.110535 2114.479736,438.376251 2169.304932,431.230774 
	C2204.903320,426.591156 2240.363770,420.776489 2276.037842,416.873077 
	C2303.138184,413.907745 2330.529541,413.704132 2357.699951,411.256195 
	C2426.234619,405.081543 2494.885498,407.292786 2563.477051,408.377594 
	C2598.011230,408.923737 2632.500977,412.684937 2666.995117,415.206512 
	C2686.237305,416.613098 2705.488525,418.086700 2724.661377,420.203827 
	C2747.132812,422.685181 2769.646973,425.168213 2791.921631,428.952759 
	C2833.214355,435.968597 2874.415283,443.575928 2915.528809,451.582275 
	C2976.328125,463.422119 3036.072021,479.478424 3095.337402,497.442749 
	C3162.324219,517.747498 3227.976318,541.765381 3292.418213,568.943665 
	C3353.818604,594.839294 3413.878418,623.603638 3472.484619,655.487122 
	C3533.415283,688.635315 3592.630859,724.483337 3650.154053,763.179688 
	C3665.075684,773.217468 3679.833008,783.505127 3694.497803,793.914612 
	C3698.142334,796.501648 3701.132568,800.010986 3705.299805,803.918396 
	C3697.666992,814.470825 3688.182129,821.769104 3679.313721,829.532043 
	C3653.257812,852.340454 3626.945557,874.856079 3600.775391,897.534607 
	C3572.589111,921.960022 3544.413330,946.397949 3516.301514,970.909058 
	C3492.202637,991.921082 3468.245850,1013.095886 3444.144043,1034.104370 
	C3416.029297,1058.610962 3387.806152,1082.993042 3359.666992,1107.471680 
	C3338.058350,1126.269409 3316.475586,1145.096924 3294.938477,1163.976685 
	C3269.895508,1185.929688 3244.914795,1207.953857 3218.866455,1230.915527 
M3031.441406,2197.793213 
	C3031.488281,2142.477539 3031.548584,2087.161865 3031.560791,2031.846069 
	C3031.562012,2026.516968 3031.611572,2021.151123 3031.050293,2015.864868 
	C3027.609863,1983.476929 3023.778076,1951.129517 3020.505371,1918.725098 
	C3016.820801,1882.246704 3010.038086,1846.266968 3001.231445,1810.804321 
	C2991.776367,1772.730103 2980.200439,1735.176025 2969.279785,1697.473389 
	C2937.438232,1587.543457 2905.539795,1477.629883 2873.511963,1367.753906 
	C2849.675293,1285.979004 2825.569824,1204.282593 2801.685791,1122.521484 
	C2799.313232,1114.399780 2797.647461,1106.071655 2795.563232,1097.466797 
	C2801.804688,1093.818604 2806.876953,1090.758667 2812.036377,1087.853271 
	C2857.746582,1062.114014 2886.591064,999.429138 2871.622803,944.944397 
	C2860.989502,906.238770 2838.844482,877.101257 2802.587158,859.016785 
	C2781.856201,848.676514 2759.898926,844.546997 2736.938477,844.549683 
	C2569.650635,844.569092 2402.363037,844.497009 2235.075439,844.705017 
	C2223.845215,844.718994 2212.467041,845.977539 2201.414551,848.036072 
	C2147.664062,858.047119 2102.631348,901.448975 2096.894531,961.911560 
	C2091.641113,1017.280823 2114.103271,1060.384277 2162.304199,1089.300293 
	C2166.771973,1091.980591 2171.178467,1094.763428 2175.240967,1097.268921 
	C2175.240967,1100.327515 2175.697266,1102.407227 2175.173828,1104.201050 
	C2162.500244,1147.634399 2149.713867,1191.034668 2136.965088,1234.446045 
	C2115.777588,1306.593872 2094.507080,1378.717529 2073.444092,1450.901855 
	C2043.062378,1555.022705 2013.046265,1659.250610 1982.436401,1763.304199 
	C1970.580688,1803.605347 1962.278809,1844.577759 1955.803467,1886.012695 
	C1952.001709,1910.339478 1948.482178,1934.657349 1946.909546,1959.268555 
	C1945.171753,1986.466431 1941.033936,2013.600464 1940.789429,2040.787842 
	C1940.052246,2122.755615 1940.774292,2204.735840 1940.790161,2286.711182 
	C1940.833008,2507.984131 1940.863525,2729.257324 1940.732910,2950.530273 
	C1940.716064,2979.221680 1942.976074,3007.618408 1947.464233,3035.956299 
	C1956.064209,3090.255859 1977.248901,3139.483398 2007.754639,3184.673340 
	C2037.582886,3228.859619 2075.714355,3264.777588 2121.253174,3292.687256 
	C2178.061279,3327.503662 2239.394043,3347.946777 2306.345215,3348.245605 
	C2425.643311,3348.777832 2544.945312,3348.439941 2664.245850,3348.387939 
	C2716.455078,3348.364990 2765.774170,3335.466064 2812.639404,3313.253174 
	C2878.645508,3281.967285 2931.826904,3235.695801 2970.858887,3173.769043 
	C3007.875732,3115.040283 3028.814697,3051.310303 3028.802979,2981.351074 
	C3028.801514,2971.353760 3028.830078,2961.356445 3028.830078,2951.359131 
	C3028.832275,2826.726562 3028.361816,2702.091553 3028.963379,2577.461914 
	C3029.567627,2452.213379 3026.129883,2326.935059 3031.441406,2197.793213 
z"/>
<path fill="#FCFEFE" opacity="1.000000" stroke="none" 
	d="
M3000.676270,4048.591309 
	C2970.187256,4080.589844 2933.889893,4100.048828 2892.115967,4106.302246 
	C2835.707275,4114.746094 2781.691895,4106.604004 2734.929443,4070.857666 
	C2695.157227,4040.454834 2671.649414,4000.250244 2663.516113,3950.434814 
	C2657.752686,3915.132812 2662.217041,3881.635010 2675.229736,3848.883545 
	C2694.995605,3799.135986 2730.452637,3764.184814 2779.897217,3745.265381 
	C2838.672607,3722.775879 2897.580566,3724.886719 2953.502197,3755.126953 
	C3008.689941,3784.971191 3039.486572,3832.121826 3048.661621,3894.404297 
	C3053.682617,3928.489502 3048.065918,3960.412109 3036.448486,3992.060059 
	C3028.739014,4013.061768 3015.613281,4030.538574 3000.676270,4048.591309 
M2887.236084,4030.558105 
	C2906.093506,4024.914307 2923.194092,4015.887451 2936.066895,4000.900391 
	C2964.755859,3967.500488 2971.692139,3928.363770 2960.968994,3886.760254 
	C2946.741699,3831.561523 2891.293701,3793.189209 2827.781006,3808.847656 
	C2803.254395,3814.894287 2782.691895,3827.806641 2767.973389,3849.274414 
	C2749.007324,3876.937012 2742.889893,3906.995605 2747.580078,3940.072266 
	C2755.331787,3994.737549 2808.519043,4045.538330 2874.224854,4032.882324 
	C2877.486572,4032.253906 2880.810059,4031.947510 2887.236084,4030.558105 
z"/>
<path fill="#FDFEFF" opacity="1.000000" stroke="none" 
	d="
M2423.795898,4544.161133 
	C2441.193115,4570.269043 2457.864258,4595.137695 2474.472168,4620.047852 
	C2474.699707,4620.388672 2474.128418,4621.262207 2473.464111,4623.351562 
	C2470.400635,4623.708984 2466.706299,4624.491699 2463.007812,4624.512207 
	C2441.675537,4624.631836 2420.325195,4624.065918 2399.016602,4624.783203 
	C2388.411133,4625.140137 2381.788818,4621.426270 2376.025391,4612.627441 
	C2356.681641,4583.096680 2336.673584,4554.000000 2316.868164,4524.772461 
	C2313.171875,4519.317871 2309.238281,4514.023438 2305.567871,4508.870605 
	C2285.435303,4508.870605 2266.246338,4508.870605 2245.887939,4508.870605 
	C2245.094971,4513.800781 2243.812988,4518.174316 2243.781738,4522.556152 
	C2243.590576,4549.221191 2243.746826,4575.888184 2243.637207,4602.553711 
	C2243.610352,4609.066895 2243.022705,4615.578125 2242.715576,4621.641602 
	C2227.206787,4625.275391 2185.499023,4625.666016 2165.090332,4622.447266 
	C2164.563477,4617.738281 2163.526123,4612.653320 2163.501465,4607.562988 
	C2163.347412,4575.564453 2163.416260,4543.564941 2163.415771,4511.565430 
	C2163.414551,4435.567383 2163.382568,4359.568848 2163.469727,4283.570801 
	C2163.478027,4276.410156 2162.409912,4269.040527 2165.555908,4260.960938 
	C2170.246094,4260.562988 2174.735352,4259.855957 2179.225098,4259.851562 
	C2233.223633,4259.803711 2287.226807,4259.458984 2341.219238,4260.038574 
	C2373.999268,4260.390137 2404.098633,4269.448730 2430.151855,4290.587402 
	C2441.382324,4299.699707 2449.880615,4310.640137 2455.540527,4323.464844 
	C2472.560547,4362.031250 2473.441406,4400.721680 2454.836182,4439.288086 
	C2445.191895,4459.278809 2430.020508,4473.685547 2411.066162,4484.503906 
	C2405.314209,4487.786621 2399.353760,4490.703613 2392.428467,4494.345703 
	C2394.012207,4498.284668 2394.857666,4502.112305 2396.890381,4505.143066 
	C2405.421875,4517.867188 2414.308594,4530.352539 2423.795898,4544.161133 
M2382.048828,4406.927246 
	C2383.187988,4402.424316 2384.524414,4397.960449 2385.433105,4393.411133 
	C2390.123291,4369.937500 2378.344482,4347.337402 2356.535156,4338.321777 
	C2347.275635,4334.494141 2337.661377,4332.067871 2327.460205,4332.128906 
	C2303.493652,4332.271484 2279.524902,4332.106445 2255.557861,4332.188477 
	C2252.380615,4332.199707 2249.205811,4332.924805 2245.044922,4333.441895 
	C2242.768799,4345.334473 2243.870605,4356.575195 2243.708984,4367.703125 
	C2243.544678,4379.019043 2243.313477,4390.353516 2243.775391,4401.652832 
	C2244.226318,4412.690430 2241.588867,4424.064941 2245.751221,4434.520996 
	C2258.392578,4436.407715 2330.264404,4437.639648 2340.265381,4435.738770 
	C2357.163330,4432.527344 2371.949463,4425.701172 2382.048828,4406.927246 
z"/>
<path fill="#FCFDFF" opacity="1.000000" stroke="none" 
	d="
M3143.459473,4436.182129 
	C3143.034912,4449.945801 3144.476807,4461.903320 3142.562744,4472.789551 
	C3136.241211,4478.100098 3129.988037,4476.375488 3124.221436,4476.396484 
	C3080.909180,4476.554688 3037.596191,4476.454102 2994.283447,4476.515625 
	C2987.718018,4476.524902 2981.153320,4476.951172 2973.543701,4477.221680 
	C2969.286621,4489.437500 2971.716309,4501.435059 2971.314697,4513.105957 
	C2970.903809,4525.037109 2971.223389,4536.993164 2971.223389,4547.798340 
	C2977.942871,4554.532715 2984.962891,4552.542480 2991.359131,4552.561523 
	C3042.001221,4552.715332 3092.644287,4552.630371 3143.286865,4552.665039 
	C3150.519287,4552.669922 3157.751465,4552.919434 3165.608887,4553.067871 
	C3170.577881,4564.792480 3167.769287,4576.185059 3168.254395,4587.181641 
	C3168.750488,4598.425293 3168.364258,4609.708008 3168.364258,4619.375000 
	C3162.981934,4625.907227 3157.300537,4624.492188 3152.179688,4624.512207 
	C3119.529053,4624.643066 3086.877686,4624.580078 3054.226562,4624.580566 
	C3006.915771,4624.581055 2959.604736,4624.601074 2912.293945,4624.559570 
	C2905.701416,4624.554199 2899.109375,4624.244629 2891.743408,4624.056641 
	C2890.747559,4619.515625 2889.601807,4615.826660 2889.205078,4612.059082 
	C2888.788574,4608.103516 2889.078369,4604.072266 2889.078369,4600.074219 
	C2889.075928,4494.791016 2889.062500,4389.507324 2889.107178,4284.224121 
	C2889.110107,4277.019531 2889.553467,4269.814453 2889.822021,4261.701172 
	C2894.040283,4260.941895 2897.144531,4259.898438 2900.249756,4259.895508 
	C2985.542480,4259.808594 3070.834961,4259.817383 3156.127686,4259.871582 
	C3158.745117,4259.873047 3161.362061,4260.521484 3164.379150,4260.921387 
	C3169.797852,4271.759766 3166.549072,4283.234375 3167.103516,4294.279785 
	C3167.667480,4305.515137 3167.228271,4316.800293 3167.228271,4326.633301 
	C3161.195312,4333.489258 3154.804199,4331.569824 3149.079346,4331.585938 
	C3097.770996,4331.731445 3046.461670,4331.620117 2995.153076,4331.729492 
	C2987.987793,4331.744629 2980.604980,4330.595703 2973.973633,4333.228516 
	C2970.620361,4348.192871 2970.124756,4380.272949 2972.765625,4401.234863 
	C2977.619629,4406.067383 2983.928467,4404.460938 2989.700928,4404.479004 
	C3033.679688,4404.617188 3077.658936,4404.517090 3121.638184,4404.599609 
	C3128.133789,4404.611816 3134.628418,4405.189453 3141.404541,4405.519043 
	C3144.887939,4415.771973 3142.820801,4425.140137 3143.459473,4436.182129 
z"/>
<path fill="#FCFDFF" opacity="1.000000" stroke="none" 
	d="
M3628.000000,3808.477051 
	C3596.121582,3808.556641 3566.235352,3808.288818 3537.115234,3808.660156 
	C3535.194092,3812.043945 3533.424072,3813.724121 3533.392578,3815.436523 
	C3533.039551,3834.739746 3532.750244,3854.049561 3532.901855,3873.353760 
	C3532.957275,3880.403320 3535.718262,3882.793457 3542.769287,3883.266113 
	C3548.079346,3883.622070 3553.425293,3883.500977 3558.755127,3883.503174 
	C3600.076416,3883.518311 3641.397705,3883.468262 3682.718994,3883.557129 
	C3689.213135,3883.571045 3695.706055,3884.185547 3703.145020,3884.571045 
	C3706.249512,3908.126221 3704.111084,3930.399414 3704.524658,3951.208008 
	C3697.317139,3956.900879 3691.092773,3955.358398 3685.272217,3955.376221 
	C3641.951904,3955.508301 3598.630859,3955.434082 3555.310059,3955.463379 
	C3548.743408,3955.467773 3542.176758,3955.674316 3536.059570,3955.779785 
	C3531.793701,3970.401611 3531.306641,4009.304932 3534.827881,4028.322510 
	C3540.911377,4033.645752 3548.567871,4031.540283 3555.618408,4031.565186 
	C3606.270020,4031.743408 3656.922119,4031.638428 3707.574219,4031.685791 
	C3714.768799,4031.692627 3721.962891,4032.038086 3728.718750,4032.215576 
	C3732.625244,4047.097900 3733.155518,4080.269043 3730.000244,4101.636719 
	C3726.592773,4102.229004 3722.828125,4103.450195 3719.062256,4103.455078 
	C3634.420166,4103.562988 3549.777832,4103.547852 3465.135742,4103.491211 
	C3461.904053,4103.489258 3458.672852,4102.840820 3456.083008,4102.562500 
	C3450.764893,4096.758789 3452.541260,4090.465088 3452.521484,4084.701660 
	C3452.366943,4039.381836 3452.435303,3994.061523 3452.435303,3948.741211 
	C3452.435547,3886.092773 3452.388916,3823.444092 3452.500244,3760.795654 
	C3452.512939,3753.612061 3451.310303,3746.224609 3454.419922,3738.173584 
	C3457.483154,3737.651123 3460.619141,3736.652100 3463.755859,3736.648926 
	C3547.731445,3736.563721 3631.707275,3736.570068 3715.682861,3736.623047 
	C3718.911377,3736.625000 3722.139404,3737.245361 3726.281738,3737.671631 
	C3730.404541,3748.998779 3728.030029,3760.353027 3728.397461,3771.384033 
	C3728.771484,3782.616211 3728.301025,3793.876221 3728.212646,3803.760742 
	C3722.751221,3809.771729 3717.107422,3808.376709 3711.976074,3808.403809 
	C3684.651367,3808.548096 3657.325439,3808.474609 3628.000000,3808.477051 
z"/>
<path fill="#FCFEFF" opacity="1.000000" stroke="none" 
	d="
M2668.064697,4331.669922 
	C2651.602051,4332.136719 2637.020508,4330.658691 2623.005127,4332.576660 
	C2619.630859,4348.217285 2619.184570,4380.113770 2621.781250,4401.227051 
	C2626.531982,4406.300781 2632.889648,4404.452637 2638.621826,4404.472656 
	C2682.617188,4404.628906 2726.613525,4404.488281 2770.608887,4404.637207 
	C2777.097168,4404.658691 2783.926758,4403.027344 2789.903564,4406.717773 
	C2793.238037,4422.416016 2793.311279,4457.056152 2789.849121,4475.210449 
	C2784.440674,4475.615234 2778.646484,4476.409668 2772.850342,4476.424316 
	C2730.188232,4476.532227 2687.524902,4476.407227 2644.862793,4476.558105 
	C2637.692627,4476.583496 2630.218750,4475.041992 2623.585205,4478.692871 
	C2619.407471,4492.227539 2618.774902,4528.755371 2622.339355,4550.234863 
	C2628.051514,4554.300293 2634.919678,4552.554688 2641.353516,4552.571777 
	C2692.681396,4552.709473 2744.010254,4552.636719 2795.338623,4552.666016 
	C2800.666016,4552.668945 2806.016602,4552.654297 2811.313965,4553.123535 
	C2815.807129,4553.521484 2818.885498,4556.462891 2818.971924,4560.927734 
	C2819.367920,4581.394531 2820.685791,4601.913086 2818.061035,4622.688965 
	C2814.493652,4623.437988 2811.979980,4624.425293 2809.465576,4624.427734 
	C2720.857422,4624.507324 2632.249512,4624.494141 2542.863770,4624.494141 
	C2541.798828,4619.775391 2540.572021,4616.101074 2540.223145,4612.345215 
	C2539.792725,4607.717773 2540.081299,4603.021973 2540.081299,4598.355957 
	C2540.078857,4493.699219 2540.067871,4389.042480 2540.104980,4284.385742 
	C2540.107666,4277.168945 2540.474121,4269.951660 2540.694824,4261.870605 
	C2544.822510,4261.057129 2547.927979,4259.914062 2551.034180,4259.910645 
	C2635.692627,4259.814941 2720.351318,4259.827148 2805.009766,4259.880371 
	C2807.612549,4259.881836 2810.214600,4260.512207 2813.472656,4260.934570 
	C2818.584229,4271.749023 2815.484619,4283.187012 2816.015625,4294.201172 
	C2816.558594,4305.462891 2816.135742,4316.771973 2816.135742,4326.752930 
	C2810.151855,4333.347656 2803.785889,4331.568848 2798.037842,4331.589355 
	C2755.375732,4331.738281 2712.712891,4331.670410 2668.064697,4331.669922 
z"/>
<path fill="#FCFEFE" opacity="1.000000" stroke="none" 
	d="
M1755.464844,3735.415039 
	C1764.637695,3735.414551 1771.910522,3735.414551 1780.001465,3735.414551 
	C1792.076416,3759.880859 1801.237427,3784.830078 1811.994019,3809.045410 
	C1822.798340,3833.368164 1832.874023,3858.015381 1843.237793,3882.533203 
	C1853.342407,3906.438232 1863.322021,3930.396729 1873.514038,3954.264404 
	C1883.969482,3978.749023 1894.988281,4002.999756 1905.072754,4027.634521 
	C1915.065430,4052.044189 1926.915039,4075.763184 1935.547607,4101.115234 
	C1919.189087,4104.075195 1874.080811,4104.434082 1853.892090,4102.042969 
	C1844.134033,4087.920410 1839.808228,4070.947021 1832.736084,4055.256592 
	C1828.912476,4046.773438 1825.886963,4037.934082 1822.292603,4029.342773 
	C1820.067261,4024.023926 1816.096558,4020.782715 1810.055176,4020.649658 
	C1807.391602,4020.591064 1804.728149,4020.488525 1802.064575,4020.487793 
	C1760.760864,4020.479248 1719.457153,4020.457764 1678.153564,4020.527832 
	C1674.221924,4020.534424 1670.291260,4021.131836 1665.189575,4021.551270 
	C1653.972900,4048.437012 1642.752075,4075.332520 1631.900269,4101.343750 
	C1611.719116,4104.653809 1567.243164,4104.270508 1553.026245,4100.873535 
	C1552.926880,4099.072754 1552.149658,4096.878906 1552.811157,4095.280762 
	C1602.435181,3975.405518 1653.992432,3856.356689 1704.635742,3737.165771 
	C1721.714600,3733.954346 1737.698608,3736.031738 1755.464844,3735.415039 
M1746.049316,3841.466064 
	C1744.687500,3840.184082 1743.325684,3838.902100 1741.271240,3836.968018 
	C1733.463623,3848.438232 1730.345703,3861.415771 1725.067017,3873.364990 
	C1719.713623,3885.483643 1714.159180,3897.564209 1709.754639,3910.036377 
	C1705.466797,3922.177979 1697.761719,3933.356445 1697.468872,3947.307129 
	C1708.098022,3949.977295 1718.066040,3948.507812 1727.915405,3948.749268 
	C1737.855591,3948.993164 1747.814819,3949.056641 1757.750244,3948.729980 
	C1767.327881,3948.415283 1777.205933,3950.374268 1787.945435,3946.324707 
	C1775.931885,3910.752686 1759.735718,3878.119141 1746.049316,3841.466064 
z"/>
<path fill="#FCFDFE" opacity="1.000000" stroke="none" 
	d="
M3106.978027,4060.842773 
	C3102.496582,4056.869873 3099.125488,4053.817383 3095.389893,4050.434814 
	C3100.633789,4039.407959 3108.335205,4031.013916 3115.981445,4022.991455 
	C3124.583496,4013.965820 3129.837891,4001.703613 3142.258789,3994.869629 
	C3147.312744,3997.999023 3152.572754,4000.754639 3157.277100,4004.256592 
	C3177.356934,4019.203369 3199.508301,4029.623779 3224.096680,4034.225586 
	C3243.235107,4037.807373 3262.512451,4038.572998 3281.193359,4031.445801 
	C3290.156738,4028.025879 3296.952393,4022.527832 3300.950684,4013.028076 
	C3306.550293,3999.724609 3299.931641,3982.043945 3288.760254,3976.540283 
	C3282.208252,3973.312012 3275.706299,3969.734375 3268.793213,3967.535645 
	C3251.060303,3961.896484 3233.116455,3956.919434 3215.246094,3951.715576 
	C3196.068115,3946.131104 3176.810547,3940.701904 3159.101562,3931.184082 
	C3126.446533,3913.633789 3108.924805,3886.694336 3108.161865,3849.144531 
	C3107.805420,3831.592529 3109.757812,3814.588379 3117.057617,3798.499512 
	C3131.544678,3766.569580 3157.090820,3747.440674 3189.960449,3738.081543 
	C3248.358398,3721.454102 3326.434814,3738.051758 3371.179932,3778.831787 
	C3360.739014,3799.143555 3345.682373,3816.710205 3333.569336,3834.801270 
	C3326.313232,3837.909912 3322.147949,3834.070557 3317.679199,3831.311768 
	C3298.284668,3819.337891 3277.911133,3809.575195 3255.319336,3805.483887 
	C3240.830566,3802.859863 3226.140625,3801.854248 3212.006836,3807.364014 
	C3207.165039,3809.251709 3202.212891,3811.806641 3198.423828,3815.272949 
	C3185.010742,3827.544189 3185.123535,3844.803223 3198.233398,3857.424072 
	C3206.137451,3865.033203 3216.088867,3869.000000 3226.305176,3872.080566 
	C3244.125977,3877.454102 3262.031250,3882.575195 3280.014648,3887.375977 
	C3297.468506,3892.035400 3313.958740,3898.919434 3330.162354,3906.814941 
	C3344.285645,3913.696777 3355.512695,3923.852783 3365.610352,3935.508545 
	C3375.072998,3946.431152 3379.706055,3959.628906 3382.001709,3973.556885 
	C3389.076416,4016.476074 3375.811279,4064.106201 3330.449707,4089.721680 
	C3312.280518,4099.981445 3292.296143,4105.649902 3271.605469,4107.468750 
	C3223.287109,4111.716309 3177.470459,4102.652832 3134.873047,4079.099854 
	C3125.588379,4073.966064 3116.998291,4067.575195 3106.978027,4060.842773 
z"/>
<path fill="#FCFEFE" opacity="1.000000" stroke="none" 
	d="
M2202.217773,3821.139648 
	C2183.934326,3810.103271 2164.808838,3805.440674 2145.649170,3805.307373 
	C2114.447021,3805.089844 2086.945801,3816.587402 2066.121094,3840.644531 
	C2048.068848,3861.497803 2038.922729,3886.010986 2038.886597,3913.854492 
	C2038.862427,3932.594971 2039.625732,3951.002441 2047.284790,3968.650146 
	C2062.379639,4003.430176 2086.988037,4025.762207 2125.176270,4032.922852 
	C2155.007080,4038.516357 2181.974854,4032.275879 2207.135254,4016.724121 
	C2218.340820,4009.798340 2228.604492,4001.348633 2240.072266,3993.027100 
	C2250.567139,3999.335449 2256.172852,4010.504395 2264.923096,4018.440430 
	C2273.202393,4025.948730 2281.548340,4033.633545 2288.396240,4043.309082 
	C2285.640137,4050.903076 2279.283691,4055.019775 2274.268311,4060.077393 
	C2269.591553,4064.793701 2264.635986,4069.341797 2259.294434,4073.272705 
	C2229.537598,4095.172363 2196.238281,4107.296875 2159.183838,4108.297363 
	C2137.235596,4108.890137 2115.264893,4109.542969 2093.674561,4103.924805 
	C2055.928467,4094.101807 2023.977051,4075.154785 1998.259766,4045.517578 
	C1979.067871,4023.400635 1966.393921,3998.087891 1959.230591,3969.980957 
	C1940.496948,3896.475830 1963.138184,3817.379883 2027.054077,3768.329102 
	C2056.786377,3745.512207 2091.120850,3733.273682 2128.821777,3731.851562 
	C2156.816650,3730.795898 2184.705811,3731.142822 2211.804688,3740.070801 
	C2238.789551,3748.961182 2262.769287,3762.757080 2283.372559,3782.333008 
	C2284.742676,3783.634766 2285.526611,3785.553711 2286.512695,3787.076660 
	C2276.542969,3803.318604 2250.663330,3832.582275 2235.977539,3844.019043 
	C2225.338867,3836.767578 2214.426025,3829.329590 2202.217773,3821.139648 
z"/>
<path fill="#FDFEFF" opacity="1.000000" stroke="none" 
	d="
M1916.862061,4483.892090 
	C1911.077515,4484.243164 1907.186646,4484.592285 1902.040894,4485.054688 
	C1901.442993,4490.615723 1900.443481,4495.702148 1900.422119,4500.793457 
	C1900.280518,4534.761719 1900.399536,4568.731934 1900.301270,4602.701172 
	C1900.282593,4609.187988 1899.674072,4615.672852 1899.283081,4623.213867 
	C1873.039185,4625.914551 1848.067017,4624.055176 1824.465820,4624.419922 
	C1818.552124,4617.625000 1820.196167,4611.364746 1820.170776,4605.576660 
	C1820.012817,4569.609863 1820.088379,4533.642090 1820.088013,4497.674316 
	C1820.087402,4426.405273 1820.066528,4355.135742 1820.120850,4283.866699 
	C1820.126221,4276.692383 1820.589844,4269.518555 1820.875488,4261.352051 
	C1845.230591,4258.187500 1868.412231,4260.250488 1891.486572,4259.875977 
	C1914.126953,4259.508301 1936.777832,4259.795898 1959.424194,4259.795898 
	C1982.736572,4259.795898 2006.049561,4259.679199 2029.360962,4259.829590 
	C2051.845947,4259.975098 2074.369385,4259.120605 2096.409912,4260.443359 
	C2100.162598,4275.771484 2100.680420,4306.710938 2097.851318,4329.199707 
	C2092.416748,4334.366699 2085.414551,4332.220703 2079.051514,4332.241699 
	C2027.098633,4332.412598 1975.145142,4332.319336 1923.191772,4332.364258 
	C1916.626465,4332.369629 1910.061523,4332.713379 1902.563843,4332.926758 
	C1901.727661,4337.502930 1900.494141,4341.238770 1900.453735,4344.987305 
	C1900.260010,4362.968750 1900.196045,4380.956543 1900.481812,4398.936035 
	C1900.633423,4408.486816 1903.003662,4410.668457 1912.281372,4411.206543 
	C1916.929565,4411.476074 1921.603394,4411.323730 1926.265625,4411.324219 
	C1968.893921,4411.331055 2011.522461,4411.290039 2054.150635,4411.369629 
	C2060.642090,4411.381836 2067.353027,4410.364258 2073.204102,4413.163574 
	C2076.398193,4429.467285 2076.587891,4463.339844 2073.708252,4481.199707 
	C2068.661133,4485.532715 2062.395508,4483.786133 2056.631592,4483.805176 
	C2010.673462,4483.959961 1964.714478,4483.890625 1916.862061,4483.892090 
z"/>
<path fill="#FCFDFF" opacity="1.000000" stroke="none" 
	d="
M2439.946289,3832.635254 
	C2439.651855,3825.486328 2439.357178,3820.259766 2439.001221,3813.947998 
	C2434.043213,3813.217285 2429.642334,3812.040039 2425.233154,3812.006836 
	C2400.585449,3811.820557 2375.935791,3811.947021 2351.286621,3811.883057 
	C2344.701660,3811.866211 2338.117188,3811.556885 2331.123779,3811.371094 
	C2325.895020,3799.123047 2328.745605,3787.051514 2328.462646,3775.365967 
	C2328.174805,3763.495361 2327.220459,3751.500000 2329.444824,3739.549316 
	C2336.414795,3734.811035 2343.955322,3736.661865 2351.028076,3736.643799 
	C2412.983154,3736.484619 2474.939209,3736.550537 2536.894775,3736.550293 
	C2560.877686,3736.550049 2584.860352,3736.513184 2608.843262,3736.574951 
	C2615.428467,3736.592041 2622.012939,3736.905029 2629.197510,3737.098389 
	C2634.438477,3749.197998 2631.448242,3761.256592 2631.919678,3772.910645 
	C2632.400391,3784.797852 2631.916748,3796.723877 2631.849854,3809.652832 
	C2626.292725,3810.524658 2621.906982,3811.774170 2617.511719,3811.809326 
	C2592.864258,3812.004395 2568.214355,3811.906738 2543.565430,3811.908691 
	C2536.962891,3811.909180 2530.360352,3811.908691 2524.998291,3811.908691 
	C2518.758789,3818.140381 2520.477295,3824.464355 2520.458496,3830.229248 
	C2520.312988,3874.863525 2520.377197,3919.498535 2520.376953,3964.133301 
	C2520.376465,4003.438477 2520.447021,4042.743896 2520.306152,4082.048584 
	C2520.283203,4088.511963 2521.840820,4095.317139 2518.286621,4101.179199 
	C2501.850830,4104.310547 2459.955078,4104.438965 2441.827393,4101.344727 
	C2438.729248,4094.898193 2440.020996,4087.489014 2440.011963,4080.381592 
	C2439.909424,3998.440186 2439.946533,3916.498779 2439.946289,3832.635254 
z"/>
<path fill="#FBFDFE" opacity="1.000000" stroke="none" 
	d="
M1338.965210,3816.002930 
	C1339.116699,3885.910156 1339.262207,3953.817871 1339.478027,4021.725586 
	C1339.481934,4022.950928 1340.325806,4024.173584 1340.883545,4025.684082 
	C1346.416138,4030.455322 1353.354248,4028.665283 1359.783203,4028.686768 
	C1405.726929,4028.837891 1451.671509,4028.736816 1497.615723,4028.806885 
	C1504.139282,4028.816650 1510.661987,4029.317627 1516.780151,4029.574463 
	C1520.990479,4044.977539 1521.240356,4084.337891 1517.465332,4101.632324 
	C1515.857666,4102.162598 1514.024780,4103.294434 1512.190552,4103.296387 
	C1429.627075,4103.382812 1347.063232,4103.380859 1264.499634,4103.294434 
	C1262.661011,4103.292480 1260.823608,4102.194336 1259.773315,4101.858887 
	C1258.647949,4100.778809 1258.047363,4100.388184 1257.721069,4099.836426 
	C1257.395508,4099.285156 1257.196045,4098.571777 1257.194824,4097.928711 
	C1256.968628,3981.423340 1256.757812,3864.918213 1256.605347,3748.412842 
	C1256.601807,3745.789307 1257.209473,3743.154541 1257.668701,3740.549072 
	C1257.766846,3739.992188 1258.461060,3739.540039 1258.880859,3739.039795 
	C1274.432251,3735.597900 1319.836060,3735.560791 1335.526611,3738.976562 
	C1336.260864,3740.064697 1337.612427,3741.139404 1337.636963,3742.243652 
	C1338.169312,3766.161621 1338.553589,3790.082764 1338.965210,3816.002930 
z"/>
<path fill="#74B2FF" opacity="1.000000" stroke="none" 
	d="
M3031.419922,2199.755127 
	C3026.129883,2326.935059 3029.567627,2452.213379 3028.963379,2577.461914 
	C3028.361816,2702.091553 3028.832275,2826.726562 3028.830078,2951.359131 
	C3028.830078,2961.356445 3028.801514,2971.353760 3028.802979,2981.351074 
	C3028.814697,3051.310303 3007.875732,3115.040283 2970.858887,3173.769043 
	C2931.826904,3235.695801 2878.645508,3281.967285 2812.639404,3313.253174 
	C2765.774170,3335.466064 2716.455078,3348.364990 2664.245850,3348.387939 
	C2544.945312,3348.439941 2425.643311,3348.777832 2306.345215,3348.245605 
	C2239.394043,3347.946777 2178.061279,3327.503662 2121.253174,3292.687256 
	C2075.714355,3264.777588 2037.582886,3228.859619 2007.754639,3184.673340 
	C1977.248901,3139.483398 1956.064209,3090.255859 1947.464233,3035.956299 
	C1942.976074,3007.618408 1940.716064,2979.221680 1940.732910,2950.530273 
	C1940.863525,2729.257324 1940.833008,2507.984131 1940.790161,2286.711182 
	C1940.774292,2204.735840 1940.052246,2122.755615 1940.789429,2040.787842 
	C1941.033936,2013.600464 1945.171753,1986.466431 1946.909546,1959.268555 
	C1948.482178,1934.657349 1952.001709,1910.339478 1955.803467,1886.012695 
	C1962.278809,1844.577759 1970.580688,1803.605347 1982.436401,1763.304199 
	C2013.046265,1659.250610 2043.062378,1555.022705 2073.444092,1450.901855 
	C2094.507080,1378.717529 2115.777588,1306.593872 2136.965088,1234.446045 
	C2149.713867,1191.034668 2162.500244,1147.634399 2175.173828,1104.201050 
	C2175.697266,1102.407227 2175.240967,1100.327515 2175.240967,1097.268921 
	C2171.178467,1094.763428 2166.771973,1091.980591 2162.304199,1089.300293 
	C2114.103271,1060.384277 2091.641113,1017.280823 2096.894531,961.911560 
	C2102.631348,901.448975 2147.664062,858.047119 2201.414551,848.036072 
	C2212.467041,845.977539 2223.845215,844.718994 2235.075439,844.705017 
	C2402.363037,844.497009 2569.650635,844.569092 2736.938477,844.549683 
	C2759.898926,844.546997 2781.856201,848.676514 2802.587158,859.016785 
	C2838.844482,877.101257 2860.989502,906.238770 2871.622803,944.944397 
	C2886.591064,999.429138 2857.746582,1062.114014 2812.036377,1087.853271 
	C2806.876953,1090.758667 2801.804688,1093.818604 2795.563232,1097.466797 
	C2797.647461,1106.071655 2799.313232,1114.399780 2801.685791,1122.521484 
	C2825.569824,1204.282593 2849.675293,1285.979004 2873.511963,1367.753906 
	C2905.539795,1477.629883 2937.438232,1587.543457 2969.279785,1697.473389 
	C2980.200439,1735.176025 2991.776367,1772.730103 3001.231445,1810.804321 
	C3010.038086,1846.266968 3016.820801,1882.246704 3020.505371,1918.725098 
	C3023.778076,1951.129517 3027.609863,1983.476929 3031.050293,2015.864868 
	C3031.611572,2021.151123 3031.562012,2026.516968 3031.560791,2031.846069 
	C3031.548584,2087.161865 3031.488281,2142.477539 3031.419922,2199.755127 
M2722.519531,3253.003662 
	C2735.790283,3248.666260 2749.438477,3245.229004 2762.269775,3239.844238 
	C2840.062012,3207.197754 2893.755127,3150.896729 2924.320312,3072.486816 
	C2938.027588,3037.322021 2943.168945,3000.453369 2943.245361,2962.957764 
	C2943.816895,2681.715332 2944.258301,2400.471924 2944.499512,2119.229004 
	C2944.534912,2077.969238 2944.810303,2036.744385 2940.957031,1995.477783 
	C2937.614258,1959.681519 2932.875488,1924.142700 2927.804443,1888.606079 
	C2926.094238,1876.620239 2923.160156,1873.777954 2911.501221,1872.250488 
	C2889.740967,1869.400024 2868.267822,1867.859741 2846.029297,1870.896118 
	C2810.178711,1875.791138 2775.404785,1883.768066 2741.773438,1896.879028 
	C2702.566895,1912.163208 2665.924316,1932.773804 2628.754883,1952.204834 
	C2580.952881,1977.194458 2533.760254,2003.328491 2484.714600,2025.910645 
	C2440.504395,2046.266357 2395.629150,2064.732666 2348.634033,2077.737305 
	C2305.474609,2089.680908 2261.875244,2097.577148 2216.751953,2096.537109 
	C2186.065918,2095.829834 2155.713623,2093.422852 2125.401855,2088.570312 
	C2096.363281,2083.921387 2068.469482,2075.143066 2040.220093,2067.564209 
	C2036.731323,2066.628174 2033.031006,2066.480469 2028.281372,2065.803955 
	C2028.058350,2075.236572 2027.686035,2083.167236 2027.711914,2091.096924 
	C2027.924561,2156.408691 2028.411011,2221.720215 2028.439331,2287.031982 
	C2028.534668,2507.629883 2028.467529,2728.227783 2028.489624,2948.825684 
	C2028.491577,2968.116943 2028.892456,2987.296875 2031.286377,3006.585449 
	C2038.475586,3064.509521 2060.380127,3116.214355 2098.625488,3159.697266 
	C2156.463379,3225.455078 2229.105469,3261.156982 2318.114502,3260.870850 
	C2430.078369,3260.511230 2542.044434,3260.754150 2654.009521,3260.803955 
	C2676.042969,3260.813965 2697.952148,3259.919922 2722.519531,3253.003662 
z"/>
<path fill="#75B3FF" opacity="1.000000" stroke="none" 
	d="
M2885.670410,4031.024658 
	C2880.810059,4031.947510 2877.486572,4032.253906 2874.224854,4032.882324 
	C2808.519043,4045.538330 2755.331787,3994.737549 2747.580078,3940.072266 
	C2742.889893,3906.995605 2749.007324,3876.937012 2767.973389,3849.274414 
	C2782.691895,3827.806641 2803.254395,3814.894287 2827.781006,3808.847656 
	C2891.293701,3793.189209 2946.741699,3831.561523 2960.968994,3886.760254 
	C2971.692139,3928.363770 2964.755859,3967.500488 2936.066895,4000.900391 
	C2923.194092,4015.887451 2906.093506,4024.914307 2885.670410,4031.024658 
z"/>
<path fill="#75B3FF" opacity="1.000000" stroke="none" 
	d="
M2381.358887,4408.292969 
	C2371.949463,4425.701172 2357.163330,4432.527344 2340.265381,4435.738770 
	C2330.264404,4437.639648 2258.392578,4436.407715 2245.751221,4434.520996 
	C2241.588867,4424.064941 2244.226318,4412.690430 2243.775391,4401.652832 
	C2243.313477,4390.353516 2243.544678,4379.019043 2243.708984,4367.703125 
	C2243.870605,4356.575195 2242.768799,4345.334473 2245.044922,4333.441895 
	C2249.205811,4332.924805 2252.380615,4332.199707 2255.557861,4332.188477 
	C2279.524902,4332.106445 2303.493652,4332.271484 2327.460205,4332.128906 
	C2337.661377,4332.067871 2347.275635,4334.494141 2356.535156,4338.321777 
	C2378.344482,4347.337402 2390.123291,4369.937500 2385.433105,4393.411133 
	C2384.524414,4397.960449 2383.187988,4402.424316 2381.358887,4408.292969 
z"/>
<path fill="#75B3FF" opacity="1.000000" stroke="none" 
	d="
M1746.658936,3842.759277 
	C1759.735718,3878.119141 1775.931885,3910.752686 1787.945435,3946.324707 
	C1777.205933,3950.374268 1767.327881,3948.415283 1757.750244,3948.729980 
	C1747.814819,3949.056641 1737.855591,3948.993164 1727.915405,3948.749268 
	C1718.066040,3948.507812 1708.098022,3949.977295 1697.468872,3947.307129 
	C1697.761719,3933.356445 1705.466797,3922.177979 1709.754639,3910.036377 
	C1714.159180,3897.564209 1719.713623,3885.483643 1725.067017,3873.364990 
	C1730.345703,3861.415771 1733.463623,3848.438232 1741.271240,3836.968018 
	C1743.325684,3838.902100 1744.687500,3840.184082 1746.658936,3842.759277 
z"/>
<path fill="#FFFFFF" opacity="1.000000" stroke="none" 
	d="
M2720.942871,3253.535156 
	C2697.952148,3259.919922 2676.042969,3260.813965 2654.009521,3260.803955 
	C2542.044434,3260.754150 2430.078369,3260.511230 2318.114502,3260.870850 
	C2229.105469,3261.156982 2156.463379,3225.455078 2098.625488,3159.697266 
	C2060.380127,3116.214355 2038.475586,3064.509521 2031.286377,3006.585449 
	C2028.892456,2987.296875 2028.491577,2968.116943 2028.489624,2948.825684 
	C2028.467529,2728.227783 2028.534668,2507.629883 2028.439331,2287.031982 
	C2028.411011,2221.720215 2027.924561,2156.408691 2027.711914,2091.096924 
	C2027.686035,2083.167236 2028.058350,2075.236572 2028.281372,2065.803955 
	C2033.031006,2066.480469 2036.731323,2066.628174 2040.220093,2067.564209 
	C2068.469482,2075.143066 2096.363281,2083.921387 2125.401855,2088.570312 
	C2155.713623,2093.422852 2186.065918,2095.829834 2216.751953,2096.537109 
	C2261.875244,2097.577148 2305.474609,2089.680908 2348.634033,2077.737305 
	C2395.629150,2064.732666 2440.504395,2046.266357 2484.714600,2025.910645 
	C2533.760254,2003.328491 2580.952881,1977.194458 2628.754883,1952.204834 
	C2665.924316,1932.773804 2702.566895,1912.163208 2741.773438,1896.879028 
	C2775.404785,1883.768066 2810.178711,1875.791138 2846.029297,1870.896118 
	C2868.267822,1867.859741 2889.740967,1869.400024 2911.501221,1872.250488 
	C2923.160156,1873.777954 2926.094238,1876.620239 2927.804443,1888.606079 
	C2932.875488,1924.142700 2937.614258,1959.681519 2940.957031,1995.477783 
	C2944.810303,2036.744385 2944.534912,2077.969238 2944.499512,2119.229004 
	C2944.258301,2400.471924 2943.816895,2681.715332 2943.245361,2962.957764 
	C2943.168945,3000.453369 2938.027588,3037.322021 2924.320312,3072.486816 
	C2893.755127,3150.896729 2840.062012,3207.197754 2762.269775,3239.844238 
	C2749.438477,3245.229004 2735.790283,3248.666260 2720.942871,3253.535156 
z"/>
</svg>