<svg version="1.1" id="Layer_1" xmlns="http://www.w3.org/2000/svg" xmlns:xlink="http://www.w3.org/1999/xlink" x="0px" y="0px"
	 width="100%" viewBox="0 0 1278 1282" enable-background="new 0 0 1278 1282" xml:space="preserve">
<path fill="#FEFFFF" opacity="1.000000" stroke="none" 
	d="
M1279.000000,451.000000 
	C1279.000000,728.666626 1279.000000,1005.833252 1279.000000,1283.000000 
	C853.000122,1283.000000 427.000244,1283.000000 1.000283,1283.000000 
	C1.000189,855.666870 1.000189,428.333740 1.000094,1.000455 
	C426.999725,1.000303 852.999451,1.000303 1278.999512,1.000152 
	C1279.000000,150.833328 1279.000000,300.666656 1279.000000,451.000000 
M20.339628,762.159058 
	C20.783989,764.274841 21.230097,766.390259 21.672472,768.506470 
	C38.835213,850.609558 71.168571,926.295044 119.082993,995.071289 
	C198.861267,1109.584595 304.736786,1190.036743 436.953156,1235.050659 
	C526.188477,1265.431274 617.876343,1274.224487 711.493591,1263.281494 
	C784.878845,1254.703369 854.520569,1233.620117 920.330811,1200.191406 
	C1003.973694,1157.704712 1074.670776,1099.312256 1132.550415,1025.463257 
	C1165.501587,983.420532 1192.717651,937.908264 1213.898438,888.879822 
	C1255.744629,792.016174 1271.843384,690.899841 1263.243774,585.792969 
	C1257.541504,516.096802 1240.588745,449.228821 1212.043335,385.415710 
	C1158.217041,265.086823 1075.038330,170.200241 962.555603,101.625008 
	C858.816711,38.380470 745.752502,8.430779 624.203186,10.693464 
	C577.211792,11.568228 530.905457,17.475605 485.316315,28.958820 
	C366.893921,58.787647 265.551880,118.083015 181.363159,206.351547 
	C111.730843,279.358246 62.664471,364.520020 33.855713,461.268402 
	C16.282841,520.283264 7.984336,580.672058 8.228093,642.165771 
	C8.386861,682.219177 12.347443,721.989807 20.339628,762.159058 
z"/>
<path fill="#038755" opacity="1.000000" stroke="none" 
	d="
M20.263252,761.740417 
	C12.347443,721.989807 8.386861,682.219177 8.228093,642.165771 
	C7.984336,580.672058 16.282841,520.283264 33.855713,461.268402 
	C62.664471,364.520020 111.730843,279.358246 181.363159,206.351547 
	C265.551880,118.083015 366.893921,58.787647 485.316315,28.958820 
	C530.905457,17.475605 577.211792,11.568228 624.203186,10.693464 
	C745.752502,8.430779 858.816711,38.380470 962.555603,101.625008 
	C1075.038330,170.200241 1158.217041,265.086823 1212.043335,385.415710 
	C1240.588745,449.228821 1257.541504,516.096802 1263.243774,585.792969 
	C1271.843384,690.899841 1255.744629,792.016174 1213.898438,888.879822 
	C1192.717651,937.908264 1165.501587,983.420532 1132.550415,1025.463257 
	C1074.670776,1099.312256 1003.973694,1157.704712 920.330811,1200.191406 
	C854.520569,1233.620117 784.878845,1254.703369 711.493591,1263.281494 
	C617.876343,1274.224487 526.188477,1265.431274 436.953156,1235.050659 
	C304.736786,1190.036743 198.861267,1109.584595 119.082993,995.071289 
	C71.168571,926.295044 38.835213,850.609558 21.672472,768.506470 
	C21.230097,766.390259 20.783989,764.274841 20.263252,761.740417 
M1083.251343,308.255981 
	C1026.070679,231.688339 954.209595,173.030731 867.322388,133.352432 
	C767.569153,87.798645 663.012512,73.183647 554.629883,89.456154 
	C435.402435,107.356911 332.727661,159.362900 246.757767,243.772430 
	C182.118958,307.237976 135.887314,382.361237 107.905426,468.588074 
	C84.769112,539.883179 76.874535,612.944275 83.204361,687.557556 
	C86.780380,729.710083 95.295891,770.897339 108.374519,811.132812 
	C111.189026,819.791321 109.652214,818.496887 118.576889,818.497803 
	C464.860718,818.532532 811.144531,818.516968 1157.428345,818.631836 
	C1161.969971,818.633362 1163.704712,817.090759 1165.033569,812.934998 
	C1179.197510,768.635437 1188.178467,723.399292 1191.395142,676.942261 
	C1194.882568,626.573914 1191.622070,576.690674 1181.466064,527.329407 
	C1165.007690,447.335907 1132.254761,374.510834 1083.251343,308.255981 
M923.429016,972.501038 
	C923.429016,966.397156 923.429016,960.293335 923.429016,954.039551 
	C914.464539,954.039551 906.209534,954.039551 898.256226,954.039551 
	C898.256226,982.020630 898.256226,1009.695129 898.256226,1037.415771 
	C897.917908,1036.791504 897.476929,1035.993774 897.050476,1035.188354 
	C883.270813,1009.162842 869.511597,983.126526 855.658936,957.139893 
	C854.951477,955.812683 853.466858,953.985596 852.305908,953.957397 
	C842.042358,953.707703 831.770203,953.812439 821.221252,953.812439 
	C821.221252,995.291443 821.221252,1036.164551 821.221252,1077.099365 
	C829.888489,1077.099365 838.243225,1077.099365 846.387573,1077.099365 
	C846.387573,1047.396362 846.387573,1018.182495 846.387573,988.218567 
	C847.089966,989.398071 847.504761,990.028931 847.855835,990.693420 
	C862.551880,1018.506592 877.226318,1046.331299 891.982178,1074.112671 
	C892.688416,1075.442383 894.080688,1077.339722 895.199097,1077.371460 
	C904.453979,1077.635132 913.719604,1077.520630 923.428650,1077.520630 
	C923.428650,1042.397583 923.428650,1007.949158 923.429016,972.501038 
M640.524414,952.272400 
	C638.527100,952.353210 636.526306,952.383667 634.533020,952.522644 
	C617.292297,953.724731 601.270264,958.452881 588.556458,970.677185 
	C571.151367,987.411987 566.988159,1008.502808 571.171936,1031.366821 
	C575.356812,1054.237305 589.029236,1069.366333 611.588257,1075.553101 
	C632.778625,1081.364502 653.841919,1079.075562 674.730530,1073.221680 
	C678.149475,1072.263428 679.080566,1070.681763 679.047424,1067.296631 
	C678.882263,1050.466797 678.964233,1033.634644 678.959656,1016.803223 
	C678.958740,1013.512085 678.959534,1010.220947 678.959534,1006.620972 
	C663.382690,1006.620972 648.324951,1006.620972 633.210571,1006.620972 
	C633.210571,1014.005127 633.210571,1021.058716 633.210571,1028.470581 
	C638.395996,1028.470581 643.210144,1028.575195 648.016663,1028.430298 
	C650.783691,1028.346802 651.897949,1029.301636 651.827637,1032.162476 
	C651.676147,1038.324707 651.672607,1044.495728 651.819153,1050.658081 
	C651.887085,1053.513306 650.929321,1054.676636 647.996887,1055.241455 
	C620.875977,1060.463379 600.639099,1044.655518 599.433411,1017.136780 
	C598.467407,995.090698 610.569763,979.720764 632.206970,976.491699 
	C638.536865,975.547058 645.193848,975.964111 651.606262,976.646606 
	C657.446655,977.268127 663.158752,979.095947 669.231689,980.460449 
	C671.136292,973.189392 673.020264,965.997314 674.970032,958.553833 
	C664.019714,953.588623 652.773926,952.785034 640.524414,952.272400 
M801.385010,1067.034912 
	C790.098572,1030.624146 778.772583,994.225403 767.596191,957.780823 
	C766.637329,954.653870 765.190186,953.622375 761.987549,953.688416 
	C752.494446,953.884644 742.992065,953.904663 733.499634,953.699036 
	C730.245361,953.628540 728.888428,954.741333 727.951416,957.834045 
	C716.415405,995.907227 704.734497,1033.936646 693.107666,1071.982300 
	C692.600647,1073.641357 692.253235,1075.349121 691.742920,1077.387695 
	C701.774475,1077.387695 711.075562,1077.387695 720.778442,1077.387695 
	C723.342285,1068.291016 726.043030,1059.220703 728.399292,1050.061890 
	C729.188599,1046.993530 730.332764,1045.668457 733.723572,1045.760742 
	C742.714111,1046.005981 751.718323,1045.967041 760.711548,1045.778564 
	C763.746033,1045.714966 765.130798,1046.702637 765.933472,1049.647461 
	C768.121582,1057.676025 770.537048,1065.646729 773.078247,1073.571045 
	C773.554504,1075.056396 774.995239,1077.325806 776.051636,1077.360229 
	C785.295044,1077.659546 794.552185,1077.533447 804.473145,1077.533447 
	C803.383850,1073.770874 802.518860,1070.782959 801.385010,1067.034912 
M512.499878,1077.593384 
	C527.112732,1077.593384 541.725586,1077.593384 556.400757,1077.593384 
	C556.400757,1069.489624 556.400757,1062.098877 556.400757,1054.079346 
	C539.503845,1054.079346 522.950867,1054.079346 506.333252,1054.079346 
	C506.333252,1044.214844 506.333252,1034.991333 506.333252,1025.163086 
	C521.418396,1025.163086 536.136108,1025.163086 550.783691,1025.163086 
	C550.783691,1017.296021 550.783691,1010.045227 550.783691,1002.119507 
	C535.747925,1002.119507 521.036560,1002.119507 506.333679,1002.119507 
	C506.333679,993.366699 506.333679,985.304321 506.333679,976.793945 
	C522.294678,976.793945 537.888550,976.793945 553.739380,976.793945 
	C553.739380,968.941406 553.739380,961.546997 553.739380,954.052002 
	C528.213562,954.052002 502.978119,954.052002 477.713562,954.052002 
	C477.713562,995.331665 477.713562,1036.209351 477.713562,1077.593140 
	C489.230774,1077.593140 500.365295,1077.593140 512.499878,1077.593384 
M431.537537,1052.166016 
	C442.475220,1019.598145 453.412933,987.030212 464.588348,953.754456 
	C454.787903,953.754456 445.977112,953.604248 437.183167,953.921448 
	C435.910583,953.967346 434.049713,956.049927 433.591522,957.538025 
	C428.007050,975.675964 422.488525,993.837219 417.257935,1012.079895 
	C413.796692,1024.151611 410.827362,1036.364258 407.439392,1049.269897 
	C406.819977,1046.710083 406.437500,1044.922241 405.954071,1043.162354 
	C398.060242,1014.423645 390.179565,985.681274 382.162720,956.976929 
	C381.812988,955.724670 380.210052,953.934753 379.151520,953.907166 
	C369.860565,953.665283 360.560669,953.767151 350.973175,953.767151 
	C351.194611,955.302856 351.199158,956.296143 351.487854,957.198486 
	C363.968842,996.209534 376.508209,1035.202026 388.910217,1074.238159 
	C389.825073,1077.117798 391.383667,1077.662720 394.019684,1077.624146 
	C402.351105,1077.501953 410.689240,1077.410522 419.016205,1077.630859 
	C422.132629,1077.713379 423.341125,1076.563110 424.212463,1073.715576 
	C426.354767,1066.714722 428.871033,1059.828125 431.537537,1052.166016 
z"/>
<path fill="#FDFFFE" opacity="1.000000" stroke="none" 
	d="
M1083.471802,308.538574 
	C1132.254761,374.510834 1165.007690,447.335907 1181.466064,527.329407 
	C1191.622070,576.690674 1194.882568,626.573914 1191.395142,676.942261 
	C1188.178467,723.399292 1179.197510,768.635437 1165.033569,812.934998 
	C1163.704712,817.090759 1161.969971,818.633362 1157.428345,818.631836 
	C811.144531,818.516968 464.860718,818.532532 118.576889,818.497803 
	C109.652214,818.496887 111.189026,819.791321 108.374519,811.132812 
	C95.295891,770.897339 86.780380,729.710083 83.204361,687.557556 
	C76.874535,612.944275 84.769112,539.883179 107.905426,468.588074 
	C135.887314,382.361237 182.118958,307.237976 246.757767,243.772430 
	C332.727661,159.362900 435.402435,107.356911 554.629883,89.456154 
	C663.012512,73.183647 767.569153,87.798645 867.322388,133.352432 
	C954.209595,173.030731 1026.070679,231.688339 1083.471802,308.538574 
M497.758728,707.683899 
	C497.479675,707.462219 497.200623,707.240540 496.683289,706.861145 
	C496.683289,706.861145 496.639008,706.578918 496.670258,705.911987 
	C496.331604,705.663025 495.992920,705.414062 495.280670,704.902161 
	C495.087860,704.651733 494.986847,704.368530 495.031403,703.296814 
	C493.942078,701.905212 492.852753,700.513672 491.343689,698.854187 
	C491.123596,698.413269 490.903503,697.972412 490.836853,696.814026 
	C490.236969,696.206543 489.637085,695.599060 488.766052,694.824036 
	C488.766052,694.824036 488.687592,694.515076 488.723724,693.889099 
	C488.417755,693.635498 488.111786,693.381958 487.969513,693.049194 
	C487.969513,693.049194 487.830170,693.166016 487.951691,692.438477 
	C487.013062,691.283752 486.074463,690.129028 484.854492,688.733032 
	C484.854492,688.733032 484.787476,688.368469 484.796661,687.783142 
	C484.522278,687.524231 484.247894,687.265320 483.730103,686.811279 
	C483.730103,686.811279 483.696014,686.501160 483.730835,685.881531 
	C483.432587,685.620972 483.134308,685.360413 482.973328,685.046753 
	C482.973328,685.046753 482.860931,685.141785 482.971497,684.415466 
	C482.293793,683.624512 481.616058,682.833496 481.005371,682.012695 
	C481.005371,682.012695 480.949066,682.060913 481.015839,681.351257 
	C480.356354,680.565125 479.696838,679.778992 478.778778,678.791504 
	C478.778778,678.791504 478.728607,678.467712 478.878754,677.717407 
	C477.804169,676.236755 476.729584,674.756104 475.956207,672.991577 
	C475.956207,672.991577 475.669159,673.289124 475.834198,672.530212 
	C474.217438,670.022644 472.600677,667.515137 470.733246,664.824158 
	C470.733246,664.824158 470.684998,664.517273 470.867004,663.793152 
	C470.187378,662.896362 469.507751,661.999573 468.969452,661.045471 
	C468.969452,661.045471 468.853516,661.144592 468.941406,660.486206 
	C468.539032,660.032654 468.136688,659.579163 467.320892,658.831116 
	C467.130951,658.366455 466.941010,657.901794 466.787445,656.839722 
	C466.521698,656.560303 466.255920,656.280884 465.749634,655.785889 
	C465.749634,655.785889 465.723663,655.463867 465.773376,654.858765 
	C465.505585,654.574036 465.237793,654.289307 464.730865,653.824829 
	C464.730865,653.824829 464.685425,653.529175 464.835144,652.754028 
	C463.612000,650.825317 462.388824,648.896606 460.889587,646.671814 
	C460.889587,646.671814 460.834381,646.270813 460.941437,645.592957 
	C460.546753,645.110840 460.152069,644.628723 459.933014,644.054871 
	C459.933014,644.054871 459.787598,644.189514 459.946930,643.429810 
	C458.541992,640.975769 457.137054,638.521667 455.526886,635.900757 
	C455.526886,635.900757 455.515228,635.636414 455.660950,634.974854 
	C455.364624,634.665527 455.068298,634.356201 454.567902,633.882080 
	C454.567902,633.882080 454.565643,633.619812 454.801575,632.842834 
	C452.784027,628.947449 450.766479,625.052124 448.941467,621.058838 
	C448.941467,621.058838 448.775818,621.197449 448.941162,620.396179 
	C447.050598,616.579407 445.160065,612.762634 442.975250,608.498535 
	C442.888947,608.154236 442.802643,607.809875 442.898438,606.693970 
	C441.930389,604.798523 440.962341,602.903076 439.593445,600.599976 
	C439.452545,600.054565 439.311615,599.509216 439.617096,598.498230 
	C438.332764,595.682617 437.048431,592.867004 435.564484,589.886047 
	C435.564484,589.886047 435.564148,589.626770 435.794189,588.819824 
	C434.230957,584.184082 432.790100,579.502258 431.067749,574.926453 
	C429.549408,570.892700 427.716736,566.977356 425.734375,562.598999 
	C425.661255,562.276794 425.588104,561.954651 425.808563,560.794312 
	C424.688141,557.834412 423.567749,554.874451 422.168945,551.309509 
	C422.110657,550.870911 422.052368,550.432251 422.347534,549.784058 
	C422.117157,549.583740 421.886780,549.383484 421.314178,548.708923 
	C421.229950,548.134460 421.145721,547.559998 421.581299,546.539368 
	C420.664886,544.049622 419.748444,541.559875 418.489044,538.613403 
	C418.389343,538.058411 418.289612,537.503357 418.662140,536.513123 
	C418.662140,535.154419 418.662140,533.795715 418.662140,532.437012 
	C420.272217,533.727173 421.142090,535.368286 422.044983,536.991089 
	C423.349060,539.334900 424.677094,541.665344 426.369965,544.428345 
	C426.524811,544.963318 426.679688,545.498352 426.374054,546.454041 
	C426.904572,547.306213 427.435120,548.158447 428.195526,549.287842 
	C428.195526,549.287842 428.206787,549.647766 428.063141,550.408142 
	C429.046143,552.270874 430.029144,554.133545 431.248749,556.224854 
	C431.248749,556.224854 431.262146,556.553589 431.090881,557.358459 
	C432.380981,559.909790 433.671051,562.461182 435.200348,565.279663 
	C435.200348,565.279663 435.208588,565.638184 435.054871,566.419678 
	C436.404541,568.939148 437.754242,571.458557 439.332031,574.161987 
	C439.332031,574.161987 439.348328,574.454590 439.151428,575.165710 
	C439.771545,576.107483 440.391693,577.049255 441.243896,578.235901 
	C441.243896,578.235901 441.258148,578.572937 441.104828,579.334778 
	C441.742859,580.220642 442.380890,581.106567 443.251404,582.226318 
	C443.251404,582.226318 443.267456,582.555664 443.209808,583.140137 
	C443.456970,583.427490 443.704132,583.714844 444.319855,584.468323 
	C444.615723,585.194275 444.911621,585.920166 445.071777,587.438171 
	C447.451569,591.594055 449.831360,595.749939 452.612671,600.243835 
	C452.796082,600.729614 452.979492,601.215454 453.140747,602.254761 
	C453.393311,602.505798 453.645844,602.756836 454.291809,603.443970 
	C454.613953,604.148743 454.936066,604.853455 455.101959,606.268372 
	C455.756592,607.166260 456.411194,608.064209 456.997498,608.991150 
	C456.997498,608.991150 457.051849,608.940247 456.982025,609.706848 
	C457.992157,611.134583 459.002319,612.562256 460.000000,614.000000 
	C460.000000,614.000000 460.010956,613.987732 459.954590,614.703674 
	C460.717743,615.746826 461.480927,616.789978 462.039368,617.962219 
	C462.039368,617.962219 462.220978,617.802246 462.067902,618.547302 
	C463.493988,620.604126 464.920074,622.660950 466.034393,625.010864 
	C466.034393,625.010864 466.334778,624.707153 466.160156,625.417297 
	C467.086426,626.616089 468.012726,627.814941 469.198334,629.229675 
	C469.198334,629.229675 469.249573,629.563171 469.125885,630.260010 
	C469.712555,630.850281 470.299194,631.440613 471.162476,632.253601 
	C471.162476,632.253601 471.221039,632.603821 471.101532,633.335205 
	C471.839478,634.168396 472.577454,635.001526 473.818512,636.264465 
	C485.224945,652.166443 496.097260,668.486572 508.150299,683.882324 
	C532.364197,714.811768 560.182495,742.299011 590.644531,767.095215 
	C596.584961,771.930603 601.507690,770.115417 602.896912,762.724426 
	C603.173828,761.251221 603.427856,759.773682 603.712952,758.302185 
	C612.501404,712.945068 616.865417,667.353088 611.008850,621.216370 
	C605.044800,574.233215 587.897278,531.834778 558.845032,494.361511 
	C528.291992,454.952484 490.107941,423.373260 452.369019,391.415375 
	C429.880219,372.371521 406.032684,354.908783 383.876312,335.501801 
	C356.830597,311.812195 330.920959,286.825745 304.507233,262.413940 
	C303.010498,261.030640 301.398529,259.772064 299.522308,258.186859 
	C299.058472,261.196686 298.815918,263.351227 298.386810,265.467926 
	C292.228271,295.845764 287.140839,326.374573 284.632843,357.307312 
	C279.696320,418.191864 280.832764,478.783112 293.252930,538.821655 
	C302.003876,581.123413 315.184235,621.834534 337.499451,659.165527 
	C357.600372,692.792236 383.649170,720.559937 417.704376,740.404114 
	C452.904999,760.915588 491.305206,769.937927 531.628906,771.923828 
	C536.656616,772.171387 541.706970,771.957642 547.015808,771.957642 
	C537.138794,759.699402 527.577698,747.833191 518.050171,735.244629 
	C517.029480,734.165405 516.008728,733.086182 515.000000,732.000000 
	C515.000000,732.000000 514.991943,732.012512 514.996155,731.364197 
	C514.542480,731.013245 514.088806,730.662292 514.002441,730.017273 
	C514.002441,730.017273 513.635925,730.315735 513.816162,729.596313 
	C511.929199,727.387695 510.042236,725.179138 507.856354,722.750671 
	C507.856354,722.750671 507.765961,722.390747 507.885864,721.661255 
	C507.130585,720.886963 506.375336,720.112671 505.978516,719.178711 
	C505.978516,719.178711 505.620758,719.325073 505.659698,718.737915 
	C505.360229,718.513855 505.060760,718.289795 504.381561,717.821411 
	C504.158752,717.601257 504.025146,717.336121 503.988800,716.389160 
	C503.559204,716.000671 503.129608,715.612183 502.949188,715.075134 
	C502.949188,715.075134 502.724365,715.258484 502.852722,714.595581 
	C502.267853,714.054688 501.682983,713.513855 500.828796,712.761658 
	C500.828796,712.761658 500.761749,712.425964 500.854858,711.711731 
	C500.229706,711.145203 499.604553,710.578674 499.001221,710.000000 
	C499.001221,710.000000 498.985657,710.021118 499.000824,709.384460 
	C498.577209,708.987183 498.153595,708.589966 497.900024,708.081238 
	C497.900024,708.081238 497.770264,708.237793 497.758728,707.683899 
M859.799988,521.736816 
	C857.775879,529.441833 855.946655,537.204346 853.693726,544.841858 
	C844.015747,577.650330 831.708435,609.446106 816.410400,640.053345 
	C793.263855,686.363342 764.366272,728.789734 730.043701,767.535583 
	C728.909973,768.815430 727.868958,770.177490 726.312927,772.077271 
	C728.613647,772.209656 729.914124,772.373962 731.210388,772.345581 
	C751.411621,771.903748 771.449280,769.942261 791.191284,765.522217 
	C835.824158,755.529297 874.194702,734.475952 905.411926,700.771790 
	C928.442627,675.906250 945.257629,647.175842 957.752869,615.883423 
	C980.449829,559.042419 990.664246,499.659729 991.462646,438.720612 
	C991.835144,410.281616 991.209045,381.686707 988.587280,353.389313 
	C985.651306,321.701294 979.943909,290.270020 975.442505,258.726990 
	C974.858765,258.648499 974.274963,258.570007 973.691223,258.491486 
	C971.028381,260.941742 968.374329,263.401672 965.701233,265.840759 
	C935.189148,293.682190 905.082275,321.986542 874.011230,349.189758 
	C854.482361,366.287628 833.121216,381.277252 813.288940,398.048553 
	C793.836975,414.498138 775.040405,431.748688 756.391418,449.115051 
	C734.124084,469.850769 714.182556,492.636627 698.234192,518.705994 
	C673.356201,559.371887 662.098389,603.934753 660.367004,651.209412 
	C658.955688,689.744080 663.925598,727.658142 671.477051,765.328491 
	C672.051331,768.193420 673.390503,769.657593 676.094971,769.162659 
	C678.712891,768.683594 681.832458,768.251343 683.667175,766.609192 
	C699.420288,752.510010 715.574646,738.774536 730.398193,723.736694 
	C780.591309,672.818054 818.760315,613.831055 846.065674,547.801453 
	C849.706787,538.996704 852.750061,529.944702 856.817444,520.975098 
	C857.814087,520.978943 858.810669,520.982849 859.799988,521.736816 
z"/>
<path fill="#F7FDFB" opacity="1.000000" stroke="none" 
	d="
M923.428833,973.000916 
	C923.428650,1007.949158 923.428650,1042.397583 923.428650,1077.520630 
	C913.719604,1077.520630 904.453979,1077.635132 895.199097,1077.371460 
	C894.080688,1077.339722 892.688416,1075.442383 891.982178,1074.112671 
	C877.226318,1046.331299 862.551880,1018.506592 847.855835,990.693420 
	C847.504761,990.028931 847.089966,989.398071 846.387573,988.218567 
	C846.387573,1018.182495 846.387573,1047.396362 846.387573,1077.099365 
	C838.243225,1077.099365 829.888489,1077.099365 821.221252,1077.099365 
	C821.221252,1036.164551 821.221252,995.291443 821.221252,953.812439 
	C831.770203,953.812439 842.042358,953.707703 852.305908,953.957397 
	C853.466858,953.985596 854.951477,955.812683 855.658936,957.139893 
	C869.511597,983.126526 883.270813,1009.162842 897.050476,1035.188354 
	C897.476929,1035.993774 897.917908,1036.791504 898.256226,1037.415771 
	C898.256226,1009.695129 898.256226,982.020630 898.256226,954.039551 
	C906.209534,954.039551 914.464539,954.039551 923.429016,954.039551 
	C923.429016,960.293335 923.429016,966.397156 923.428833,973.000916 
z"/>
<path fill="#F7FDFB" opacity="1.000000" stroke="none" 
	d="
M640.997925,952.272400 
	C652.773926,952.785034 664.019714,953.588623 674.970032,958.553833 
	C673.020264,965.997314 671.136292,973.189392 669.231689,980.460449 
	C663.158752,979.095947 657.446655,977.268127 651.606262,976.646606 
	C645.193848,975.964111 638.536865,975.547058 632.206970,976.491699 
	C610.569763,979.720764 598.467407,995.090698 599.433411,1017.136780 
	C600.639099,1044.655518 620.875977,1060.463379 647.996887,1055.241455 
	C650.929321,1054.676636 651.887085,1053.513306 651.819153,1050.658081 
	C651.672607,1044.495728 651.676147,1038.324707 651.827637,1032.162476 
	C651.897949,1029.301636 650.783691,1028.346802 648.016663,1028.430298 
	C643.210144,1028.575195 638.395996,1028.470581 633.210571,1028.470581 
	C633.210571,1021.058716 633.210571,1014.005127 633.210571,1006.620972 
	C648.324951,1006.620972 663.382690,1006.620972 678.959534,1006.620972 
	C678.959534,1010.220947 678.958740,1013.512085 678.959656,1016.803223 
	C678.964233,1033.634644 678.882263,1050.466797 679.047424,1067.296631 
	C679.080566,1070.681763 678.149475,1072.263428 674.730530,1073.221680 
	C653.841919,1079.075562 632.778625,1081.364502 611.588257,1075.553101 
	C589.029236,1069.366333 575.356812,1054.237305 571.171936,1031.366821 
	C566.988159,1008.502808 571.151367,987.411987 588.556458,970.677185 
	C601.270264,958.452881 617.292297,953.724731 634.533020,952.522644 
	C636.526306,952.383667 638.527100,952.353210 640.997925,952.272400 
z"/>
<path fill="#F7FDFB" opacity="1.000000" stroke="none" 
	d="
M801.519409,1067.415039 
	C802.518860,1070.782959 803.383850,1073.770874 804.473145,1077.533447 
	C794.552185,1077.533447 785.295044,1077.659546 776.051636,1077.360229 
	C774.995239,1077.325806 773.554504,1075.056396 773.078247,1073.571045 
	C770.537048,1065.646729 768.121582,1057.676025 765.933472,1049.647461 
	C765.130798,1046.702637 763.746033,1045.714966 760.711548,1045.778564 
	C751.718323,1045.967041 742.714111,1046.005981 733.723572,1045.760742 
	C730.332764,1045.668457 729.188599,1046.993530 728.399292,1050.061890 
	C726.043030,1059.220703 723.342285,1068.291016 720.778442,1077.387695 
	C711.075562,1077.387695 701.774475,1077.387695 691.742920,1077.387695 
	C692.253235,1075.349121 692.600647,1073.641357 693.107666,1071.982300 
	C704.734497,1033.936646 716.415405,995.907227 727.951416,957.834045 
	C728.888428,954.741333 730.245361,953.628540 733.499634,953.699036 
	C742.992065,953.904663 752.494446,953.884644 761.987549,953.688416 
	C765.190186,953.622375 766.637329,954.653870 767.596191,957.780823 
	C778.772583,994.225403 790.098572,1030.624146 801.519409,1067.415039 
M748.166199,980.540039 
	C747.755188,979.317139 747.344116,978.094238 746.691162,976.151550 
	C742.284729,992.804443 738.148621,1008.435547 733.951355,1024.297852 
	C742.898315,1024.297852 751.385071,1024.297852 760.304749,1024.297852 
	C756.226562,1009.620422 752.289551,995.451111 748.166199,980.540039 
z"/>
<path fill="#F5FCFA" opacity="1.000000" stroke="none" 
	d="
M511.999878,1077.593262 
	C500.365295,1077.593140 489.230774,1077.593140 477.713562,1077.593140 
	C477.713562,1036.209351 477.713562,995.331665 477.713562,954.052002 
	C502.978119,954.052002 528.213562,954.052002 553.739380,954.052002 
	C553.739380,961.546997 553.739380,968.941406 553.739380,976.793945 
	C537.888550,976.793945 522.294678,976.793945 506.333679,976.793945 
	C506.333679,985.304321 506.333679,993.366699 506.333679,1002.119507 
	C521.036560,1002.119507 535.747925,1002.119507 550.783691,1002.119507 
	C550.783691,1010.045227 550.783691,1017.296021 550.783691,1025.163086 
	C536.136108,1025.163086 521.418396,1025.163086 506.333252,1025.163086 
	C506.333252,1034.991333 506.333252,1044.214844 506.333252,1054.079346 
	C522.950867,1054.079346 539.503845,1054.079346 556.400757,1054.079346 
	C556.400757,1062.098877 556.400757,1069.489624 556.400757,1077.593384 
	C541.725586,1077.593384 527.112732,1077.593384 511.999878,1077.593262 
z"/>
<path fill="#F7FDFB" opacity="1.000000" stroke="none" 
	d="
M431.387207,1052.530762 
	C428.871033,1059.828125 426.354767,1066.714722 424.212463,1073.715576 
	C423.341125,1076.563110 422.132629,1077.713379 419.016205,1077.630859 
	C410.689240,1077.410522 402.351105,1077.501953 394.019684,1077.624146 
	C391.383667,1077.662720 389.825073,1077.117798 388.910217,1074.238159 
	C376.508209,1035.202026 363.968842,996.209534 351.487854,957.198486 
	C351.199158,956.296143 351.194611,955.302856 350.973175,953.767151 
	C360.560669,953.767151 369.860565,953.665283 379.151520,953.907166 
	C380.210052,953.934753 381.812988,955.724670 382.162720,956.976929 
	C390.179565,985.681274 398.060242,1014.423645 405.954071,1043.162354 
	C406.437500,1044.922241 406.819977,1046.710083 407.439392,1049.269897 
	C410.827362,1036.364258 413.796692,1024.151611 417.257935,1012.079895 
	C422.488525,993.837219 428.007050,975.675964 433.591522,957.538025 
	C434.049713,956.049927 435.910583,953.967346 437.183167,953.921448 
	C445.977112,953.604248 454.787903,953.754456 464.588348,953.754456 
	C453.412933,987.030212 442.475220,1019.598145 431.387207,1052.530762 
z"/>
<path fill="#038755" opacity="1.000000" stroke="none" 
	d="
M856.070190,521.007202 
	C852.750061,529.944702 849.706787,538.996704 846.065674,547.801453 
	C818.760315,613.831055 780.591309,672.818054 730.398193,723.736694 
	C715.574646,738.774536 699.420288,752.510010 683.667175,766.609192 
	C681.832458,768.251343 678.712891,768.683594 676.094971,769.162659 
	C673.390503,769.657593 672.051331,768.193420 671.477051,765.328491 
	C663.925598,727.658142 658.955688,689.744080 660.367004,651.209412 
	C662.098389,603.934753 673.356201,559.371887 698.234192,518.705994 
	C714.182556,492.636627 734.124084,469.850769 756.391418,449.115051 
	C775.040405,431.748688 793.836975,414.498138 813.288940,398.048553 
	C833.121216,381.277252 854.482361,366.287628 874.011230,349.189758 
	C905.082275,321.986542 935.189148,293.682190 965.701233,265.840759 
	C968.374329,263.401672 971.028381,260.941742 973.691223,258.491486 
	C974.274963,258.570007 974.858765,258.648499 975.442505,258.726990 
	C979.943909,290.270020 985.651306,321.701294 988.587280,353.389313 
	C991.209045,381.686707 991.835144,410.281616 991.462646,438.720612 
	C990.664246,499.659729 980.449829,559.042419 957.752869,615.883423 
	C945.257629,647.175842 928.442627,675.906250 905.411926,700.771790 
	C874.194702,734.475952 835.824158,755.529297 791.191284,765.522217 
	C771.449280,769.942261 751.411621,771.903748 731.210388,772.345581 
	C729.914124,772.373962 728.613647,772.209656 726.312927,772.077271 
	C727.868958,770.177490 728.909973,768.815430 730.043701,767.535583 
	C764.366272,728.789734 793.263855,686.363342 816.410400,640.053345 
	C831.708435,609.446106 844.015747,577.650330 853.693726,544.841858 
	C855.946655,537.204346 857.775879,529.441833 860.014526,521.078674 
	C860.927185,516.310852 861.625366,512.201172 862.323547,508.091461 
	C861.732788,507.983246 861.142090,507.875031 860.551331,507.766815 
	C859.057617,512.180298 857.563904,516.593750 856.070190,521.007202 
z"/>
<path fill="#038755" opacity="1.000000" stroke="none" 
	d="
M439.170715,598.963806 
	C439.311615,599.509216 439.452545,600.054565 439.771271,601.163818 
	C440.871521,603.640259 441.793915,605.552917 442.716339,607.465576 
	C442.802643,607.809875 442.888947,608.154236 443.132965,609.080688 
	C445.119049,613.507690 446.947449,617.352600 448.775818,621.197449 
	C448.775818,621.197449 448.941467,621.058838 448.858154,621.486084 
	C450.705078,625.815491 452.635376,629.717651 454.565643,633.619812 
	C454.565643,633.619812 454.567902,633.882080 454.670349,634.275696 
	C455.020264,634.991699 455.267761,635.314026 455.515228,635.636414 
	C455.515228,635.636414 455.526886,635.900757 455.640228,636.352478 
	C457.098236,639.265991 458.442932,641.727722 459.787598,644.189514 
	C459.787598,644.189514 459.933014,644.054871 459.847473,644.417725 
	C460.119385,645.277283 460.476898,645.774048 460.834381,646.270813 
	C460.834381,646.270813 460.889587,646.671814 461.056458,647.163757 
	C462.377350,649.613525 463.531403,651.571350 464.685425,653.529175 
	C464.685425,653.529175 464.730865,653.824829 464.851013,654.212524 
	C465.222015,654.888062 465.472839,655.175964 465.723663,655.463867 
	C465.723663,655.463867 465.749634,655.785889 465.859772,656.191284 
	C466.230316,656.876831 466.490692,657.156982 466.751099,657.437134 
	C466.941010,657.901794 467.130951,658.366455 467.534668,659.288818 
	C468.116791,660.212585 468.485168,660.678589 468.853516,661.144592 
	C468.853516,661.144592 468.969452,661.045471 468.904602,661.411438 
	C469.454834,662.690674 470.069916,663.604004 470.684998,664.517273 
	C470.684998,664.517273 470.733246,664.824158 470.877136,665.272705 
	C472.570404,668.243896 474.119781,670.766541 475.669159,673.289124 
	C475.669159,673.289124 475.956207,672.991577 475.834595,673.476196 
	C476.718201,675.463196 477.723389,676.965454 478.728577,678.467712 
	C478.728607,678.467712 478.778778,678.791504 478.917358,679.208374 
	C479.686981,680.437195 480.318024,681.249023 480.949066,682.060913 
	C480.949066,682.060913 481.005371,682.012695 480.986267,682.346741 
	C481.598389,683.501099 482.229645,684.321472 482.860931,685.141785 
	C482.860931,685.141785 482.973328,685.046753 482.925720,685.369629 
	C483.150757,685.962036 483.423401,686.231567 483.696014,686.501160 
	C483.696014,686.501160 483.730103,686.811279 483.854675,687.200562 
	C484.248657,687.849365 484.518066,688.108887 484.787476,688.368469 
	C484.787476,688.368469 484.854492,688.733032 485.014343,689.174927 
	C486.059509,690.799927 486.944855,691.982971 487.830170,693.166016 
	C487.830170,693.166016 487.969513,693.049194 487.915588,693.383423 
	C488.136963,693.983459 488.412262,694.249268 488.687592,694.515076 
	C488.687592,694.515076 488.766052,694.824036 488.926880,695.224426 
	C489.619598,696.260376 490.151489,696.895935 490.683411,697.531494 
	C490.903503,697.972412 491.123596,698.413269 491.596039,699.325073 
	C492.891449,701.214905 493.934540,702.633789 494.977600,704.052673 
	C494.986847,704.368530 495.087860,704.651733 495.524841,705.332886 
	C496.059021,706.035400 496.348999,706.307190 496.638977,706.578918 
	C496.639008,706.578918 496.683289,706.861145 496.814850,707.216675 
	C497.221039,707.794067 497.495667,708.015930 497.770264,708.237793 
	C497.770264,708.237793 497.900024,708.081238 497.848541,708.433472 
	C498.193268,709.197510 498.589478,709.609314 498.985657,710.021118 
	C498.985657,710.021118 499.001221,710.000000 499.023254,710.322144 
	C499.617432,711.238159 500.189575,711.832092 500.761749,712.425964 
	C500.761749,712.425964 500.828796,712.761658 500.976837,713.167297 
	C501.658051,714.134766 502.191193,714.696655 502.724365,715.258484 
	C502.724365,715.258484 502.949188,715.075134 502.853394,715.447510 
	C503.165314,716.221924 503.573029,716.623962 503.980743,717.026062 
	C504.025146,717.336121 504.158752,717.601257 504.595093,718.221924 
	C505.079346,718.856689 505.350037,719.090881 505.620758,719.325073 
	C505.620758,719.325073 505.978516,719.178711 505.844727,719.578796 
	C506.395966,720.782837 507.080963,721.586792 507.765961,722.390747 
	C507.765961,722.390747 507.856354,722.750671 508.042664,723.195190 
	C510.031311,725.865051 511.833618,728.090393 513.635925,730.315735 
	C513.635925,730.315735 514.002441,730.017273 513.872681,730.450073 
	C514.159302,731.259460 514.575623,731.635986 514.991943,732.012512 
	C514.991943,732.012512 515.000000,732.000000 515.031250,732.324646 
	C516.047180,733.755188 517.031921,734.861145 518.016602,735.967041 
	C527.577698,747.833191 537.138794,759.699402 547.015808,771.957642 
	C541.706970,771.957642 536.656616,772.171387 531.628906,771.923828 
	C491.305206,769.937927 452.904999,760.915588 417.704376,740.404114 
	C383.649170,720.559937 357.600372,692.792236 337.499451,659.165527 
	C315.184235,621.834534 302.003876,581.123413 293.252930,538.821655 
	C280.832764,478.783112 279.696320,418.191864 284.632843,357.307312 
	C287.140839,326.374573 292.228271,295.845764 298.386810,265.467926 
	C298.815918,263.351227 299.058472,261.196686 299.522308,258.186859 
	C301.398529,259.772064 303.010498,261.030640 304.507233,262.413940 
	C330.920959,286.825745 356.830597,311.812195 383.876312,335.501801 
	C406.032684,354.908783 429.880219,372.371521 452.369019,391.415375 
	C490.107941,423.373260 528.291992,454.952484 558.845032,494.361511 
	C587.897278,531.834778 605.044800,574.233215 611.008850,621.216370 
	C616.865417,667.353088 612.501404,712.945068 603.712952,758.302185 
	C603.427856,759.773682 603.173828,761.251221 602.896912,762.724426 
	C601.507690,770.115417 596.584961,771.930603 590.644531,767.095215 
	C560.182495,742.299011 532.364197,714.811768 508.150299,683.882324 
	C496.097260,668.486572 485.224945,652.166443 473.530029,635.717529 
	C472.568054,634.315002 471.894531,633.459412 471.221039,632.603821 
	C471.221039,632.603821 471.162476,632.253601 471.001221,631.831238 
	C470.309845,630.793640 469.779724,630.178406 469.249573,629.563171 
	C469.249573,629.563171 469.198334,629.229675 469.049622,628.792969 
	C468.045502,627.139893 467.190125,625.923523 466.334778,624.707153 
	C466.334778,624.707153 466.034393,625.010864 466.145020,624.521729 
	C464.910767,621.955872 463.565857,619.879089 462.220947,617.802246 
	C462.220978,617.802246 462.039368,617.962219 462.123474,617.566162 
	C461.475403,616.109314 460.743164,615.048523 460.010925,613.987732 
	C460.010956,613.987732 460.000000,614.000000 459.977753,613.658569 
	C458.987640,611.858154 458.019745,610.399170 457.051849,608.940247 
	C457.051849,608.940247 456.997498,608.991150 457.017029,608.641968 
	C456.443756,607.381226 455.850983,606.469727 455.258209,605.558228 
	C454.936066,604.853455 454.613953,604.148743 454.104248,602.948364 
	C453.665405,602.202271 453.414154,601.951721 453.162903,601.701233 
	C452.979492,601.215454 452.796082,600.729614 452.392517,599.708496 
	C449.850708,594.997437 447.529114,590.821777 445.207520,586.646118 
	C444.911621,585.920166 444.615723,585.194275 444.159851,583.941956 
	C443.755737,583.128967 443.511597,582.842285 443.267456,582.555664 
	C443.267456,582.555664 443.251404,582.226318 443.142944,581.776184 
	C442.442352,580.408325 441.850250,579.490662 441.258148,578.572937 
	C441.258148,578.572937 441.243896,578.235901 441.138916,577.774658 
	C440.472046,576.360535 439.910187,575.407532 439.348328,574.454590 
	C439.348328,574.454590 439.332031,574.161987 439.213989,573.702637 
	C437.800171,570.708252 436.504395,568.173218 435.208588,565.638184 
	C435.208588,565.638184 435.200348,565.279663 435.096802,564.778992 
	C433.749542,561.703430 432.505859,559.128479 431.262146,556.553589 
	C431.262146,556.553589 431.248749,556.224854 431.148254,555.751953 
	C430.100769,553.401978 429.153778,551.524902 428.206787,549.647766 
	C428.206787,549.647766 428.195526,549.287842 428.115540,548.817688 
	C427.635254,547.576111 427.234924,546.804749 426.834595,546.033325 
	C426.679688,545.498352 426.524811,544.963318 426.199524,543.834778 
	C422.088257,532.780823 418.147369,522.320374 414.229065,511.468292 
	C412.706696,506.385864 411.161804,501.695129 409.616882,497.004395 
	C409.080444,497.209991 408.544037,497.415588 408.007599,497.621216 
	C409.521057,503.285614 411.034515,508.950012 412.565430,515.014771 
	C414.451874,522.592896 416.320862,529.770630 418.189880,536.948364 
	C418.289612,537.503357 418.389343,538.058411 418.621613,539.236694 
	C419.523285,542.235229 420.292389,544.610352 421.061523,546.985535 
	C421.145721,547.559998 421.229950,548.134460 421.470764,549.189819 
	C421.627319,549.670776 421.994110,549.993652 421.994080,549.993652 
	C422.052368,550.432251 422.110657,550.870911 422.278625,551.977539 
	C423.430511,555.641174 424.472748,558.636780 425.514954,561.632446 
	C425.588104,561.954651 425.661255,562.276794 425.841339,563.190796 
	C429.153595,572.397339 432.358887,581.012024 435.564148,589.626770 
	C435.564148,589.626770 435.564484,589.886047 435.659973,590.355957 
	C436.893890,593.538452 438.032288,596.251160 439.170715,598.963806 
z"/>
<path fill="#CAF2E5" opacity="1.000000" stroke="none" 
	d="
M414.206543,511.859985 
	C418.147369,522.320374 422.088257,532.780823 426.012024,543.621338 
	C424.677094,541.665344 423.349060,539.334900 422.044983,536.991089 
	C421.142090,535.368286 420.272217,533.727173 418.662140,532.437012 
	C418.662140,533.795715 418.662140,535.154419 418.425995,536.730713 
	C416.320862,529.770630 414.451874,522.592896 412.706970,514.617798 
	C413.289551,513.166931 413.748047,512.513489 414.206543,511.859985 
z"/>
<path fill="#C1F2E3" opacity="1.000000" stroke="none" 
	d="
M856.443787,520.991150 
	C857.563904,516.593750 859.057617,512.180298 860.551331,507.766815 
	C861.142090,507.875031 861.732788,507.983246 862.323547,508.091461 
	C861.625366,512.201172 860.927185,516.310852 860.018188,520.703613 
	C858.810669,520.982849 857.814087,520.978943 856.443787,520.991150 
z"/>
<path fill="#CAF2E5" opacity="1.000000" stroke="none" 
	d="
M435.679169,589.223267 
	C432.358887,581.012024 429.153595,572.397339 425.985596,563.396118 
	C427.716736,566.977356 429.549408,570.892700 431.067749,574.926453 
	C432.790100,579.502258 434.230957,584.184082 435.679169,589.223267 
z"/>
<path fill="#CAF2E5" opacity="1.000000" stroke="none" 
	d="
M445.139648,587.042114 
	C447.529114,590.821777 449.850708,594.997437 452.191711,599.539429 
	C449.831360,595.749939 447.451569,591.594055 445.139648,587.042114 
z"/>
<path fill="#CAF2E5" opacity="1.000000" stroke="none" 
	d="
M448.858490,620.796814 
	C446.947449,617.352600 445.119049,613.507690 443.280090,609.304321 
	C445.160065,612.762634 447.050598,616.579407 448.858490,620.796814 
z"/>
<path fill="#CAF2E5" opacity="1.000000" stroke="none" 
	d="
M454.683594,633.231323 
	C452.635376,629.717651 450.705078,625.815491 448.761871,621.535034 
	C450.766479,625.052124 452.784027,628.947449 454.683594,633.231323 
z"/>
<path fill="#CAF2E5" opacity="1.000000" stroke="none" 
	d="
M475.751678,672.909668 
	C474.119781,670.766541 472.570404,668.243896 471.002441,665.364441 
	C472.600677,667.515137 474.217438,670.022644 475.751678,672.909668 
z"/>
<path fill="#CAF2E5" opacity="1.000000" stroke="none" 
	d="
M513.726074,729.956055 
	C511.833618,728.090393 510.031311,725.865051 508.192139,723.305115 
	C510.042236,725.179138 511.929199,727.387695 513.726074,729.956055 
z"/>
<path fill="#CAF2E5" opacity="1.000000" stroke="none" 
	d="
M425.661743,561.213379 
	C424.472748,558.636780 423.430511,555.641174 422.417816,552.280029 
	C423.567749,554.874451 424.688141,557.834412 425.661743,561.213379 
z"/>
<path fill="#CAF2E5" opacity="1.000000" stroke="none" 
	d="
M439.393921,598.731018 
	C438.032288,596.251160 436.893890,593.538452 435.759796,590.438599 
	C437.048431,592.867004 438.332764,595.682617 439.393921,598.731018 
z"/>
<path fill="#CAF2E5" opacity="1.000000" stroke="none" 
	d="
M431.176514,556.956055 
	C432.505859,559.128479 433.749542,561.703430 434.977173,564.645386 
	C433.671051,562.461182 432.380981,559.909790 431.176514,556.956055 
z"/>
<path fill="#CAF2E5" opacity="1.000000" stroke="none" 
	d="
M435.131714,566.028931 
	C436.504395,568.173218 437.800171,570.708252 439.099945,573.610657 
	C437.754242,571.458557 436.404541,568.939148 435.131714,566.028931 
z"/>
<path fill="#CAF2E5" opacity="1.000000" stroke="none" 
	d="
M421.321411,546.762451 
	C420.292389,544.610352 419.523285,542.235229 418.793091,539.465088 
	C419.748444,541.559875 420.664886,544.049622 421.321411,546.762451 
z"/>
<path fill="#CAF2E5" opacity="1.000000" stroke="none" 
	d="
M459.867249,643.809692 
	C458.442932,641.727722 457.098236,639.265991 455.742859,636.435913 
	C457.137054,638.521667 458.541992,640.975769 459.867249,643.809692 
z"/>
<path fill="#CAF2E5" opacity="1.000000" stroke="none" 
	d="
M462.144409,618.174805 
	C463.565857,619.879089 464.910767,621.955872 466.300903,624.375244 
	C464.920074,622.660950 463.493988,620.604126 462.144409,618.174805 
z"/>
<path fill="#CAF2E5" opacity="1.000000" stroke="none" 
	d="
M464.760284,653.141602 
	C463.531403,651.571350 462.377350,649.613525 461.194489,647.311768 
	C462.388824,648.896606 463.612000,650.825317 464.760284,653.141602 
z"/>
<path fill="#CAF2E5" opacity="1.000000" stroke="none" 
	d="
M442.807373,607.079773 
	C441.793915,605.552917 440.871521,603.640259 439.971680,601.367615 
	C440.962341,602.903076 441.930389,604.798523 442.807373,607.079773 
z"/>
<path fill="#CAF2E5" opacity="1.000000" stroke="none" 
	d="
M457.016937,609.323547 
	C458.019745,610.399170 458.987640,611.858154 459.983978,613.653564 
	C459.002319,612.562256 457.992157,611.134583 457.016937,609.323547 
z"/>
<path fill="#CAF2E5" opacity="1.000000" stroke="none" 
	d="
M428.134949,550.027954 
	C429.153778,551.524902 430.100769,553.401978 431.029968,555.637695 
	C430.029144,554.133545 429.046143,552.270874 428.134949,550.027954 
z"/>
<path fill="#CAF2E5" opacity="1.000000" stroke="none" 
	d="
M495.004517,703.674744 
	C493.934540,702.633789 492.891449,701.214905 491.805908,699.459045 
	C492.852753,700.513672 493.942078,701.905212 495.004517,703.674744 
z"/>
<path fill="#CAF2E5" opacity="1.000000" stroke="none" 
	d="
M478.803650,678.092529 
	C477.723389,676.965454 476.718201,675.463196 475.683990,673.618164 
	C476.729584,674.756104 477.804169,676.236755 478.803650,678.092529 
z"/>
<path fill="#CAF2E5" opacity="1.000000" stroke="none" 
	d="
M466.247467,625.062256 
	C467.190125,625.923523 468.045502,627.139893 468.919922,628.684998 
	C468.012726,627.814941 467.086426,626.616089 466.247467,625.062256 
z"/>
<path fill="#CAF2E5" opacity="1.000000" stroke="none" 
	d="
M487.890930,692.802246 
	C486.944855,691.982971 486.059509,690.799927 485.154999,689.295593 
	C486.074463,690.129028 487.013062,691.283752 487.890930,692.802246 
z"/>
<path fill="#CAF2E5" opacity="1.000000" stroke="none" 
	d="
M518.033386,735.605835 
	C517.031921,734.861145 516.047180,733.755188 515.025269,732.328125 
	C516.008728,733.086182 517.029480,734.165405 518.033386,735.605835 
z"/>
<path fill="#CAF2E5" opacity="1.000000" stroke="none" 
	d="
M426.604309,546.243652 
	C427.234924,546.804749 427.635254,547.576111 428.000610,548.679077 
	C427.435120,548.158447 426.904572,547.306213 426.604309,546.243652 
z"/>
<path fill="#CAF2E5" opacity="1.000000" stroke="none" 
	d="
M459.982758,614.345703 
	C460.743164,615.048523 461.475403,616.109314 462.225830,617.501587 
	C461.480927,616.789978 460.717743,615.746826 459.982758,614.345703 
z"/>
<path fill="#CAF2E5" opacity="1.000000" stroke="none" 
	d="
M470.776001,664.155212 
	C470.069916,663.604004 469.454834,662.690674 468.833923,661.440063 
	C469.507751,661.999573 470.187378,662.896362 470.776001,664.155212 
z"/>
<path fill="#CAF2E5" opacity="1.000000" stroke="none" 
	d="
M439.249878,574.810181 
	C439.910187,575.407532 440.472046,576.360535 441.022888,577.652222 
	C440.391693,577.049255 439.771545,576.107483 439.249878,574.810181 
z"/>
<path fill="#CAF2E5" opacity="1.000000" stroke="none" 
	d="
M441.181488,578.953857 
	C441.850250,579.490662 442.442352,580.408325 443.026703,581.659241 
	C442.380890,581.106567 441.742859,580.220642 441.181488,578.953857 
z"/>
<path fill="#CAF2E5" opacity="1.000000" stroke="none" 
	d="
M480.982452,681.706055 
	C480.318024,681.249023 479.686981,680.437195 479.046631,679.309082 
	C479.696838,679.778992 480.356354,680.565125 480.982452,681.706055 
z"/>
<path fill="#CAF2E5" opacity="1.000000" stroke="none" 
	d="
M482.916199,684.778625 
	C482.229645,684.321472 481.598389,683.501099 480.952728,682.361694 
	C481.616058,682.833496 482.293793,683.624512 482.916199,684.778625 
z"/>
<path fill="#CAF2E5" opacity="1.000000" stroke="none" 
	d="
M455.180084,605.913330 
	C455.850983,606.469727 456.443756,607.381226 457.051178,608.627441 
	C456.411194,608.064209 455.756592,607.166260 455.180084,605.913330 
z"/>
<path fill="#CAF2E5" opacity="1.000000" stroke="none" 
	d="
M471.161285,632.969482 
	C471.894531,633.459412 472.568054,634.315002 473.278473,635.502686 
	C472.577454,635.001526 471.839478,634.168396 471.161285,632.969482 
z"/>
<path fill="#CAF2E5" opacity="1.000000" stroke="none" 
	d="
M507.825928,722.026001 
	C507.080963,721.586792 506.395966,720.782837 505.665527,719.658630 
	C506.375336,720.112671 507.130585,720.886963 507.825928,722.026001 
z"/>
<path fill="#CAF2E5" opacity="1.000000" stroke="none" 
	d="
M500.808289,712.068848 
	C500.189575,711.832092 499.617432,711.238159 499.012329,710.328247 
	C499.604553,710.578674 500.229706,711.145203 500.808289,712.068848 
z"/>
<path fill="#CAF2E5" opacity="1.000000" stroke="none" 
	d="
M469.187744,629.911621 
	C469.779724,630.178406 470.309845,630.793640 470.862915,631.719849 
	C470.299194,631.440613 469.712555,630.850281 469.187744,629.911621 
z"/>
<path fill="#CAF2E5" opacity="1.000000" stroke="none" 
	d="
M502.788544,714.927002 
	C502.191193,714.696655 501.658051,714.134766 501.111511,713.272949 
	C501.682983,713.513855 502.267853,714.054688 502.788544,714.927002 
z"/>
<path fill="#CAF2E5" opacity="1.000000" stroke="none" 
	d="
M490.760132,697.172729 
	C490.151489,696.895935 489.619598,696.260376 489.062439,695.308167 
	C489.637085,695.599060 490.236969,696.206543 490.760132,697.172729 
z"/>
<path fill="#CAF2E5" opacity="1.000000" stroke="none" 
	d="
M498.993225,709.702759 
	C498.589478,709.609314 498.193268,709.197510 497.763550,708.489258 
	C498.153595,708.589966 498.577209,708.987183 498.993225,709.702759 
z"/>
<path fill="#CAF2E5" opacity="1.000000" stroke="none" 
	d="
M468.897461,660.815430 
	C468.485168,660.678589 468.116791,660.212585 467.741394,659.436096 
	C468.136688,659.579163 468.539032,660.032654 468.897461,660.815430 
z"/>
<path fill="#CAF2E5" opacity="1.000000" stroke="none" 
	d="
M503.984772,716.707642 
	C503.573029,716.623962 503.165314,716.221924 502.728790,715.521729 
	C503.129608,715.612183 503.559204,716.000671 503.984772,716.707642 
z"/>
<path fill="#CAF2E5" opacity="1.000000" stroke="none" 
	d="
M514.994019,731.688354 
	C514.575623,731.635986 514.159302,731.259460 513.689026,730.597168 
	C514.088806,730.662292 514.542480,731.013245 514.994019,731.688354 
z"/>
<path fill="#CAF2E5" opacity="1.000000" stroke="none" 
	d="
M460.887909,645.931885 
	C460.476898,645.774048 460.119385,645.277283 459.759644,644.463562 
	C460.152069,644.628723 460.546753,645.110840 460.887909,645.931885 
z"/>
<path fill="#CAF2E5" opacity="1.000000" stroke="none" 
	d="
M422.170837,549.888855 
	C421.994110,549.993652 421.627319,549.670776 421.641876,549.427002 
	C421.886780,549.383484 422.117157,549.583740 422.170837,549.888855 
z"/>
<path fill="#CAF2E5" opacity="1.000000" stroke="none" 
	d="
M496.654602,706.245483 
	C496.348999,706.307190 496.059021,706.035400 495.711670,705.464355 
	C495.992920,705.414062 496.331604,705.663025 496.654602,706.245483 
z"/>
<path fill="#CAF2E5" opacity="1.000000" stroke="none" 
	d="
M466.769287,657.138428 
	C466.490692,657.156982 466.230316,656.876831 465.980042,656.299072 
	C466.255920,656.280884 466.521698,656.560303 466.769287,657.138428 
z"/>
<path fill="#CAF2E5" opacity="1.000000" stroke="none" 
	d="
M465.748535,655.161316 
	C465.472839,655.175964 465.222015,654.888062 464.970581,654.302368 
	C465.237793,654.289307 465.505585,654.574036 465.748535,655.161316 
z"/>
<path fill="#CAF2E5" opacity="1.000000" stroke="none" 
	d="
M443.238647,582.847900 
	C443.511597,582.842285 443.755737,583.128967 443.975586,583.708862 
	C443.704132,583.714844 443.456970,583.427490 443.238647,582.847900 
z"/>
<path fill="#CAF2E5" opacity="1.000000" stroke="none" 
	d="
M453.151855,601.978027 
	C453.414154,601.951721 453.665405,602.202271 453.907532,602.730347 
	C453.645844,602.756836 453.393311,602.505798 453.151855,601.978027 
z"/>
<path fill="#CAF2E5" opacity="1.000000" stroke="none" 
	d="
M483.713440,686.191345 
	C483.423401,686.231567 483.150757,685.962036 482.857086,685.396118 
	C483.134308,685.360413 483.432587,685.620972 483.713440,686.191345 
z"/>
<path fill="#CAF2E5" opacity="1.000000" stroke="none" 
	d="
M484.792053,688.075806 
	C484.518066,688.108887 484.248657,687.849365 483.976379,687.298096 
	C484.247894,687.265320 484.522278,687.524231 484.792053,688.075806 
z"/>
<path fill="#CAF2E5" opacity="1.000000" stroke="none" 
	d="
M488.705658,694.202087 
	C488.412262,694.249268 488.136963,693.983459 487.833740,693.422974 
	C488.111786,693.381958 488.417755,693.635498 488.705658,694.202087 
z"/>
<path fill="#CAF2E5" opacity="1.000000" stroke="none" 
	d="
M505.640228,719.031494 
	C505.350037,719.090881 505.079346,718.856689 504.784973,718.344116 
	C505.060760,718.289795 505.360229,718.513855 505.640228,719.031494 
z"/>
<path fill="#CAF2E5" opacity="1.000000" stroke="none" 
	d="
M455.588074,635.305664 
	C455.267761,635.314026 455.020264,634.991699 454.772400,634.358032 
	C455.068298,634.356201 455.364624,634.665527 455.588074,635.305664 
z"/>
<path fill="#CAF2E5" opacity="1.000000" stroke="none" 
	d="
M497.764496,707.960815 
	C497.495667,708.015930 497.221039,707.794067 496.933990,707.295532 
	C497.200623,707.240540 497.479675,707.462219 497.764496,707.960815 
z"/>
<path fill="#12885C" opacity="1.000000" stroke="none" 
	d="
M748.259399,980.910950 
	C752.289551,995.451111 756.226562,1009.620422 760.304749,1024.297852 
	C751.385071,1024.297852 742.898315,1024.297852 733.951355,1024.297852 
	C738.148621,1008.435547 742.284729,992.804443 746.691162,976.151550 
	C747.344116,978.094238 747.755188,979.317139 748.259399,980.910950 
z"/>
<path fill="#A4EBD2" opacity="1.000000" stroke="none" 
	d="
M414.229065,511.468323 
	C413.748047,512.513489 413.289551,513.166931 412.689484,514.217407 
	C411.034515,508.950012 409.521057,503.285614 408.007599,497.621216 
	C408.544037,497.415588 409.080444,497.209991 409.616882,497.004395 
	C411.161804,501.695129 412.706696,506.385864 414.229065,511.468323 
z"/>
</svg>